<?xml version="1.0" encoding="UTF-8"?>
<svg version="1.1" xmlns="http://www.w3.org/2000/svg" width="225" height="225">
<path d="M0 0 C74.25 0 148.5 0 225 0 C225 74.25 225 148.5 225 225 C150.75 225 76.5 225 0 225 C0 150.75 0 76.5 0 0 Z " fill="#2D52A9" transform="translate(0,0)"/>
<path d="M0 0 C74.25 0 148.5 0 225 0 C225 74.25 225 148.5 225 225 C150.75 225 76.5 225 0 225 C0 150.75 0 76.5 0 0 Z M54 30 C53.42443359 30.96881104 52.84886719 31.93762207 52.25585938 32.93579102 C51.78986328 33.78326904 51.32386719 34.63074707 50.84375 35.50390625 C50.30371338 36.47900146 49.76367676 37.45409668 49.20727539 38.45874023 C48.64387451 39.48298096 48.08047363 40.50722168 47.5 41.5625 C42.77593633 50.07436608 37.98475148 58.53861991 33.0625 66.9375 C32.49547363 67.9056665 31.92844727 68.87383301 31.34423828 69.87133789 C30.17668568 71.86463642 29.00904115 73.85788111 27.84130859 75.85107422 C24.50390436 81.55855762 21.18676595 87.27762066 17.875 93 C17.24730713 94.08015381 16.61961426 95.16030762 15.97290039 96.27319336 C14.81071434 98.2834825 13.66269831 100.30205735 12.53173828 102.33007812 C11 105 11 105 9.49560547 107.15429688 C8.17379391 109.18690838 7.38415924 110.6029396 7 113 C8.13088066 116.90566002 10.1956647 120.09264747 12.375 123.5 C12.97916748 124.50264893 13.58333496 125.50529785 14.20581055 126.53833008 C15.48052704 128.65232952 16.76785564 130.75876897 18.06689453 132.85791016 C21.07499373 137.74730605 23.93533346 142.72037496 26.8125 147.6875 C27.97866553 149.68128279 29.14534277 151.67476634 30.3125 153.66796875 C34.35292344 160.58894299 38.3377927 167.54115449 42.3125 174.5 C43.26249878 176.16228638 43.26249878 176.16228638 44.23168945 177.8581543 C49.19150371 186.55182638 54.09275105 195.27600186 59 204 C94.31 204 129.62 204 166 204 C169.63 197.4 173.26 190.8 177 184 C179.23173742 180.11136662 181.4709644 176.23502339 183.75 172.375 C184.94065554 170.34537544 186.13073888 168.31541512 187.3203125 166.28515625 C187.92262695 165.25793457 188.52494141 164.23071289 189.14550781 163.17236328 C192.9608165 156.6457544 196.75446854 150.10596885 200.48803711 143.53222656 C203.46955554 138.29473332 206.51431891 133.15082468 209.82421875 128.11328125 C210.41315918 127.18475342 211.00209961 126.25622559 211.60888672 125.29956055 C212.70820055 123.5737103 213.84454775 121.87064585 215.02392578 120.19848633 C216.57843134 117.70707887 217.51946011 115.90254038 218 113 C216.72072719 108.55143928 214.45046795 104.90020474 212 101 C210.95624433 99.16598826 209.91579455 97.33009055 208.87890625 95.4921875 C207.77698883 93.61769948 206.67138031 91.74537744 205.5625 89.875 C204.32104034 87.76335833 203.08017518 85.65136706 201.83984375 83.5390625 C201.20546387 82.46043945 200.57108398 81.38181641 199.91748047 80.27050781 C196.79501229 74.94473958 193.7085579 69.59836397 190.625 64.25 C189.71016846 62.66517822 189.71016846 62.66517822 188.77685547 61.04833984 C185.35383033 55.11087581 181.95107225 49.16250952 178.56640625 43.203125 C177.82798893 41.90460722 177.08954517 40.60610447 176.35107422 39.30761719 C174.93099201 36.81036561 173.5153296 34.31067707 172.10205078 31.80957031 C171.46380371 30.68647461 170.82555664 29.56337891 170.16796875 28.40625 C169.60360107 27.40916016 169.0392334 26.41207031 168.45776367 25.38476562 C167.08353336 22.92718684 167.08353336 22.92718684 165 21 C163.06337822 20.6773523 163.06337822 20.6773523 160.81365967 20.69892883 C159.93609512 20.68317307 159.05853058 20.6674173 158.15437317 20.65118408 C157.18916245 20.64423523 156.22395172 20.63728638 155.22949219 20.63012695 C154.21471298 20.61537827 153.19993378 20.60062958 152.15440369 20.58543396 C148.78523788 20.54079241 145.41624572 20.51265594 142.046875 20.48828125 C140.89777901 20.47888205 139.74868301 20.46948284 138.56476593 20.45979881 C132.48248445 20.41218246 126.40028992 20.37851567 120.31787109 20.35473633 C114.03114274 20.32702002 107.74615356 20.24784947 101.46006393 20.15719318 C96.63018204 20.09742163 91.80071547 20.07747414 86.97049713 20.06822777 C84.65314399 20.05663043 82.33581517 20.02974184 80.01882172 19.98729897 C76.77381674 19.93138223 73.53343637 19.93215534 70.28808594 19.9465332 C69.33097214 19.91731781 68.37385834 19.88810242 67.38774109 19.85800171 C59.62728483 19.99125616 57.36828398 23.3351129 54 30 Z " fill="#FEFEFE" transform="translate(0,0)"/>
<path d="M0 0 C1.68802427 1.07538226 3.35811571 2.17884798 5.0234375 3.2890625 C3.65189246 6.24315951 2.03480026 8.72914626 0.0234375 11.2890625 C-0.6778125 11.0003125 -1.3790625 10.7115625 -2.1015625 10.4140625 C-3.0503125 10.0428125 -3.9990625 9.6715625 -4.9765625 9.2890625 C-5.9046875 8.9178125 -6.8328125 8.5465625 -7.7890625 8.1640625 C-12.79385243 6.7901986 -17.03506029 6.52055121 -21.9765625 8.4765625 C-24.17559482 10.13493856 -24.17559482 10.13493856 -24.6015625 12.7265625 C-23.70771238 16.39134797 -22.07711762 17.14497683 -18.9765625 19.2890625 C-15.9497917 20.82161816 -12.85032553 22.15516115 -9.7265625 23.4765625 C-8.09553574 24.1764813 -6.46528297 24.87820743 -4.8359375 25.58203125 C-4.11889648 25.8864917 -3.40185547 26.19095215 -2.66308594 26.50463867 C-0.9765625 27.2890625 -0.9765625 27.2890625 0.0234375 28.2890625 C4.3134375 28.6190625 8.6034375 28.9490625 13.0234375 29.2890625 C13.0234375 18.7290625 13.0234375 8.1690625 13.0234375 -2.7109375 C17.3134375 -2.7109375 21.6034375 -2.7109375 26.0234375 -2.7109375 C28.36240568 3.32261704 30.35812627 9.40265086 32.2109375 15.6015625 C32.48357422 16.49423828 32.75621094 17.38691406 33.03710938 18.30664062 C33.42286133 19.59151367 33.42286133 19.59151367 33.81640625 20.90234375 C34.0486792 21.67360596 34.28095215 22.44486816 34.52026367 23.23950195 C35.0234375 25.2890625 35.0234375 25.2890625 35.0234375 28.2890625 C35.6834375 28.2890625 36.3434375 28.2890625 37.0234375 28.2890625 C37.13228271 27.689729 37.24112793 27.09039551 37.35327148 26.47290039 C38.5635902 20.09295924 40.18651328 13.93319689 42.0859375 7.7265625 C42.4890918 6.37594727 42.4890918 6.37594727 42.90039062 4.99804688 C44.89060809 -1.57810809 44.89060809 -1.57810809 46.0234375 -2.7109375 C50.3134375 -2.7109375 54.6034375 -2.7109375 59.0234375 -2.7109375 C59.0234375 7.8490625 59.0234375 18.4090625 59.0234375 29.2890625 C69.2534375 29.2890625 79.4834375 29.2890625 90.0234375 29.2890625 C91.0234375 32.2890625 91.0234375 32.2890625 89.90625 34.78735352 C89.32617188 35.77920654 88.74609375 36.77105957 88.1484375 37.79296875 C87.17668579 39.47253662 87.17668579 39.47253662 86.18530273 41.18603516 C85.46482611 42.40796318 84.74420038 43.6298033 84.0234375 44.8515625 C83.28685508 46.117102 82.55127223 47.38322376 81.81665039 48.64990234 C80.30093998 51.2603028 78.77989984 53.8674799 77.25439453 56.47216797 C74.57709908 61.04653493 71.93359123 65.64016335 69.29052734 70.234375 C65.87472018 76.17078713 62.44513952 82.09925493 59.01776123 88.0289917 C57.30577479 90.99092886 55.59405236 93.95301775 53.88305664 96.91552734 C52.60036424 99.13629408 51.31704202 101.35669721 50.03295898 103.57666016 C46.64045156 109.45063281 43.29262819 115.34550522 40.0234375 121.2890625 C39.3634375 120.9590625 38.7034375 120.6290625 38.0234375 120.2890625 C36.64269059 120.18583119 35.25720052 120.14263469 33.87265015 120.13084412 C33.00324295 120.1210553 32.13383575 120.11126648 31.23808289 120.10118103 C30.28214737 120.09542557 29.32621185 120.0896701 28.34130859 120.08374023 C27.33639877 120.07384064 26.33148895 120.06394104 25.29612732 120.05374146 C21.96306746 120.02206668 18.62999333 119.9973454 15.296875 119.97265625 C12.99044415 119.95209189 10.68401712 119.93109556 8.37759399 119.90968323 C2.29816775 119.85440911 -3.78129281 119.8050234 -9.86077881 119.75683594 C-16.06086288 119.70665986 -22.26089694 119.6509535 -28.4609375 119.59570312 C-40.63276981 119.48805625 -52.80464548 119.38662581 -64.9765625 119.2890625 C-64.04421495 117.40433371 -63.10950106 115.52077543 -62.17382812 113.63769531 C-61.65357056 112.58866028 -61.13331299 111.53962524 -60.59729004 110.45880127 C-58.08139974 105.53834745 -55.29116411 100.79298835 -52.4765625 96.0390625 C-51.88214355 95.02634277 -51.28772461 94.01362305 -50.67529297 92.97021484 C-48.11200775 88.60355938 -45.53923932 84.24252507 -42.96582031 79.88183594 C-41.00766358 76.56123536 -39.05452529 73.23771957 -37.1015625 69.9140625 C-36.48861328 68.87991211 -35.87566406 67.84576172 -35.24414062 66.78027344 C-34.40399414 65.34989746 -34.40399414 65.34989746 -33.546875 63.890625 C-33.04945801 63.04838379 -32.55204102 62.20614258 -32.03955078 61.33837891 C-30.82308023 59.37793368 -30.82308023 59.37793368 -30.9765625 57.2890625 C-32.76380191 55.70450384 -32.76380191 55.70450384 -34.9765625 54.1640625 C-36.2965625 53.2153125 -37.6165625 52.2665625 -38.9765625 51.2890625 C-36.9965625 48.6490625 -35.0165625 46.0090625 -32.9765625 43.2890625 C-32.22632813 43.7221875 -31.47609375 44.1553125 -30.703125 44.6015625 C-24.01046348 48.24290983 -18.64516961 50.66296286 -10.9765625 49.2890625 C-7.80867466 48.47722317 -7.80867466 48.47722317 -5.9765625 46.2890625 C-5.90108961 43.95695009 -5.89568627 41.62099378 -5.9765625 39.2890625 C-7.46676434 38.54396158 -8.95701858 37.79896531 -10.44750977 37.05444336 C-11.72495167 36.41514912 -13.00147271 35.77401171 -14.27709961 35.13110352 C-17.15374164 33.68390286 -20.02961093 32.26472836 -22.95703125 30.921875 C-29.00621458 28.12149664 -32.91491173 25.41236403 -35.9765625 19.2890625 C-36.55144092 14.49355769 -37.02537811 9.55082135 -34.953125 5.08203125 C-26.33379919 -5.84689292 -11.50513978 -6.53614253 0 0 Z " fill="#4A6CB3" transform="translate(125.9765625,82.7109375)"/>
<path d="M0 0 C3.17440814 2.92629249 5.2534503 5.84345489 7.36328125 9.6015625 C7.99508301 10.71821289 8.62688477 11.83486328 9.27783203 12.98535156 C9.6089801 13.57771606 9.94012817 14.17008057 10.28131104 14.78039551 C11.33132687 16.65867775 12.38893659 18.53249275 13.44873047 20.40527344 C14.91634857 22.99913428 16.38150271 25.594363 17.84521484 28.19042969 C21.06828824 33.89818459 24.34549167 39.57450977 27.625 45.25 C28.23432373 46.30654785 28.84364746 47.3630957 29.47143555 48.45166016 C32.58725385 53.84866569 35.71976225 59.23531312 38.875 64.609375 C39.5045459 65.6828418 40.1340918 66.75630859 40.78271484 67.86230469 C41.96758406 69.88031942 43.15518806 71.89673226 44.34619141 73.91113281 C45.1532251 75.28543457 45.1532251 75.28543457 45.9765625 76.6875 C46.44143066 77.47511719 46.90629883 78.26273437 47.38525391 79.07421875 C49.72392936 83.31169783 51.83548473 87.67096945 54 92 C43.11 91.67 32.22 91.34 21 91 C21 80.44 21 69.88 21 59 C16.71 59.33 12.42 59.66 8 60 C5.03 69.9 2.06 79.8 -1 90 C-1.66 90 -2.32 90 -3 90 C-5.97 80.1 -8.94 70.2 -12 60 C-16.29 59.67 -20.58 59.34 -25 59 C-25 69.56 -25 80.12 -25 91 C-39.61134454 91 -39.61134454 91 -45.3125 87.75 C-46.4817433 87.10411682 -47.65101397 86.45828319 -48.8203125 85.8125 C-49.86960937 85.214375 -50.91890625 84.61625 -52 84 C-53.55680952 83.23825834 -55.11824746 82.48576676 -56.6875 81.75 C-59.49162902 80.26857335 -60.99608949 79.32807251 -63 77 C-63.5625 74.5625 -63.5625 74.5625 -63 72 C-59.76151073 69.00439743 -57.5658823 68.07421407 -53.1875 67.5 C-48.98098193 67.69452107 -45.60807457 69.25587896 -41.8828125 71.125 C-40.04374842 72.14048098 -40.04374842 72.14048098 -38 72 C-36.64287834 70.44144019 -36.64287834 70.44144019 -35.375 68.5 C-34.92898437 67.8503125 -34.48296875 67.200625 -34.0234375 66.53125 C-33.68570313 66.0259375 -33.34796875 65.520625 -33 65 C-33.66 65 -34.32 65 -35 65 C-33.6791292 60.63328001 -31.97200206 56.90360526 -29.69140625 52.95703125 C-29.20738091 52.11436958 -29.20738091 52.11436958 -28.71357727 51.25468445 C-27.66824859 49.43766933 -26.61539499 47.62513917 -25.5625 45.8125 C-24.83623896 44.55237848 -24.11049412 43.29195931 -23.38525391 42.03125 C-20.17778191 36.46180486 -16.94787696 30.90555641 -13.70703125 25.35546875 C-12.76270424 23.73716387 -11.81867374 22.11868591 -10.875 20.5 C-10.43639648 19.74783203 -9.99779297 18.99566406 -9.54589844 18.22070312 C-6.10059645 12.26948435 -2.9416037 6.21832681 0 0 Z " fill="#344492" transform="translate(164,21)"/>
<path d="M0 0 C3.96 0 7.92 0 12 0 C14.33896818 6.03355454 16.33468877 12.11358836 18.1875 18.3125 C18.46013672 19.20517578 18.73277344 20.09785156 19.01367188 21.01757812 C19.27083984 21.87416016 19.52800781 22.73074219 19.79296875 23.61328125 C20.0252417 24.38454346 20.25751465 25.15580566 20.49682617 25.95043945 C21 28 21 28 21 31 C21.66 31 22.32 31 23 31 C23.10884521 30.4006665 23.21769043 29.80133301 23.32983398 29.18383789 C24.5401527 22.80389674 26.16307578 16.64413439 28.0625 10.4375 C28.33126953 9.53708984 28.60003906 8.63667969 28.87695312 7.70898438 C30.86717059 1.13282941 30.86717059 1.13282941 32 0 C35.96 0 39.92 0 44 0 C44 20.46 44 40.92 44 62 C41.03 62 38.06 62 35 62 C35 46.82 35 31.64 35 16 C32.07969561 25.49784785 32.07969561 25.49784785 29.16625977 34.99780273 C28.80330811 36.17286377 28.44035645 37.3479248 28.06640625 38.55859375 C27.69459229 39.76829834 27.32277832 40.97800293 26.93969727 42.22436523 C26 45 26 45 25 46 C23.00041636 46.04080783 20.99954746 46.04254356 19 46 C14.89232598 36.60067533 12.01482087 26.78811843 9 17 C8.92236065 26.94969808 9.16511801 36.87055043 9.5 46.8125 C9.54836963 48.2949156 9.59654778 49.77733747 9.64453125 51.25976562 C9.7608219 54.83991836 9.87967396 58.41998034 10 62 C6.7 62 3.4 62 0 62 C0 41.54 0 21.08 0 0 Z " fill="#FAFBFB" transform="translate(140,80)"/>
<path d="M0 0 C4.29 0 8.58 0 13 0 C15.43177228 5.40071217 17.30943692 10.84617504 19.0625 16.5 C19.66840729 18.43256262 20.27523637 20.36483639 20.8828125 22.296875 C21.21442383 23.35197266 21.54603516 24.40707031 21.88769531 25.49414062 C23.1344261 29.42369595 24.40432974 33.3452892 25.6796875 37.265625 C25.90790695 37.96816406 26.1361264 38.67070313 26.3712616 39.39453125 C27.28761646 42.21516803 28.20402588 45.03577321 29.1255188 47.85473633 C29.7724735 49.83461528 30.4158608 51.81562224 31.05859375 53.796875 C31.43298584 54.94510742 31.80737793 56.09333984 32.19311523 57.27636719 C33 60 33 60 33 62 C29.04 62 25.08 62 21 62 C20.32389577 60.10751181 19.65949561 58.2108398 19 56.3125 C18.62875 55.25675781 18.2575 54.20101562 17.875 53.11328125 C17 50 17 50 17 45 C10.07 45 3.14 45 -4 45 C-5.32 50.61 -6.64 56.22 -8 62 C-11.63 62 -15.26 62 -19 62 C-18.45696545 55.22005399 -16.58569267 49.42671705 -14.25 43.0625 C-11.7442929 36.06737778 -9.33693227 29.08776471 -7.3125 21.9375 C-5.20062793 14.48750771 -2.67739533 7.26721589 0 0 Z " fill="#F9FAFB" transform="translate(51,80)"/>
<path d="M0 0 C1.68802427 1.07538226 3.35811571 2.17884798 5.0234375 3.2890625 C3.65189246 6.24315951 2.03480026 8.72914626 0.0234375 11.2890625 C-0.6778125 11.0003125 -1.3790625 10.7115625 -2.1015625 10.4140625 C-3.0503125 10.0428125 -3.9990625 9.6715625 -4.9765625 9.2890625 C-5.9046875 8.9178125 -6.8328125 8.5465625 -7.7890625 8.1640625 C-12.79385243 6.7901986 -17.03506029 6.52055121 -21.9765625 8.4765625 C-24.17559482 10.13493856 -24.17559482 10.13493856 -24.6015625 12.7265625 C-23.70914171 16.38548776 -22.07048369 17.1569821 -18.9765625 19.2890625 C-16.07086394 20.69044553 -13.08898857 21.88649878 -10.1015625 23.1015625 C2.16012601 28.30471725 2.16012601 28.30471725 6.0234375 34.2890625 C7.7122338 39.35545139 8.22248038 44.60265727 6 49.58203125 C1.63459848 56.00954233 -4.53183072 58.72783719 -11.9765625 60.2890625 C-20.2149833 61.18486227 -28.0804268 59.61918948 -35.00390625 54.91015625 C-36.6640625 53.5390625 -36.6640625 53.5390625 -38.9765625 51.2890625 C-36.9965625 48.6490625 -35.0165625 46.0090625 -32.9765625 43.2890625 C-32.22632812 43.7221875 -31.47609375 44.1553125 -30.703125 44.6015625 C-24.01046348 48.24290983 -18.64516961 50.66296286 -10.9765625 49.2890625 C-7.80867466 48.47722317 -7.80867466 48.47722317 -5.9765625 46.2890625 C-5.90108961 43.95695009 -5.89568627 41.62099378 -5.9765625 39.2890625 C-7.46676434 38.54396158 -8.95701858 37.79896531 -10.44750977 37.05444336 C-11.72495167 36.41514912 -13.00147271 35.77401171 -14.27709961 35.13110352 C-17.15374164 33.68390286 -20.02961093 32.26472836 -22.95703125 30.921875 C-29.00621458 28.12149664 -32.91491173 25.41236403 -35.9765625 19.2890625 C-36.55144092 14.49355769 -37.02537811 9.55082135 -34.953125 5.08203125 C-26.33379919 -5.84689292 -11.50513978 -6.53614253 0 0 Z " fill="#F9FAFB" transform="translate(125.9765625,82.7109375)"/>
<path d="M0 0 C3.11670542 1.12453446 6.06005658 2.47558489 9 4 C8.09755571 5.79887229 7.17748214 7.58890815 6.25 9.375 C5.73953125 10.37273437 5.2290625 11.37046875 4.703125 12.3984375 C2.92555222 15.11372069 2.1448068 16.23850334 -1 17 C-3.47265625 16.20703125 -3.47265625 16.20703125 -6.0625 14.8125 C-6.91972656 14.36519531 -7.77695313 13.91789062 -8.66015625 13.45703125 C-10.80735815 12.11995895 -12.38938609 10.9388919 -14 9 C-14.5625 6.5625 -14.5625 6.5625 -14 4 C-9.75277036 0.07131259 -5.63253277 -1.0554656 0 0 Z " fill="#2F54A9" transform="translate(115,89)"/>
<path d="M0 0 C1.64703306 0.81006526 3.29259506 1.6231221 4.9375 2.4375 C5.85402344 2.88996094 6.77054688 3.34242187 7.71484375 3.80859375 C10 5 10 5 11 6 C11.46889952 12.33014354 11.46889952 12.33014354 9.6875 14.875 C6.5279957 16.9813362 3.68784781 17.16006066 0 17.1875 C-1.299375 17.20876953 -1.299375 17.20876953 -2.625 17.23046875 C-5 17 -5 17 -8 15 C-6.62712658 11.30123909 -4.93644547 8.0485524 -2.875 4.6875 C-2.33617188 3.80449219 -1.79734375 2.92148438 -1.2421875 2.01171875 C-0.83226563 1.34785156 -0.42234375 0.68398437 0 0 Z " fill="#4C6DB4" transform="translate(110,116)"/>
<path d="M0 0 C2.2651834 2.2651834 2.51938135 3.37177832 3.25390625 6.4296875 C3.46853516 7.30753906 3.68316406 8.18539062 3.90429688 9.08984375 C4.12150391 10.00894531 4.33871094 10.92804688 4.5625 11.875 C4.78357422 12.78636719 5.00464844 13.69773437 5.23242188 14.63671875 C5.64456901 16.3376039 6.05381394 18.03919677 6.45922852 19.74169922 C6.95953725 21.83102463 7.47893833 23.91575332 8 26 C3.05 26 -1.9 26 -7 26 C-2.96127563 8.14350797 -2.96127563 8.14350797 0 0 Z " fill="#3358AB" transform="translate(57,90)"/>
<path d="M0 0 C0.33 0 0.66 0 1 0 C1.19219715 9.69527822 0.59581324 19.32867432 0 29 C-0.33 29 -0.66 29 -1 29 C-1 26.03 -1 23.06 -1 20 C-2.32 20 -3.64 20 -5 20 C-4.35346673 13.04976736 -2.13972752 6.61822697 0 0 Z " fill="#44569D" transform="translate(175,93)"/>
<path d="M0 0 C1.99775873 2.99663809 2.98997415 5.53662626 4.125 8.9375 C4.47820312 9.97777344 4.83140625 11.01804687 5.1953125 12.08984375 C6 15 6 15 6 19 C4.35 19 2.7 19 1 19 C-0.25433458 15.23699626 -0.10695422 11.72789091 -0.0625 7.8125 C-0.05798828 7.06291016 -0.05347656 6.31332031 -0.04882812 5.54101562 C-0.03706354 3.69397617 -0.01912865 1.84697787 0 0 Z " fill="#48569C" transform="translate(148,94)"/>
<path d="M0 0 C0.66 0.33 1.32 0.66 2 1 C-1.3 6.61 -4.6 12.22 -8 18 C-8.66 17.67 -9.32 17.34 -10 17 C-8.5228313 14.35303306 -7.04337118 11.70739435 -5.5625 9.0625 C-5.14162109 8.30775391 -4.72074219 7.55300781 -4.28710938 6.77539062 C-3.68286133 5.69741211 -3.68286133 5.69741211 -3.06640625 4.59765625 C-2.69459229 3.93258057 -2.32277832 3.26750488 -1.93969727 2.58227539 C-1 1 -1 1 0 0 Z " fill="#4463A0" transform="translate(193,152)"/>
<path d="M0 0 C2 2 2 2 2 5 C1.34 5 0.68 5 0 5 C-0.12375 5.804375 -0.2475 6.60875 -0.375 7.4375 C-0.58125 8.283125 -0.7875 9.12875 -1 10 C-1.99 10.495 -1.99 10.495 -3 11 C-2.01 7.37 -1.02 3.74 0 0 Z " fill="#4667B0" transform="translate(57,90)"/>
</svg>
