<?xml version="1.0" encoding="UTF-8"?>
<svg version="1.1" xmlns="http://www.w3.org/2000/svg" width="225" height="225">
<path d="M0 0 C74.25 0 148.5 0 225 0 C225 74.25 225 148.5 225 225 C150.75 225 76.5 225 0 225 C0 150.75 0 76.5 0 0 Z " fill="#FDFEFE" transform="translate(0,0)"/>
<path d="M0 0 C4.89179034 2.59909379 8.12739666 6.04234623 9.87109375 11.2734375 C10.26141379 17.12823809 9.83658407 21.0344046 6.87109375 26.2734375 C2.64287831 30.74425547 -1.28128495 32.4270155 -7.37890625 32.6484375 C-12.14866971 32.59172961 -15.05874075 31.93386198 -18.69140625 28.81640625 C-22.33403459 24.90651986 -24.33090267 21.29408319 -24.75390625 15.8984375 C-24.45165167 9.36078292 -20.55183206 4.5579104 -15.94140625 0.2109375 C-10.79670989 -1.50396129 -5.17756519 -1.76702225 0 0 Z " fill="#0396CC" transform="translate(124.12890625,29.7265625)"/>
<path d="M0 0 C0.99 0.66 1.98 1.32 3 2 C1.65180601 5.78259667 -0.04793505 8.67313503 -2.4765625 11.86328125 C-3.48203125 13.19262695 -3.48203125 13.19262695 -4.5078125 14.54882812 C-5.20648438 15.46083984 -5.90515625 16.37285156 -6.625 17.3125 C-7.33140625 18.24384766 -8.0378125 19.17519531 -8.765625 20.13476562 C-10.5054152 22.42705677 -12.25031988 24.71525436 -14 27 C-13.26910156 28.37671875 -13.26910156 28.37671875 -12.5234375 29.78125 C-10.72832951 33.57399098 -10.5547819 35.84463106 -11 40 C-12.45170699 43.59470303 -13.93002067 46.5695997 -17 49 C-21.35686158 50.45228719 -25.45115105 50.63669736 -30 50 C-33.20622337 48.36750338 -35.24997546 46.02276074 -37.375 43.125 C-38.74491124 38.46730178 -38.55023195 34.53521138 -36.3125 30.25 C-33.95302504 26.93398114 -32.7615233 25.45331582 -29 24 C-25.13208297 23.59804 -21.72021331 23.7599289 -18 25 C-17.75636719 24.45730469 -17.51273438 23.91460937 -17.26171875 23.35546875 C-15.70191927 20.44352112 -13.8105631 17.9433404 -11.8125 15.3125 C-11.01585938 14.26191406 -10.21921875 13.21132812 -9.3984375 12.12890625 C-6.2866226 8.0693562 -3.15927128 4.02273771 0 0 Z " fill="#0696CC" transform="translate(102,61)"/>
<path d="M0 0 C3.54118969 1.18039656 4.1385492 2.18031244 6.28515625 5.1484375 C6.89810547 5.98890625 7.51105469 6.829375 8.14257812 7.6953125 C8.77615234 8.57960938 9.40972656 9.46390625 10.0625 10.375 C11.01866211 11.68984375 11.01866211 11.68984375 11.99414062 13.03125 C14.38241912 16.32299739 16.74392249 19.61588373 19 23 C21.2387323 23.25090954 21.2387323 23.25090954 23.75 23 C28.32907634 22.88123433 31.16528974 23.26092125 35 26 C38.4303482 29.8817098 39.66243718 32.96590547 39.390625 38.04296875 C38.56568833 42.17590146 36.08693788 44.91306212 33.1875 47.8125 C28.71953874 50.23796468 25.14764979 50.33067875 20.3125 48.9375 C16.36936161 46.63113604 14.89268656 45.16391042 13 41 C12.45033179 36.65831691 12.16290688 32.60063413 14.2253418 28.65698242 C15.33425584 25.97441839 15.33425584 25.97441839 13.77416992 23.55224609 C12.76253784 22.30048584 12.76253784 22.30048584 11.73046875 21.0234375 C11.00666016 20.105625 10.28285156 19.1878125 9.53710938 18.2421875 C8.76173828 17.29601562 7.98636719 16.34984375 7.1875 15.375 C5.67782983 13.48950477 4.17117237 11.60159219 2.66796875 9.7109375 C1.65126099 8.46256104 1.65126099 8.46256104 0.61401367 7.18896484 C-1 5 -1 5 -2 2 C-1.34 1.34 -0.68 0.68 0 0 Z " fill="#0496CC" transform="translate(130,62)"/>
<path d="M0 0 C1.65 0 3.3 0 5 0 C5.33 5.94 5.66 11.88 6 18 C7.98 18.99 9.96 19.98 12 21 C15.4871182 24.84785456 16.47166894 28.66340584 16.4140625 33.8671875 C15.63499845 37.88010232 13.01334276 40.39658692 10 43 C6.30841567 45.33152694 3.12184764 45.21529632 -1.0703125 44.54296875 C-4.75440571 43.50635143 -7.15215445 41.4050868 -9.10546875 38.16796875 C-10.74498634 34.19446543 -10.6503042 30.20707 -10 26 C-7.73109126 21.40592858 -4.76599093 19.90639637 0 18 C0 12.06 0 6.12 0 0 Z " fill="#0797CD" transform="translate(114,67)"/>
<path d="M0 0 C0.99 0.66 1.98 1.32 3 2 C1.5292822 5.60127117 -0.36746524 7.34444947 -3.4375 9.6875 C-4.3346875 10.38359375 -5.231875 11.0796875 -6.15625 11.796875 C-7.0946875 12.52390625 -8.033125 13.2509375 -9 14 C-11.74044651 16.22070665 -14.4642745 18.45969766 -17.1796875 20.7109375 C-19.11056504 22.27810404 -21.07659917 23.80265536 -23.0703125 25.2890625 C-29.20098432 29.94709253 -31.838431 32.38526987 -33 40 C-34.625 42.5 -34.625 42.5 -37 44 C-41.01954939 44.79398507 -43.96597323 44.62041606 -47.5 42.5 C-49.62667686 38.95553856 -49.77614824 36.02936531 -49 32 C-47.625 29.5 -47.625 29.5 -45 28 C-43.47675916 28.05934705 -41.95523433 28.170137 -40.4375 28.3125 C-33.69115315 28.54818024 -30.39049976 24.84951126 -25.64111328 20.47265625 C-22.47013968 17.62717681 -19.1271422 14.98752164 -15.8125 12.3125 C-15.15942871 11.77858643 -14.50635742 11.24467285 -13.83349609 10.69458008 C-9.31120726 7.00648328 -4.69245894 3.46867683 0 0 Z " fill="#0897CD" transform="translate(140,108)"/>
<path d="M0 0 C1.32 0.66 2.64 1.32 4 2 C2.51962802 7.86888585 0.22025747 12.73730033 -2.69726562 18.01367188 C-4.55791901 21.42690787 -4.55791901 21.42690787 -4.7265625 25.2109375 C-4.36691406 26.09652344 -4.36691406 26.09652344 -4 27 C-3.6358934 31.00517255 -3.65872664 33.33167301 -5.5 36.9375 C-8.55589307 39.45861178 -10.23668182 39.63134586 -14.09765625 39.34375 C-16.95159775 38.82804804 -18.19219609 38.31398901 -20 36 C-20.95970277 33.26306987 -21.32601702 30.88918533 -21 28 C-18.9375 25 -18.9375 25 -16 23 C-12.6875 22.6875 -12.6875 22.6875 -10 23 C-9.9175 22.34386719 -9.835 21.68773437 -9.75 21.01171875 C-8.74000926 16.9559747 -6.91447232 13.51091243 -5 9.8125 C-4.44699219 8.72678711 -4.44699219 8.72678711 -3.8828125 7.61914062 C-2.92672882 5.74361151 -1.96382391 3.87156324 -1 2 C-0.67 1.34 -0.34 0.68 0 0 Z " fill="#0796CD" transform="translate(145,113)"/>
<path d="M0 0 C1.65 0 3.3 0 5 0 C4.69964844 1.16917969 4.39929688 2.33835937 4.08984375 3.54296875 C3.70517914 5.09100926 3.321095 6.6391941 2.9375 8.1875 C2.73833984 8.95642578 2.53917969 9.72535156 2.33398438 10.51757812 C1.32667788 14.63516431 0.55806618 17.87048273 2 22 C2.66 22.99 3.32 23.98 4 25 C4.47609586 28.65006827 4.21601636 30.56796727 2.5625 33.875 C-0.69018545 36.57234891 -2.73320049 36.72978547 -6.87109375 36.484375 C-9 36 -9 36 -11.5625 33.875 C-13.25419769 30.49160462 -13.62195931 28.73175586 -13 25 C-10.09076433 20.32444268 -10.09076433 20.32444268 -6.859375 19.36328125 C-6.24578125 19.24339844 -5.6321875 19.12351563 -5 19 C-4.72285156 17.79601562 -4.44570312 16.59203125 -4.16015625 15.3515625 C-3.79440321 13.77601093 -3.42851055 12.20049177 -3.0625 10.625 C-2.88009766 9.8309375 -2.69769531 9.036875 -2.50976562 8.21875 C-2.33251953 7.45820312 -2.15527344 6.69765625 -1.97265625 5.9140625 C-1.81031494 5.2123291 -1.64797363 4.5105957 -1.48071289 3.78759766 C-1 2 -1 2 0 0 Z " fill="#0897CD" transform="translate(70,116)"/>
<path d="M0 0 C1.65 0 3.3 0 5 0 C5.67493341 2.22667765 6.33963044 4.45645977 7 6.6875 C7.37125 7.92886719 7.7425 9.17023438 8.125 10.44921875 C8.87703457 13.5010019 9.19034899 15.88898362 9 19 C9.928125 19.0825 10.85625 19.165 11.8125 19.25 C15 20 15 20 16.875 21.6875 C18.36633241 24.75301662 18.48231822 26.62377244 18 30 C15.92170296 33.74093467 14.67458281 34.79149259 10.5625 36.0625 C6.26668421 35.98713481 4.94780329 35.03450339 2 32 C0.47508002 28.95016004 0.76437452 26.3576631 1 23 C1.51433594 22.53722656 2.02867187 22.07445312 2.55859375 21.59765625 C4.27732191 20.06344759 4.27732191 20.06344759 3.92578125 17.6171875 C3.72339844 16.71226562 3.52101562 15.80734375 3.3125 14.875 C3.10496094 13.90691406 2.89742187 12.93882812 2.68359375 11.94140625 C2.45800781 10.97074219 2.23242188 10.00007813 2 9 C1.80535156 8.10152344 1.61070312 7.20304687 1.41015625 6.27734375 C0.95513229 4.18157648 0.4797296 2.0902504 0 0 Z " fill="#0997CD" transform="translate(157,117)"/>
<path d="M0 0 C0.99 0 1.98 0 3 0 C3.66 2.97 4.32 5.94 5 9 C5.33 6.03 5.66 3.06 6 0 C6.99 0 7.98 0 9 0 C9 4.62 9 9.24 9 14 C7.02 14 5.04 14 3 14 C3 13.01 3 12.02 3 11 C2.34 11 1.68 11 1 11 C0.67 11.99 0.34 12.98 0 14 C-0.66 14 -1.32 14 -2 14 C-1.43393721 9.30976546 -0.81462495 4.65499974 0 0 Z " fill="#383838" transform="translate(143,180)"/>
<path d="M0 0 C2.31 0 4.62 0 7 0 C8.10228696 4.40914783 8.07654536 8.48382401 8 13 C7.4225 12.814375 6.845 12.62875 6.25 12.4375 C3.69606643 11.7761831 3.69606643 11.7761831 0 13 C0 8.71 0 4.42 0 0 Z " fill="#5D5D5D" transform="translate(173,181)"/>
<path d="M0 0 C1.37478516 0.01740234 1.37478516 0.01740234 2.77734375 0.03515625 C3.69644531 0.04417969 4.61554688 0.05320313 5.5625 0.0625 C6.27277344 0.07410156 6.98304687 0.08570313 7.71484375 0.09765625 C7.71484375 1.08765625 7.71484375 2.07765625 7.71484375 3.09765625 C8.04484375 3.75765625 8.37484375 4.41765625 8.71484375 5.09765625 C8.4354192 6.77420354 8.10656128 8.44373779 7.71484375 10.09765625 C6.39484375 9.76765625 5.07484375 9.43765625 3.71484375 9.09765625 C3.71484375 8.43765625 3.71484375 7.77765625 3.71484375 7.09765625 C4.37484375 6.76765625 5.03484375 6.43765625 5.71484375 6.09765625 C3.40484375 5.76765625 1.09484375 5.43765625 -1.28515625 5.09765625 C0.03484375 5.42765625 1.35484375 5.75765625 2.71484375 6.09765625 C2.05484375 7.41765625 1.39484375 8.73765625 0.71484375 10.09765625 C-0.60515625 9.76765625 -1.92515625 9.43765625 -3.28515625 9.09765625 C-3.3828125 2.9453125 -3.3828125 2.9453125 -3.28515625 1.09765625 C-2.28515625 0.09765625 -2.28515625 0.09765625 0 0 Z " fill="#2C2C2C" transform="translate(116.28515625,183.90234375)"/>
<path d="M0 0 C1.98 0 3.96 0 6 0 C7 1 7 1 7.1328125 3.25 C7.13023438 4.1575 7.12765625 5.065 7.125 6 C7.12757812 6.9075 7.13015625 7.815 7.1328125 8.75 C7 11 7 11 6 12 C4.02 12 2.04 12 0 12 C0 8.04 0 4.08 0 0 Z " fill="#1C1C1C" transform="translate(32,181)"/>
<path d="M0 0 C0.66 0 1.32 0 2 0 C2 0.99 2 1.98 2 3 C4.31 3 6.62 3 9 3 C9 3.66 9 4.32 9 5 C8.34 5 7.68 5 7 5 C7 7.64 7 10.28 7 13 C5.00045254 13.04254356 2.99958364 13.04080783 1 13 C-0.55383208 11.44616792 -0.38172542 9.77276704 -0.625 7.625 C-0.72039062 6.83351562 -0.81578125 6.04203125 -0.9140625 5.2265625 C-1 3 -1 3 0 0 Z " fill="#B5B5B5" transform="translate(71,181)"/>
<path d="M0 0 C0.66 0 1.32 0 2 0 C3.05404945 3.98196457 2.84098656 6.98195309 2 11 C2.66 11 3.32 11 4 11 C4.66 9.68 5.32 8.36 6 7 C5.67 6.67 5.34 6.34 5 6 C5.33 5.01 5.66 4.02 6 3 C7.32 3.33 8.64 3.66 10 4 C10 6.64 10 9.28 10 12 C8.52168779 12.19412181 7.04230684 12.38012131 5.5625 12.5625 C4.73878906 12.66691406 3.91507813 12.77132812 3.06640625 12.87890625 C2.04353516 12.93884766 2.04353516 12.93884766 1 13 C-0.55383208 11.44616792 -0.38172542 9.77276704 -0.625 7.625 C-0.72039063 6.83351562 -0.81578125 6.04203125 -0.9140625 5.2265625 C-1 3 -1 3 0 0 Z " fill="#262626" transform="translate(48,181)"/>
<path d="M0 0 C2.0625 0.4375 2.0625 0.4375 4 1 C3.67 3.31 3.34 5.62 3 8 C3.99 7.67 4.98 7.34 6 7 C6 9.31 6 11.62 6 14 C3.69 14 1.38 14 -1 14 C-1.79953138 10.71303767 -2.09658936 9.28976808 -1 6 C-1 5.13375 -1 4.2675 -1 3.375 C-1 1 -1 1 0 0 Z " fill="#303030" transform="translate(131,180)"/>
<path d="M0 0 C0.78375 0.04125 1.5675 0.0825 2.375 0.125 C2.00375 1.1975 1.6325 2.27 1.25 3.375 C0.06008268 6.94129347 0.06008268 6.94129347 1.25 9.5625 C1.806875 10.3359375 1.806875 10.3359375 2.375 11.125 C1.375 12.125 1.375 12.125 -1.6875 12.1875 C-2.656875 12.166875 -3.62625 12.14625 -4.625 12.125 C-4.67895478 10.50036158 -4.71777195 8.87521459 -4.75 7.25 C-4.77320313 6.34507812 -4.79640625 5.44015625 -4.8203125 4.5078125 C-4.53030547 0.96972669 -3.50613188 0.16695866 0 0 Z " fill="#2F2F2F" transform="translate(157.625,183.875)"/>
<path d="M0 0 C6.15234375 -0.09765625 6.15234375 -0.09765625 8 0 C9 1 9 1 9.09765625 2.84765625 C9.04882812 5.92382812 9.04882812 5.92382812 9 9 C8.34 9 7.68 9 7 9 C7 6.69 7 4.38 7 2 C6.34 2 5.68 2 5 2 C5 4.31 5 6.62 5 9 C3.35 9 1.7 9 0 9 C0 6.03 0 3.06 0 0 Z " fill="#070707" transform="translate(190,184)"/>
<path d="M0 0 C0.99 0 1.98 0 3 0 C3 1.32 3 2.64 3 4 C3.99 4 4.98 4 6 4 C6 7.3 6 10.6 6 14 C5.34 14 4.68 14 4 14 C4 11.36 4 8.72 4 6 C3.34 6 2.68 6 2 6 C2 8.31 2 10.62 2 13 C1.34 13 0.68 13 0 13 C0 8.71 0 4.42 0 0 Z " fill="#2E2E2E" transform="translate(182,180)"/>
<path d="M0 0 C1.67542976 0.28604898 3.34385343 0.61781233 5 1 C5 1.99 5 2.98 5 4 C4.34 4 3.68 4 3 4 C3 3.34 3 2.68 3 2 C2.34 2 1.68 2 1 2 C1.71403618 4.98090937 1.71403618 4.98090937 3.5625 6.375 C5 8 5 8 5.1875 10.6875 C5.125625 11.450625 5.06375 12.21375 5 13 C3.35 13.33 1.7 13.66 0 14 C-0.33 12.68 -0.66 11.36 -1 10 C-0.34 10 0.32 10 1 10 C1 10.66 1 11.32 1 12 C1.66 12 2.32 12 3 12 C1.24545615 8.81765895 1.24545615 8.81765895 -1 6 C-1.125 3.5 -1.125 3.5 -1 1 C-0.67 0.67 -0.34 0.34 0 0 Z " fill="#0F0F0F" transform="translate(64,180)"/>
<path d="M0 0 C1.98 0 3.96 0 6 0 C6 3.3 6 6.6 6 10 C4.35 10 2.7 10 1 10 C0 9 0 9 -0.09765625 6.93359375 C-0.08605469 6.10988281 -0.07445313 5.28617188 -0.0625 4.4375 C-0.05347656 3.61121094 -0.04445313 2.78492188 -0.03515625 1.93359375 C-0.02355469 1.29550781 -0.01195313 0.65742188 0 0 Z " fill="#1D1D1D" transform="translate(100,184)"/>
<path d="M0 0 C1.32 0 2.64 0 4 0 C4 2.97 4 5.94 4 9 C2.68 9.33 1.36 9.66 0 10 C-1 9 -1 9 -1.1328125 7.1875 C-1.13023437 6.465625 -1.12765625 5.74375 -1.125 5 C-1.12757813 4.278125 -1.13015625 3.55625 -1.1328125 2.8125 C-1 1 -1 1 0 0 Z " fill="#292929" transform="translate(162,184)"/>
<path d="M0 0 C1.65 0.33 3.3 0.66 5 1 C5 3.64 5 6.28 5 9 C3.35 9.33 1.7 9.66 0 10 C-0.33 8.68 -0.66 7.36 -1 6 C0.32 5.34 1.64 4.68 3 4 C1.68 3.67 0.36 3.34 -1 3 C-0.67 2.01 -0.34 1.02 0 0 Z " fill="#222222" transform="translate(41,184)"/>
<path d="M0 0 C1.67542976 0.28604898 3.34385343 0.61781233 5 1 C5 1.99 5 2.98 5 4 C4.34 4 3.68 4 3 4 C3 4.66 3 5.32 3 6 C3.66 6 4.32 6 5 6 C4.67 7.32 4.34 8.64 4 10 C0.125 9.125 0.125 9.125 -1 8 C-1.125 4.5 -1.125 4.5 -1 1 C-0.67 0.67 -0.34 0.34 0 0 Z " fill="#2E2E2E" transform="translate(89,184)"/>
<path d="M0 0 C0.66 0 1.32 0 2 0 C2 2.64 2 5.28 2 8 C2.66 8 3.32 8 4 8 C4 5.36 4 2.72 4 0 C4.66 0 5.32 0 6 0 C6 3.3 6 6.6 6 10 C4.35 10 2.7 10 1 10 C0 9 0 9 -0.09765625 6.93359375 C-0.08605469 6.10988281 -0.07445313 5.28617188 -0.0625 4.4375 C-0.05347656 3.61121094 -0.04445313 2.78492188 -0.03515625 1.93359375 C-0.02355469 1.29550781 -0.01195313 0.65742188 0 0 Z " fill="#0B0B0B" transform="translate(81,184)"/>
<path d="M0 0 C0.99 0 1.98 0 3 0 C4.10228696 4.40914783 4.07654536 8.48382401 4 13 C2.68 12.67 1.36 12.34 0 12 C0 8.04 0 4.08 0 0 Z " fill="#272727" transform="translate(177,181)"/>
<path d="M0 0 C1.33333333 0 2.66666667 0 4 0 C4 3.3 4 6.6 4 10 C2.68 10 1.36 10 0 10 C0 6.7 0 3.4 0 0 Z " fill="#5A5A5A" transform="translate(35,182)"/>
<path d="M0 0 C1.65 0.33 3.3 0.66 5 1 C5 1.66 5 2.32 5 3 C4.01 3 3.02 3 2 3 C2.7734375 3.61875 2.7734375 3.61875 3.5625 4.25 C4.036875 4.8275 4.51125 5.405 5 6 C4.6875 8.1875 4.6875 8.1875 4 10 C2.0625 9.625 2.0625 9.625 0 9 C-0.33 8.34 -0.66 7.68 -1 7 C-0.01 7 0.98 7 2 7 C1.484375 6.5875 0.96875 6.175 0.4375 5.75 C-0.036875 5.1725 -0.51125 4.595 -1 4 C-0.6875 1.8125 -0.6875 1.8125 0 0 Z " fill="#1F1F1F" transform="translate(201,184)"/>
<path d="M0 0 C0.99 0 1.98 0 3 0 C4.10228696 4.40914783 4.07654536 8.48382401 4 13 C3.01 13 2.02 13 1 13 C0.67 8.71 0.34 4.42 0 0 Z " fill="#171717" transform="translate(95,181)"/>
<path d="M0 0 C0.66 0.33 1.32 0.66 2 1 C1.67 1.99 1.34 2.98 1 4 C1.99 3.67 2.98 3.34 4 3 C4 3.66 4 4.32 4 5 C3.01 5 2.02 5 1 5 C2.32 5.33 3.64 5.66 5 6 C4.34 7.32 3.68 8.64 3 10 C1.68 9.67 0.36 9.34 -1 9 C-1.09765625 2.84765625 -1.09765625 2.84765625 -1 1 C-0.67 0.67 -0.34 0.34 0 0 Z " fill="#131313" transform="translate(114,184)"/>
<path d="M0 0 C3 1 3 1 4.1875 3.0625 C4.455625 3.701875 4.72375 4.34125 5 5 C4 6 4 6 0.9375 6.0625 C-0.5165625 6.0315625 -0.5165625 6.0315625 -2 6 C-2 4.35 -2 2.7 -2 1 C-1.34 0.67 -0.68 0.34 0 0 Z " fill="#393939" transform="translate(155,190)"/>
<path d="M0 0 C1.28317892 3.84953676 1.06643637 6.94738135 1 11 C0.34 11 -0.32 11 -1 11 C-1.33 9.02 -1.66 7.04 -2 5 C-2.99 4.67 -3.98 4.34 -5 4 C-5 3.01 -5 2.02 -5 1 C-4.34 1 -3.68 1 -3 1 C-3 1.66 -3 2.32 -3 3 C-2.34 3 -1.68 3 -1 3 C-0.67 2.01 -0.34 1.02 0 0 Z " fill="#CDCDCD" transform="translate(70,181)"/>
<path d="M0 0 C0.66 0 1.32 0 2 0 C2.98248524 4.0527516 3.08159574 7.83861737 3 12 C2.01 12 1.02 12 0 12 C-0.19573608 10.56359829 -0.38127816 9.12580496 -0.5625 7.6875 C-0.66691406 6.88699219 -0.77132812 6.08648437 -0.87890625 5.26171875 C-1 3 -1 3 0 0 Z " fill="#060606" transform="translate(71,181)"/>
<path d="M0 0 C0.66 0 1.32 0 2 0 C2.98248524 4.0527516 3.08159574 7.83861737 3 12 C2.01 12 1.02 12 0 12 C-0.19573608 10.56359829 -0.38127816 9.12580496 -0.5625 7.6875 C-0.66691406 6.88699219 -0.77132812 6.08648437 -0.87890625 5.26171875 C-1 3 -1 3 0 0 Z " fill="#050505" transform="translate(48,181)"/>
<path d="M0 0 C0.66 0 1.32 0 2 0 C2 2.31 2 4.62 2 7 C-0.31 7 -2.62 7 -5 7 C-4.01 5.68 -3.02 4.36 -2 3 C-2.66 2.67 -3.32 2.34 -4 2 C-2.68 2 -1.36 2 0 2 C0 1.34 0 0.68 0 0 Z " fill="#1C1C1C" transform="translate(135,187)"/>
<path d="M0 0 C0.66 0 1.32 0 2 0 C3.35439668 2.70879335 3.06501451 5.00933268 3 8 C2.34 8 1.68 8 1 8 C1 7.34 1 6.68 1 6 C0.34 6 -0.32 6 -1 6 C-1.33 6.66 -1.66 7.32 -2 8 C-2 6.02 -2 4.04 -2 2 C-1.67 2.66 -1.34 3.32 -1 4 C-0.34 4 0.32 4 1 4 C0.67 2.68 0.34 1.36 0 0 Z " fill="#CCCCCC" transform="translate(93,184)"/>
<path d="M0 0 C0.66 0 1.32 0 2 0 C3.16063604 4.25566547 2.76173392 7.6835078 2 12 C1.34 12 0.68 12 0 12 C0 8.04 0 4.08 0 0 Z " fill="#000000" transform="translate(182,181)"/>
<path d="M0 0 C0.66 0.33 1.32 0.66 2 1 C2 1.66 2 2.32 2 3 C2.99 2.67 3.98 2.34 5 2 C5 4 5 4 3.125 6.125 C1 8 1 8 -1 8 C-1.125 2.25 -1.125 2.25 0 0 Z " fill="#D8D8D8" transform="translate(51,184)"/>
<path d="M0 0 C1.32 0 2.64 0 4 0 C4 0.66 4 1.32 4 2 C3.34 2 2.68 2 2 2 C2 4.64 2 7.28 2 10 C1.34 10 0.68 10 0 10 C0 6.7 0 3.4 0 0 Z " fill="#0C0C0C" transform="translate(168,184)"/>
<path d="M0 0 C1.32 0 2.64 0 4 0 C4 0.66 4 1.32 4 2 C3.34 2 2.68 2 2 2 C2 4.64 2 7.28 2 10 C1.34 10 0.68 10 0 10 C0 6.7 0 3.4 0 0 Z " fill="#0C0C0C" transform="translate(108,184)"/>
<path d="M0 0 C1.32 0 2.64 0 4 0 C4 0.66 4 1.32 4 2 C3.34 2 2.68 2 2 2 C2 4.31 2 6.62 2 9 C1.34 9 0.68 9 0 9 C0 6.03 0 3.06 0 0 Z " fill="#050505" transform="translate(76,184)"/>
<path d="M0 0 C0.33 0 0.66 0 1 0 C1 2.64 1 5.28 1 8 C0.01 8.33 -0.98 8.66 -2 9 C-1.125 1.125 -1.125 1.125 0 0 Z " fill="#1C1C1C" transform="translate(143,185)"/>
<path d="M0 0 C0.33 0.66 0.66 1.32 1 2 C1.99 2.33 2.98 2.66 4 3 C3.67 3.66 3.34 4.32 3 5 C2.34 4.67 1.68 4.34 1 4 C1 4.66 1 5.32 1 6 C0.34 5.67 -0.32 5.34 -1 5 C-0.67 4.34 -0.34 3.68 0 3 C-0.99 3 -1.98 3 -3 3 C-3.33 3.66 -3.66 4.32 -4 5 C-4 4.01 -4 3.02 -4 2 C-2.68 2 -1.36 2 0 2 C0 1.34 0 0.68 0 0 Z " fill="#DBDBDB" transform="translate(119,187)"/>
<path d="M0 0 C0.33 0 0.66 0 1 0 C1 1.98 1 3.96 1 6 C1.66 6 2.32 6 3 6 C3 5.34 3 4.68 3 4 C3.66 4 4.32 4 5 4 C4.67 5.32 4.34 6.64 4 8 C2.68 7.67 1.36 7.34 0 7 C0 4.69 0 2.38 0 0 Z " fill="#0F0F0F" transform="translate(89,186)"/>
<path d="M0 0 C0.99 0 1.98 0 3 0 C3 0.99 3 1.98 3 3 C2.34 3 1.68 3 1 3 C1 5.97 1 8.94 1 12 C0.67 12 0.34 12 0 12 C0 8.04 0 4.08 0 0 Z " fill="#474747" transform="translate(177,181)"/>
<path d="M0 0 C1.65 1.65 3.3 3.3 5 5 C2 7 2 7 0 8 C0 5.36 0 2.72 0 0 Z " fill="#DDDDDD" transform="translate(199,186)"/>
</svg>
