<?xml version="1.0" encoding="UTF-8"?>
<svg version="1.1" xmlns="http://www.w3.org/2000/svg" width="290" height="174">
<path d="M0 0 C95.7 0 191.4 0 290 0 C290 57.42 290 114.84 290 174 C194.3 174 98.6 174 0 174 C0 116.58 0 59.16 0 0 Z " fill="#F4F3F6" transform="translate(0,0)"/>
<path d="M0 0 C1.89886403 2.26403019 3.70347631 4.46767419 5.14453125 7.0546875 C9.34956436 14.3976154 15.21112224 18.75893277 23 22 C27.44250079 22.68674053 31.57014092 22.81761393 36 22 C38.31563087 20.11499729 38.31563087 20.11499729 38.25 17 C38.12918407 12.23783873 37.04369552 7.63139886 36 3 C38.38531042 5.91387353 39.66277749 8.62523797 41 12.125 C42.58745328 15.46700691 43.28412216 16.71728379 46.76953125 18.09375 C49.53196432 18.5760233 52.19930031 18.89209213 55 19 C54.67 19.66 54.34 20.32 54 21 C54.99 21.99 54.99 21.99 56 23 C55.34 23.33 54.68 23.66 54 24 C53.505 25.485 53.505 25.485 53 27 C54.65 26.67 56.3 26.34 58 26 C57.505 24.02 57.505 24.02 57 22 C57.94875 21.7525 58.8975 21.505 59.875 21.25 C63.44117911 20.22491484 63.44117911 20.22491484 65 16 C62.03 17.32 59.06 18.64 56 20 C57.22025063 16.3392481 58.126491 16.07660559 61.4375 14.3125 C62.64212891 13.65701172 62.64212891 13.65701172 63.87109375 12.98828125 C66 12 66 12 68 12 C68.226875 11.484375 68.45375 10.96875 68.6875 10.4375 C70.4975553 7.07596873 72.73996404 4.07088856 75 1 C75.495 1.99 75.495 1.99 76 3 C75.5359375 3.8353125 75.5359375 3.8353125 75.0625 4.6875 C73.58843995 7.89574833 73.74179198 10.51419178 74 14 C75.89990207 16.3296874 75.89990207 16.3296874 79.125 16.265625 C85.86596502 16.23844369 92.27338879 16.09935441 98.8515625 14.4375 C101.27798778 13.94339158 103.53029204 13.93067486 106 14 C102.41496665 16.05505699 98.75214969 16.86057168 94.75 17.8125 C87.95014483 19.54058103 81.3918168 21.26876579 77.4375 27.4375 C76.87731614 30.71857689 77.00235735 32.80754353 78 36 C83.30181809 42.23910379 89.12799286 43.21700892 97 44 C107.73992803 44.69400172 118.45270877 44.99872482 128.7578125 41.55859375 C131.24422219 40.93915719 132.6067874 41.16733847 135 42 C133.3767313 42.6708712 131.75132422 43.33657029 130.125 44 C129.22007812 44.37125 128.31515625 44.7425 127.3828125 45.125 C125 46 125 46 123 46 C122.66501699 48.33165034 122.66501699 48.33165034 123 51 C124.89584109 53.31377147 124.89584109 53.31377147 127 55 C124.21562605 54.12072402 121.47809272 53.20683444 118.796875 52.046875 C112.27427938 49.22743044 106.02150893 47.95291907 99 47 C97.865625 46.79375 96.73125 46.5875 95.5625 46.375 C84.49044453 44.93714794 84.49044453 44.93714794 74.1875 48.3125 C71.09976243 51.07968855 70.41600062 53.26770128 70.1875 57.375 C70.52482846 62.32023527 72.01219916 65.54164714 75.00390625 69.44140625 C75.33261719 69.95574219 75.66132813 70.47007812 76 71 C75.67 71.66 75.34 72.32 75 73 C73.58298411 71.2711195 72.16640314 69.54188254 70.75 67.8125 C69.96109375 66.84957031 69.1721875 65.88664062 68.359375 64.89453125 C66.22415228 62.27499477 64.10643639 59.64270803 62 57 C63.65 57 65.3 57 67 57 C67.56092882 52.94341506 67.56092882 52.94341506 67 49 C64.71176527 46.33874404 62.18499568 44.46743256 59 43 C56.31959692 42.79045138 56.31959692 42.79045138 54 43 C53.505 43.99 53.505 43.99 53 45 C52.34 45 51.68 45 51 45 C50.896875 44.38125 50.79375 43.7625 50.6875 43.125 C50.12474627 40.63473516 50.12474627 40.63473516 47 39 C47.99 38.67 48.98 38.34 50 38 C50.33 36.35 50.66 34.7 51 33 C49.02 33 47.04 33 45 33 C45.495 32.01 45.495 32.01 46 31 C46.99 31 47.98 31 49 31 C49 28.03 49 25.06 49 22 C46.36 21.67 43.72 21.34 41 21 C40.73067479 25.65052872 40.73067479 25.65052872 42 30 C40.515 30.495 40.515 30.495 39 31 C38.29875 30.175 37.5975 29.35 36.875 28.5 C34.21372773 25.69576604 34.21372773 25.69576604 30.6875 25.6875 C29.800625 25.790625 28.91375 25.89375 28 26 C28.15366857 28.68919992 28.44076949 30.45167371 30.40234375 32.375 C31.93329933 33.58535547 33.46654535 34.79281229 35 36 C35 36.66 35 37.32 35 38 C34.505 37.835 34.01 37.67 33.5 37.5 C25.90334638 35.98066928 18.49742955 37.60047982 11 39 C11 39.66 11 40.32 11 41 C15.27884606 43.1103435 19.13864142 43.24128739 23.8125 43.125 C24.85180664 43.11146484 24.85180664 43.11146484 25.91210938 43.09765625 C27.60822395 43.07426157 29.30415871 43.03839641 31 43 C28.46142205 45.00829722 26.09655144 46.4850022 23.125 47.75 C18.61935219 49.91001093 15.939833 53.03567974 13 57 C23.36953287 56.39447983 30.3349666 54.16822568 38 47 C38.66 46.01 39.32 45.02 40 44 C40.66 44 41.32 44 42 44 C43.7143618 45.95927063 45.38405168 47.95880212 47 50 C43.93109813 51.53445094 41.29905734 50.54984289 38 50 C36.33153266 51.69495956 36.33153266 51.69495956 35 54 C35.06709284 56.67140463 35.06709284 56.67140463 36 59 C36.66 59.33 37.32 59.66 38 60 C37.67 60.99 37.34 61.98 37 63 C36.01 62.319375 35.02 61.63875 34 60.9375 C26.599106 57.25017515 17.11642342 58.8468651 9.40234375 61.0078125 C7.37087326 61.71376701 5.35228608 62.45908557 3.35546875 63.2578125 C1 64 1 64 -2 63 C-1.33613281 62.62488281 -0.67226562 62.24976563 0.01171875 61.86328125 C5.0144327 58.96389813 9.04913543 56.19779361 13 52 C13.66 52 14.32 52 15 52 C14.11001657 48.08407293 13.40325663 46.32993724 10.25 43.75 C3.99094207 40.37973804 -2.17016022 39.41130672 -9.125 38.5 C-10.99623988 38.24455781 -12.86733491 37.98805217 -14.73828125 37.73046875 C-15.63885254 37.60720215 -16.53942383 37.48393555 -17.46728516 37.35693359 C-22.32836015 36.67186596 -27.16533839 35.85082037 -32 35 C-32 34.67 -32 34.34 -32 34 C-29.47891897 34.14224587 -26.95819597 34.28870121 -24.4375 34.4375 C-23.73302734 34.47681641 -23.02855469 34.51613281 -22.30273438 34.55664062 C-18.98823314 34.75520522 -15.76217881 35.03476456 -12.47265625 35.515625 C0.01675133 37.2576796 11.08177496 35.8860006 23 32 C23.41809201 29.16848027 23.41809201 29.16848027 23 26 C19.89334178 22.85373048 16.20638713 20.80871736 12.3125 18.75 C11.35988281 18.22921875 10.40726563 17.7084375 9.42578125 17.171875 C1.52392689 14.46884614 -7.33432085 16.19539247 -15.5 17 C-22.69611835 17.70907158 -29.76638836 18.14261228 -37 18 C-37 17.67 -37 17.34 -37 17 C-35.98574951 16.86948242 -34.97149902 16.73896484 -33.92651367 16.60449219 C-30.16132015 16.11524109 -26.3995735 15.60287617 -22.63842773 15.08349609 C-21.01069386 14.86201144 -19.38209483 14.64679055 -17.75268555 14.43798828 C-15.40938297 14.13659429 -13.07012454 13.81274223 -10.73046875 13.484375 C-10.00224411 13.39565125 -9.27401947 13.30692749 -8.52372742 13.21551514 C-5.29540532 12.74203713 -3.38236896 12.3812287 -1.03515625 10.04101562 C0.13581656 7.73221074 0.31599293 6.31985854 0.1875 3.75 C0.125625 2.5125 0.06375 1.275 0 0 Z " fill="#C61A54" transform="translate(101,72)"/>
<path d="M0 0 C1.8125 0.0859375 1.8125 0.0859375 4 0.375 C4.721875 0.46523437 5.44375 0.55546875 6.1875 0.6484375 C8 1 8 1 9 2 C9.23728814 8.52542373 9.23728814 8.52542373 8 11 C7.01 11.33 6.02 11.66 5 12 C7.475 12.495 7.475 12.495 10 13 C10 17 10 21 10 25 C10.66 25 11.32 25 12 25 C12.495 23.515 12.495 23.515 13 22 C15.3125 21.8125 15.3125 21.8125 18 22 C19.5 23.3125 19.5 23.3125 21 25 C22.65261839 26.02304948 24.31791365 27.02616054 26 28 C27 29 27 29 27.09765625 30.84765625 C27.06510417 32.8984375 27.03255208 34.94921875 27 37 C24.65391581 37.82528183 23.47899626 38.20025264 21.140625 37.22265625 C20.51671875 36.83980469 19.8928125 36.45695312 19.25 36.0625 C14.94017552 33.70505841 11.85615174 33.65313202 7 34 C2.09291261 46.1041489 4.06824474 59.18836523 5 72 C4.67 72 4.34 72 4 72 C3.86424561 71.410979 3.72849121 70.82195801 3.58862305 70.21508789 C2.95937324 67.49650503 2.32347516 64.77951709 1.6875 62.0625 C1.47416016 61.13630859 1.26082031 60.21011719 1.04101562 59.25585938 C-0.20276442 53.96515323 -1.63487614 48.86967567 -3.53588867 43.77514648 C-4 42 -4 42 -3 40 C-4.32 39.34 -5.64 38.68 -7 38 C-6.46930939 34.17902761 -5.50298434 31.93828597 -3 29 C-0.36 29.33 2.28 29.66 5 30 C4.34 29.38125 3.68 28.7625 3 28.125 C1 26 1 26 1 24 C0.34 24 -0.32 24 -1 24 C-1.21914062 24.57363281 -1.43828125 25.14726563 -1.6640625 25.73828125 C-3.42478377 28.71915146 -5.56591791 30.18047486 -8.375 32.1875 C-9.33148438 32.88230469 -10.28796875 33.57710937 -11.2734375 34.29296875 C-15.40010735 36.87657151 -18.43828418 37.12581205 -23.25 37.0625 C-24.14203125 37.05347656 -25.0340625 37.04445312 -25.953125 37.03515625 C-26.62859375 37.02355469 -27.3040625 37.01195312 -28 37 C-25.45103931 31.24307904 -20.79159096 27.5819882 -15.0625 25.125 C-13.5465625 24.568125 -13.5465625 24.568125 -12 24 C-12.86882812 24.03480469 -13.73765625 24.06960937 -14.6328125 24.10546875 C-26.07908612 24.37434095 -26.07908612 24.37434095 -31 21 C-30.505 19.515 -30.505 19.515 -30 18 C-11.25 14.5 -11.25 14.5 -6 18 C-6.763125 17.236875 -7.52625 16.47375 -8.3125 15.6875 C-9.199375 14.800625 -10.08625 13.91375 -11 13 C-11.61875 12.505 -12.2375 12.01 -12.875 11.5 C-14 10 -14 10 -13.6875 7.3125 C-13.460625 6.549375 -13.23375 5.78625 -13 5 C-10.03155565 4.64661377 -7.84401782 4.4582318 -5.265625 6.11328125 C-3.79651181 7.35503168 -2.39295186 8.67337918 -1 10 C-1 8.1457163 -1.02997371 6.29149841 -1.0625 4.4375 C-1 1 -1 1 0 0 Z " fill="#F2226A" transform="translate(142,92)"/>
<path d="M0 0 C1.89886403 2.26403019 3.70347631 4.46767419 5.14453125 7.0546875 C9.34956436 14.3976154 15.21112224 18.75893277 23 22 C27.44250079 22.68674053 31.57014092 22.81761393 36 22 C38.31563087 20.11499729 38.31563087 20.11499729 38.25 17 C38.12918407 12.23783873 37.04369552 7.63139886 36 3 C38.35478323 5.90130885 39.76475641 8.68370685 41.1875 12.125 C42.90929435 15.80176174 42.90929435 15.80176174 46.1015625 18.09375 C48.5361235 18.73098505 48.5361235 18.73098505 52 19 C51.34 19.33 50.68 19.66 50 20 C49.67 20.66 49.34 21.32 49 22 C46.36 21.67 43.72 21.34 41 21 C40.73067479 25.65052872 40.73067479 25.65052872 42 30 C40.515 30.495 40.515 30.495 39 31 C38.29875 30.175 37.5975 29.35 36.875 28.5 C34.21372773 25.69576604 34.21372773 25.69576604 30.6875 25.6875 C29.800625 25.790625 28.91375 25.89375 28 26 C28.15366857 28.68919992 28.44076949 30.45167371 30.40234375 32.375 C31.93329933 33.58535547 33.46654535 34.79281229 35 36 C35 36.66 35 37.32 35 38 C34.505 37.835 34.01 37.67 33.5 37.5 C25.90334638 35.98066928 18.49742955 37.60047982 11 39 C11 39.66 11 40.32 11 41 C15.27884606 43.1103435 19.13864142 43.24128739 23.8125 43.125 C24.85180664 43.11146484 24.85180664 43.11146484 25.91210938 43.09765625 C27.60822395 43.07426157 29.30415871 43.03839641 31 43 C28.46142205 45.00829722 26.09655144 46.4850022 23.125 47.75 C18.61935219 49.91001093 15.939833 53.03567974 13 57 C23.36953287 56.39447983 30.3349666 54.16822568 38 47 C38.66 46.01 39.32 45.02 40 44 C40.66 44 41.32 44 42 44 C43.7143618 45.95927063 45.38405168 47.95880212 47 50 C43.93109813 51.53445094 41.29905734 50.54984289 38 50 C36.33153266 51.69495956 36.33153266 51.69495956 35 54 C35.06709284 56.67140463 35.06709284 56.67140463 36 59 C36.66 59.33 37.32 59.66 38 60 C37.67 60.99 37.34 61.98 37 63 C36.01 62.319375 35.02 61.63875 34 60.9375 C26.599106 57.25017515 17.11642342 58.8468651 9.40234375 61.0078125 C7.37087326 61.71376701 5.35228608 62.45908557 3.35546875 63.2578125 C1 64 1 64 -2 63 C-1.33613281 62.62488281 -0.67226562 62.24976563 0.01171875 61.86328125 C5.0144327 58.96389813 9.04913543 56.19779361 13 52 C13.66 52 14.32 52 15 52 C14.11001657 48.08407293 13.40325663 46.32993724 10.25 43.75 C3.99094207 40.37973804 -2.17016022 39.41130672 -9.125 38.5 C-10.99623988 38.24455781 -12.86733491 37.98805217 -14.73828125 37.73046875 C-15.63885254 37.60720215 -16.53942383 37.48393555 -17.46728516 37.35693359 C-22.32836015 36.67186596 -27.16533839 35.85082037 -32 35 C-32 34.67 -32 34.34 -32 34 C-29.47891897 34.14224587 -26.95819597 34.28870121 -24.4375 34.4375 C-23.73302734 34.47681641 -23.02855469 34.51613281 -22.30273438 34.55664062 C-18.98823314 34.75520522 -15.76217881 35.03476456 -12.47265625 35.515625 C0.01675133 37.2576796 11.08177496 35.8860006 23 32 C23.41809201 29.16848027 23.41809201 29.16848027 23 26 C19.89334178 22.85373048 16.20638713 20.80871736 12.3125 18.75 C11.35988281 18.22921875 10.40726563 17.7084375 9.42578125 17.171875 C1.52392689 14.46884614 -7.33432085 16.19539247 -15.5 17 C-22.69611835 17.70907158 -29.76638836 18.14261228 -37 18 C-37 17.67 -37 17.34 -37 17 C-35.98574951 16.86948242 -34.97149902 16.73896484 -33.92651367 16.60449219 C-30.16132015 16.11524109 -26.3995735 15.60287617 -22.63842773 15.08349609 C-21.01069386 14.86201144 -19.38209483 14.64679055 -17.75268555 14.43798828 C-15.40938297 14.13659429 -13.07012454 13.81274223 -10.73046875 13.484375 C-10.00224411 13.39565125 -9.27401947 13.30692749 -8.52372742 13.21551514 C-5.29540532 12.74203713 -3.38236896 12.3812287 -1.03515625 10.04101562 C0.13581656 7.73221074 0.31599293 6.31985854 0.1875 3.75 C0.125625 2.5125 0.06375 1.275 0 0 Z " fill="#F32B70" transform="translate(101,72)"/>
<path d="M0 0 C2.4375 2.125 2.4375 2.125 4 5 C3.835 5.969375 3.67 6.93875 3.5 7.9375 C2.70192554 11.09613477 2.70192554 11.09613477 4.375 14.1875 C9.74026815 19.93600159 17.83671922 20.73163605 25.4284668 21.1262207 C28.18250949 21.2062727 30.93231355 21.24034672 33.6875 21.25 C34.66122559 21.25394775 35.63495117 21.25789551 36.63818359 21.26196289 C43.08133951 21.20985466 48.62340256 20.6064309 54.7578125 18.55859375 C57.24422219 17.93915719 58.6067874 18.16733847 61 19 C59.3767313 19.6708712 57.75132422 20.33657029 56.125 21 C55.22007812 21.37125 54.31515625 21.7425 53.3828125 22.125 C51 23 51 23 49 23 C48.66501699 25.33165034 48.66501699 25.33165034 49 28 C50.89584109 30.31377147 50.89584109 30.31377147 53 32 C50.21562605 31.12072402 47.47809272 30.20683444 44.796875 29.046875 C38.28015062 26.22996833 32.01724116 24.93625014 25 24 C23.91332031 23.82082031 22.82664063 23.64164063 21.70703125 23.45703125 C17.40071781 22.92611589 13.20795526 22.85344301 8.875 22.875 C8.08996094 22.87113281 7.30492187 22.86726563 6.49609375 22.86328125 C2.53116038 22.86996748 -1.12967261 23.02076054 -5 24 C-7.09749995 21.64031256 -7.96905704 20.45383006 -8.1875 17.25 C-8.125625 16.5075 -8.06375 15.765 -8 15 C-8.99 14.67 -9.98 14.34 -11 14 C-11.33 13.01 -11.66 12.02 -12 11 C-12.66 12.98 -13.32 14.96 -14 17 C-14.99 16.67 -15.98 16.34 -17 16 C-17 15.01 -17 14.02 -17 13 C-17.99 13 -18.98 13 -20 13 C-20.33 11.35 -20.66 9.7 -21 8 C-16.375 4 -16.375 4 -13 4 C-12.67 4.66 -12.34 5.32 -12 6 C-11.62875 5.071875 -11.62875 5.071875 -11.25 4.125 C-8.6898081 -0.22732623 -4.78118611 -0.69725631 0 0 Z " fill="#C21B54" transform="translate(175,95)"/>
<path d="M0 0 C2.3125 -0.1875 2.3125 -0.1875 5 0 C6.5 1.3125 6.5 1.3125 8 3 C9.65261839 4.02304948 11.31791365 5.02616054 13 6 C14 7 14 7 14.09765625 8.84765625 C14.06510417 10.8984375 14.03255208 12.94921875 14 15 C11.65391581 15.82528183 10.47899626 16.20025264 8.140625 15.22265625 C7.51671875 14.83980469 6.8928125 14.45695313 6.25 14.0625 C1.94017552 11.70505841 -1.14384826 11.65313202 -6 12 C-10.90708739 24.1041489 -8.93175526 37.18836523 -8 50 C-8.33 50 -8.66 50 -9 50 C-9.13575439 49.410979 -9.27150879 48.82195801 -9.41137695 48.21508789 C-10.04062676 45.49650503 -10.67652484 42.77951709 -11.3125 40.0625 C-11.63250977 38.67321289 -11.63250977 38.67321289 -11.95898438 37.25585938 C-13.20276442 31.96515323 -14.63487614 26.86967567 -16.53588867 21.77514648 C-17 20 -17 20 -16 18 C-17.32 17.34 -18.64 16.68 -20 16 C-19.46930939 12.17902761 -18.50298434 9.93828597 -16 7 C-13.36 7.33 -10.72 7.66 -8 8 C-8.33 7.01 -8.66 6.02 -9 5 C-6.09399739 3.74335022 -4.20395416 3 -1 3 C-0.67 2.01 -0.34 1.02 0 0 Z " fill="#C51650" transform="translate(155,114)"/>
<path d="M0 0 C2.31 0 4.62 0 7 0 C8.14635895 3.76987458 9.28546192 7.54185821 10.41796875 11.31591797 C10.99358692 13.22868943 11.57488734 15.13974791 12.15625 17.05078125 C12.5171875 18.25605469 12.878125 19.46132813 13.25 20.703125 C13.58515625 21.81333008 13.9203125 22.92353516 14.265625 24.06738281 C15 27 15 27 15 31 C13.02 31 11.04 31 9 31 C8.34 28.69 7.68 26.38 7 24 C4.69 24 2.38 24 0 24 C-0.66 26.31 -1.32 28.62 -2 31 C-3.98 31 -5.96 31 -8 31 C-7.3157196 24.28248676 -5.37116568 18.014434 -3.4375 11.5625 C-3.10814453 10.44939453 -2.77878906 9.33628906 -2.43945312 8.18945312 C-1.6306592 5.45830842 -0.81739587 2.72858014 0 0 Z " fill="#0B0B0C" transform="translate(118,15)"/>
<path d="M0 0 C3.125 1.5 3.125 1.5 5 3 C4.34 4.32 3.68 5.64 3 7 C-1.29 7 -5.58 7 -10 7 C-9.67 8.32 -9.34 9.64 -9 11 C-6.84649082 11.96312926 -6.84649082 11.96312926 -4.25 12.4375 C0.40794486 13.67872886 3.1478879 14.91197266 6 19 C6.7446324 22.97137281 6.37266878 24.44099683 4.125 27.8125 C0.88281125 31.15004724 -1.18900855 31.22750525 -5.75 31.375 C-9.91934456 31.36497754 -12.52735815 31.24234426 -15.75 28.5 C-16.4925 27.675 -17.235 26.85 -18 26 C-16.68 24.68 -15.36 23.36 -14 22 C-13.44828125 22.49113281 -12.8965625 22.98226562 -12.328125 23.48828125 C-9.53629931 25.30109424 -8.03814259 25.3172951 -4.75 25.1875 C-3.85796875 25.16042969 -2.9659375 25.13335937 -2.046875 25.10546875 C-1.03367188 25.05326172 -1.03367188 25.05326172 0 25 C-0.495 22.525 -0.495 22.525 -1 20 C-1.66386719 19.82984375 -2.32773438 19.6596875 -3.01171875 19.484375 C-12.70773152 16.82327952 -12.70773152 16.82327952 -16 13 C-17.125 9.5625 -17.125 9.5625 -17 6 C-11.97538541 -0.24681814 -7.65287842 -0.72083627 0 0 Z " fill="#09090A" transform="translate(198,15)"/>
<path d="M0 0 C1.2065625 0.495 1.2065625 0.495 2.4375 1 C2.1075 2.32 1.7775 3.64 1.4375 5 C-1.71756142 5.93619813 -4.52836502 6.1057123 -7.8125 6.0625 C-8.70453125 6.05347656 -9.5965625 6.04445313 -10.515625 6.03515625 C-11.19109375 6.02355469 -11.8665625 6.01195312 -12.5625 6 C-12.43402358 7.98169099 -12.43402358 7.98169099 -11.5625 10 C-9.40899082 10.96312926 -9.40899082 10.96312926 -6.8125 11.4375 C-2.14845076 12.68703755 0.62004825 13.86773744 3.4375 18 C4.20063599 22.27356156 3.90965356 24.20745653 1.6875 27.9375 C-3.23361435 31.06051488 -7.88852791 30.8652616 -13.5625 30 C-16.0719706 28.91921137 -17.49688874 27.83609889 -19.5625 26 C-18.9025 24.68 -18.2425 23.36 -17.5625 22 C-15.39375748 22.50603992 -13.56282373 22.99983813 -11.5625 24 C-10.18907169 24.0689472 -8.81247898 24.08467708 -7.4375 24.0625 C-6.15875 24.041875 -4.88 24.02125 -3.5625 24 C-3.2325 22.68 -2.9025 21.36 -2.5625 20 C-5.52341561 17.75728457 -5.52341561 17.75728457 -9.4375 17.1875 C-13.69536484 16.16624091 -15.96852552 14.64777661 -18.5625 11 C-19.25 7.5 -19.25 7.5 -18.5625 4 C-13.2908906 -2.35296517 -7.58693411 -2.12966572 0 0 Z " fill="#060608" transform="translate(170.5625,16)"/>
<path d="M0 0 C6.27 0 12.54 0 19 0 C19 1.98 19 3.96 19 6 C14.71 6 10.42 6 6 6 C6 8.64 6 11.28 6 14 C8.64 14 11.28 14 14 14 C14 15.98 14 17.96 14 20 C11.36 20 8.72 20 6 20 C6 23.63 6 27.26 6 31 C4.02 31 2.04 31 0 31 C0 20.77 0 10.54 0 0 Z " fill="#101011" transform="translate(86,15)"/>
<path d="M0 0 C5.75 -0.125 5.75 -0.125 8 1 C10.55157655 1.0716735 13.07472971 1.09308442 15.625 1.0625 C16.33140625 1.05798828 17.0378125 1.05347656 17.765625 1.04882812 C19.51045275 1.03703875 21.255237 1.01910324 23 1 C20.46142205 3.00829722 18.09655144 4.4850022 15.125 5.75 C10.61935219 7.91001093 7.939833 11.03567974 5 15 C15.36953287 14.39447983 22.3349666 12.16822568 30 5 C30.66 4.01 31.32 3.02 32 2 C32.66 2 33.32 2 34 2 C35.7143618 3.95927063 37.38405168 5.95880212 39 8 C35.93109813 9.53445094 33.29905734 8.54984289 30 8 C28.33153266 9.69495956 28.33153266 9.69495956 27 12 C27.06709284 14.67140463 27.06709284 14.67140463 28 17 C28.66 17.33 29.32 17.66 30 18 C29.505 19.485 29.505 19.485 29 21 C28.01 20.319375 27.02 19.63875 26 18.9375 C18.599106 15.25017515 9.11642342 16.8468651 1.40234375 19.0078125 C-0.62912674 19.71376701 -2.64771392 20.45908557 -4.64453125 21.2578125 C-7 22 -7 22 -10 21 C-9.33613281 20.62488281 -8.67226562 20.24976563 -7.98828125 19.86328125 C-2.9855673 16.96389813 1.04913543 14.19779361 5 10 C5.66 10 6.32 10 7 10 C5.76075855 5.04303419 4.21422242 2.88341534 0 0 Z " fill="#C11953" transform="translate(109,114)"/>
<path d="M0 0 C2 3 2 3 2 5 C3.32 4.67 4.64 4.34 6 4 C6 5.32 6 6.64 6 8 C6.66 8 7.32 8 8 8 C8.66 6.02 9.32 4.04 10 2 C10.433125 2.9590625 10.433125 2.9590625 10.875 3.9375 C11.82823451 6.15206079 11.82823451 6.15206079 14 7 C14.73075648 9.3140622 15.40138258 11.64828869 16 14 C19.58327753 15.00217064 19.58327753 15.00217064 23 14 C23.66 14.66 24.32 15.32 25 16 C24.01 16.598125 23.02 17.19625 22 17.8125 C19.79186731 19.65872971 19.07722302 20.66379092 18.42578125 23.5 C18.17862738 29.63623411 19.26647951 33.5695844 23.00390625 38.44140625 C23.33261719 38.95574219 23.66132813 39.47007812 24 40 C23.67 40.66 23.34 41.32 23 42 C21.58298411 40.2711195 20.16640314 38.54188254 18.75 36.8125 C17.96109375 35.84957031 17.1721875 34.88664062 16.359375 33.89453125 C14.22415228 31.27499477 12.10643639 28.64270803 10 26 C11.65 26 13.3 26 15 26 C15.56092882 21.94341506 15.56092882 21.94341506 15 18 C12.71176527 15.33874404 10.18499568 13.46743256 7 12 C4.31959692 11.79045138 4.31959692 11.79045138 2 12 C1.67 12.66 1.34 13.32 1 14 C0.34 14 -0.32 14 -1 14 C-1.103125 13.38125 -1.20625 12.7625 -1.3125 12.125 C-1.87525373 9.63473516 -1.87525373 9.63473516 -5 8 C-4.01 7.67 -3.02 7.34 -2 7 C-0.77030122 3.48809191 -0.77030122 3.48809191 0 0 Z " fill="#C4144F" transform="translate(153,103)"/>
<path d="M0 0 C2.3125 -0.1875 2.3125 -0.1875 5 0 C6.5 1.3125 6.5 1.3125 8 3 C9.65261839 4.02304948 11.31791365 5.02616054 13 6 C14 7 14 7 14.09765625 8.84765625 C14.06510417 10.8984375 14.03255208 12.94921875 14 15 C11.65391581 15.82528183 10.47899626 16.20025264 8.140625 15.22265625 C7.20476562 14.64837891 7.20476562 14.64837891 6.25 14.0625 C1.94017552 11.70505841 -1.14384826 11.65313202 -6 12 C-6 10.02 -6 8.04 -6 6 C-6.99 5.67 -7.98 5.34 -9 5 C-6.09399739 3.74335022 -4.20395416 3 -1 3 C-0.67 2.01 -0.34 1.02 0 0 Z " fill="#F13877" transform="translate(155,114)"/>
<path d="M0 0 C0.33 1.32 0.66 2.64 1 4 C-6.08130691 10.41359063 -11.36030719 15.19262754 -21.25 15.0625 C-22.14203125 15.05347656 -23.0340625 15.04445312 -23.953125 15.03515625 C-24.62859375 15.02355469 -25.3040625 15.01195312 -26 15 C-22.78905633 7.92374972 -17.37782426 4.92731401 -10.3125 2.125 C-6.49931236 0.70009557 -4.10786202 0 0 0 Z " fill="#F5ECF1" transform="translate(140,114)"/>
<path d="M0 0 C1.98 0 3.96 0 6 0 C6 10.23 6 20.46 6 31 C4.02 31 2.04 31 0 31 C0 20.77 0 10.54 0 0 Z " fill="#0B0B0C" transform="translate(139,15)"/>
<path d="M0 0 C-1.6232687 0.6708712 -3.24867578 1.33657029 -4.875 2 C-6.23238281 2.556875 -6.23238281 2.556875 -7.6171875 3.125 C-10 4 -10 4 -12 4 C-12.33498301 6.33165034 -12.33498301 6.33165034 -12 9 C-10.10415891 11.31377147 -10.10415891 11.31377147 -8 13 C-10.78437395 12.12072402 -13.52190728 11.20683444 -16.203125 10.046875 C-22.7392196 7.2215954 -28.96035998 5.92866865 -36 5 C-37.36594439 4.81293009 -38.73182699 4.62540865 -40.09765625 4.4375 C-43.72977052 3.94257827 -47.36416785 3.46689648 -51 3 C-51 2.01 -51 1.02 -51 0 C-50.31679687 0.144375 -49.63359375 0.28875 -48.9296875 0.4375 C-35.16192381 2.97274037 -19.678792 4.04410712 -6.2421875 -0.44140625 C-3.75577781 -1.06084281 -2.3932126 -0.83266153 0 0 Z " fill="#C9235B" transform="translate(236,114)"/>
<path d="M0 0 C0 0.99 0 1.98 0 3 C-7.82386023 6.24545313 -15.63824676 7.7742725 -23.6875 4.5 C-24.450625 4.005 -25.21375 3.51 -26 3 C-25.67 2.01 -25.34 1.02 -25 0 C-6.7961165 -3.39805825 -6.7961165 -3.39805825 0 0 Z " fill="#F6ECF1" transform="translate(137,110)"/>
<path d="M0 0 C0.33 0.66 0.66 1.32 1 2 C0.690625 2.556875 0.38125 3.11375 0.0625 3.6875 C-1.41533468 6.90396371 -1.25439957 9.50200597 -1 13 C-0.01 14.485 -0.01 14.485 1 16 C0.5 17.9375 0.5 17.9375 -1 20 C-3.69658452 20.68790422 -6.2017019 20.81946464 -9 21 C-9 20.01 -9 19.02 -9 18 C-9.66 17.67 -10.32 17.34 -11 17 C-10.67 16.34 -10.34 15.68 -10 15 C-12.97 16.32 -15.94 17.64 -19 19 C-17.77974937 15.3392481 -16.873509 15.07660559 -13.5625 13.3125 C-12.75941406 12.87550781 -11.95632812 12.43851563 -11.12890625 11.98828125 C-9 11 -9 11 -7 11 C-6.773125 10.484375 -6.54625 9.96875 -6.3125 9.4375 C-4.5024447 6.07596873 -2.26003596 3.07088856 0 0 Z " fill="#C22F60" transform="translate(176,73)"/>
<path d="M0 0 C0.825 0.04125 1.65 0.0825 2.5 0.125 C3.16 0.125 3.82 0.125 4.5 0.125 C6.83333333 0.125 9.16666667 0.125 11.5 0.125 C11.5 0.785 11.5 1.445 11.5 2.125 C10.18 2.125 8.86 2.125 7.5 2.125 C7.5 2.785 7.5 3.445 7.5 4.125 C8.16 4.125 8.82 4.125 9.5 4.125 C9.5 4.785 9.5 5.445 9.5 6.125 C8.84 6.125 8.18 6.125 7.5 6.125 C7.5 6.785 7.5 7.445 7.5 8.125 C8.82 8.125 10.14 8.125 11.5 8.125 C11.5 8.785 11.5 9.445 11.5 10.125 C8.5 10.125 5.5 10.125 2.5 10.125 C1.2625 10.186875 1.2625 10.186875 0 10.25 C-2.5 10.125 -2.5 10.125 -4.5 8.125 C-4.75 5.125 -4.75 5.125 -4.5 2.125 C-2.5 0.125 -2.5 0.125 0 0 Z " fill="#EEEDF0" transform="translate(52.5,51.875)"/>
<path d="M0 0 C2.00546689 0.29868656 4.00577205 0.63371323 6 1 C6.99 0.67 7.98 0.34 9 0 C9 1.65 9 3.3 9 5 C10.65 5 12.3 5 14 5 C14 3.35 14 1.7 14 0 C14.33 0 14.66 0 15 0 C15 3.3 15 6.6 15 10 C14.67 9.01 14.34 8.02 14 7 C12.68 7 11.36 7 10 7 C10 7.99 10 8.98 10 10 C9.360625 9.814375 8.72125 9.62875 8.0625 9.4375 C7.0415625 9.2209375 7.0415625 9.2209375 6 9 C5.67 9.33 5.34 9.66 5 10 C2.5625 10.1875 2.5625 10.1875 0 10 C-2 8 -2 8 -2.25 5 C-2 2 -2 2 0 0 Z " fill="#E9E9EB" transform="translate(244,52)"/>
<path d="M0 0 C3.71137193 -0.3452439 5.51625962 -0.31499373 8.6875 1.75 C12.65671642 5.6119403 12.65671642 5.6119403 14 8 C13.6875 10.25 13.6875 10.25 13 12 C6.54972485 11.73672346 3.52084209 9.49335977 -1 5 C-0.67 3.35 -0.34 1.7 0 0 Z " fill="#F6E6ED" transform="translate(129,97)"/>
<path d="M0 0 C-3.58503335 2.05505699 -7.24785031 2.86057168 -11.25 3.8125 C-18.24238645 5.56671695 -23.81336951 7.81336951 -29 13 C-30.32 11.35 -31.64 9.7 -33 8 C-32.34 6.35 -31.68 4.7 -31 3 C-29.96101562 2.95101562 -28.92203125 2.90203125 -27.8515625 2.8515625 C-20.81055427 2.48560925 -13.99086044 2.07592874 -7.11328125 0.40234375 C-4.70539762 -0.05608881 -2.44544673 -0.06424116 0 0 Z " fill="#C3255A" transform="translate(207,86)"/>
<path d="M0 0 C2.69482469 -0.07699499 5.03994488 0.00836056 7.6875 0.5625 C10.01534007 1.24469885 10.01534007 1.24469885 12 0 C12.66 0.66 13.32 1.32 14 2 C13.01 2.598125 12.02 3.19625 11 3.8125 C8.79186731 5.65872971 8.07722302 6.66379092 7.42578125 9.5 C7.17862738 15.63623411 8.26647951 19.5695844 12.00390625 24.44140625 C12.33261719 24.95574219 12.66132813 25.47007812 13 26 C12.67 26.66 12.34 27.32 12 28 C10.58298411 26.2711195 9.16640314 24.54188254 7.75 22.8125 C6.96109375 21.84957031 6.1721875 20.88664062 5.359375 19.89453125 C3.22415228 17.27499477 1.10643639 14.64270803 -1 12 C0.65 12 2.3 12 4 12 C4.59236584 6.28662627 4.59236584 6.28662627 2 1.5 C1.34 1.005 0.68 0.51 0 0 Z " fill="#F21866" transform="translate(164,117)"/>
<path d="M0 0 C2.31 0.33 4.62 0.66 7 1 C7.8125 3.1875 7.8125 3.1875 8 6 C5.65231002 9.10723674 4.22211248 10.80105146 0.3125 11.4375 C-2 11 -2 11 -4 9 C-3.69670231 5.15822926 -2.47524576 2.90572328 0 0 Z " fill="#F5EDF1" transform="translate(139,121)"/>
<path d="M0 0 C1.8125 0.0859375 1.8125 0.0859375 4 0.375 C5.0828125 0.51035156 5.0828125 0.51035156 6.1875 0.6484375 C8 1 8 1 9 2 C9.23728814 8.52542373 9.23728814 8.52542373 8 11 C2.63157895 11.35789474 2.63157895 11.35789474 0.125 9.9375 C-1.59944167 6.96762823 -1.24840147 4.35341985 -1 1 C-0.67 0.67 -0.34 0.34 0 0 Z " fill="#F6EDF2" transform="translate(142,92)"/>
<path d="M0 0 C2.52108103 0.14224587 5.04180403 0.28870121 7.5625 0.4375 C8.26697266 0.47681641 8.97144531 0.51613281 9.69726562 0.55664062 C12.95789975 0.75197815 16.11322483 1.01798899 19.34375 1.53125 C24.22305486 2.1568019 29.02470795 2.10615434 33.9375 2.0625 C35.3925293 2.05573242 35.3925293 2.05573242 36.87695312 2.04882812 C39.2513676 2.0371315 41.62565021 2.02074086 44 2 C43.67 3.98 43.34 5.96 43 8 C38.32821277 7.54198164 33.92889059 6.76796071 29.375 5.625 C19.7191459 3.30530961 9.84198373 2.23637684 0 1 C0 0.67 0 0.34 0 0 Z " fill="#E83472" transform="translate(69,106)"/>
<path d="M0 0 C0.556875 0.7425 1.11375 1.485 1.6875 2.25 C3.90826999 5.07544208 3.90826999 5.07544208 6.75 7.1875 C7.4925 7.785625 8.235 8.38375 9 9 C9 9.66 9 10.32 9 11 C8.505 10.835 8.01 10.67 7.5 10.5 C0.46475731 9.09295146 -6.93486113 10.27270629 -14 11 C-14 10.01 -14 9.02 -14 8 C-12.86111328 7.76216797 -12.86111328 7.76216797 -11.69921875 7.51953125 C-5.48231986 6.254871 -5.48231986 6.254871 -0.8125 2.3125 C-0.544375 1.549375 -0.27625 0.78625 0 0 Z " fill="#F5226A" transform="translate(127,99)"/>
<path d="M0 0 C1.49337756 2.32303176 2.11386938 3.4306531 1.5625 6.1875 C0 8 0 8 -3.375 8.9375 C-7 9 -7 9 -9.4375 7.5625 C-9.953125 7.046875 -10.46875 6.53125 -11 6 C-10.75 4.125 -10.75 4.125 -10 2 C-6.82026536 -0.35535899 -3.84875379 -0.17494335 0 0 Z " fill="#F3E6EC" transform="translate(175,95)"/>
<path d="M0 0 C2.4375 0.4375 2.4375 0.4375 4.3125 1.6875 C5.4375 3.4375 5.4375 3.4375 5.375 5.4375 C4.13893052 8.07444822 3.01216264 9.07865028 0.4375 10.4375 C-2.1875 10.4375 -2.1875 10.4375 -4.5625 9.4375 C-5.875 6.875 -5.875 6.875 -6.5625 4.4375 C-3.292687 0.56216607 -3.292687 0.56216607 0 0 Z " fill="#F5EAEE" transform="translate(173.5625,108.5625)"/>
<path d="M0 0 C1.1446875 0.2475 1.1446875 0.2475 2.3125 0.5 C5.233592 1.23619132 5.233592 1.23619132 9 0 C9 3.3 9 6.6 9 10 C8.34 10 7.68 10 7 10 C6.67 9.34 6.34 8.68 6 8 C5.34 8.66 4.68 9.32 4 10 C1.375 10.125 1.375 10.125 -1 10 C-1.33 9.34 -1.66 8.68 -2 8 C-0.35 8 1.3 8 3 8 C3 7.34 3 6.68 3 6 C1.68 5.67 0.36 5.34 -1 5 C-1 1 -1 1 0 0 Z " fill="#979798" transform="translate(129,52)"/>
<path d="M0 0 C2.33294775 -0.04241723 4.66702567 -0.04092937 7 0 C8 1 8 1 8.1328125 2.8125 C8.13023438 3.534375 8.12765625 4.25625 8.125 5 C8.12757812 5.721875 8.13015625 6.44375 8.1328125 7.1875 C8 9 8 9 7 10 C4.66702567 10.04092937 2.33294775 10.04241723 0 10 C0 6.7 0 3.4 0 0 Z " fill="#414142" transform="translate(65,52)"/>
<path d="M0 0 C5.75 -0.125 5.75 -0.125 8 1 C10.55157655 1.0716735 13.07472971 1.09308442 15.625 1.0625 C16.33140625 1.05798828 17.0378125 1.05347656 17.765625 1.04882812 C19.51045275 1.03703875 21.255237 1.01910324 23 1 C20.39634853 3.04322425 17.8539554 4.68649302 14.875 6.125 C14.19179687 6.45757812 13.50859375 6.79015625 12.8046875 7.1328125 C11.91136719 7.56207031 11.91136719 7.56207031 11 8 C10.01 8.495 10.01 8.495 9 9 C7 8 7 8 6.1875 6.1875 C4.64606459 3.34801372 2.57595304 1.89807066 0 0 Z " fill="#C91352" transform="translate(109,114)"/>
<path d="M0 0 C5.56818182 0.56818182 5.56818182 0.56818182 7 2 C7.1875 4.9375 7.1875 4.9375 7 8 C5 10 5 10 2.5 10.25 C0 10 0 10 -2 8 C-2.25 5 -2.25 5 -2 2 C-1.34 1.34 -0.68 0.68 0 0 Z " fill="#101011" transform="translate(88,52)"/>
<path d="M0 0 C5.56818182 0.56818182 5.56818182 0.56818182 7 2 C7.1875 4.9375 7.1875 4.9375 7 8 C5 10 5 10 2.5 10.25 C0 10 0 10 -2 8 C-2.25 5 -2.25 5 -2 2 C-1.34 1.34 -0.68 0.68 0 0 Z " fill="#1B1B1C" transform="translate(77,52)"/>
<path d="M0 0 C0.66 0 1.32 0 2 0 C0.79618552 2.49361571 -0.45428722 4.68143083 -2 7 C-0.88625 6.95875 0.2275 6.9175 1.375 6.875 C5 7 5 7 7 9 C6.154375 9.10957031 5.30875 9.21914062 4.4375 9.33203125 C-3.25193455 10.37601743 -3.25193455 10.37601743 -10.625 12.6875 C-14 14 -14 14 -17 13 C-16.33613281 12.62488281 -15.67226562 12.24976563 -14.98828125 11.86328125 C-9.9855673 8.96389813 -5.95086457 6.19779361 -2 2 C-1.34 2 -0.68 2 0 2 C0 1.34 0 0.68 0 0 Z " fill="#C12A5E" transform="translate(116,122)"/>
<path d="M0 0 C2.35478323 2.90130885 3.76475641 5.68370685 5.1875 9.125 C6.90929435 12.80176174 6.90929435 12.80176174 10.1015625 15.09375 C12.5361235 15.73098505 12.5361235 15.73098505 16 16 C15.34 16.33 14.68 16.66 14 17 C13.67 17.66 13.34 18.32 13 19 C10.36 18.67 7.72 18.34 5 18 C4.67 19.98 4.34 21.96 4 24 C3.67 24 3.34 24 3 24 C3 22.35 3 20.7 3 19 C2.34 18.67 1.68 18.34 1 18 C1.33 17.67 1.66 17.34 2 17 C2.37619454 11.10628548 1.29283945 5.73697507 0 0 Z " fill="#D13A6F" transform="translate(137,75)"/>
<path d="M0 0 C3.875 1.875 3.875 1.875 5 3 C5.14115161 5.67058851 5.04247107 8.32432238 5 11 C3.68 11.33 2.36 11.66 1 12 C-0.5625 10.4375 -0.5625 10.4375 -2 8 C-1.56363636 1.56363636 -1.56363636 1.56363636 0 0 Z " fill="#F6E7EE" transform="translate(164,118)"/>
<path d="M0 0 C2.875 -0.125 2.875 -0.125 6 0 C6.66 0.66 7.32 1.32 8 2 C7.96712417 4.72869407 7.43602229 7.2966618 7 10 C4.525 9.01 4.525 9.01 2 8 C2 8.66 2 9.32 2 10 C1.34 10 0.68 10 0 10 C0 6.7 0 3.4 0 0 Z " fill="#727273" transform="translate(232,52)"/>
<path d="M0 0 C2.875 -0.125 2.875 -0.125 6 0 C8 2 8 2 8.1953125 3.9453125 C8.13020833 5.96354167 8.06510417 7.98177083 8 10 C7.34 10 6.68 10 6 10 C6 9.34 6 8.68 6 8 C4.68 8 3.36 8 2 8 C2 8.66 2 9.32 2 10 C1.34 10 0.68 10 0 10 C0 6.7 0 3.4 0 0 Z " fill="#565657" transform="translate(170,52)"/>
<path d="M0 0 C1.2065625 0.0309375 1.2065625 0.0309375 2.4375 0.0625 C3.125 2.3125 3.125 2.3125 3.4375 5.0625 C2 7.375 2 7.375 0.4375 9.0625 C-1.2125 8.7325 -2.8625 8.4025 -4.5625 8.0625 C-3.54737544 0.08652135 -3.54737544 0.08652135 0 0 Z " fill="#F6ECF1" transform="translate(157.5625,113.9375)"/>
<path d="M0 0 C-0.625 2.4375 -0.625 2.4375 -2 5 C-5.125 5.8125 -5.125 5.8125 -8 6 C-7.67 7.32 -7.34 8.64 -7 10 C-8.65 10.33 -10.3 10.66 -12 11 C-11.835 10.401875 -11.67 9.80375 -11.5 9.1875 C-10.8885876 6.88655664 -10.8885876 6.88655664 -11 4 C-11 3.34 -11 2.68 -11 2 C-9.68 2 -8.36 2 -7 2 C-2.875 0 -2.875 0 0 0 Z " fill="#F2E1E8" transform="translate(166,88)"/>
<path d="M0 0 C0.66 0 1.32 0 2 0 C2.33 1.32 2.66 2.64 3 4 C3.66 4 4.32 4 5 4 C5.33 2.68 5.66 1.36 6 0 C6.66 0 7.32 0 8 0 C8 3.3 8 6.6 8 10 C7.34 10 6.68 10 6 10 C6 9.01 6 8.02 6 7 C5.01 7 4.02 7 3 7 C2.67 7.99 2.34 8.98 2 10 C1.34 10 0.68 10 0 10 C0 6.7 0 3.4 0 0 Z " fill="#272728" transform="translate(140,52)"/>
<path d="M0 0 C0.33 0 0.66 0 1 0 C1.338329 3.20782685 1.66976146 6.41633098 2 9.625 C2.09539062 10.52863281 2.19078125 11.43226563 2.2890625 12.36328125 C2.75579891 16.93063039 3.12222799 21.40117188 3 26 C2.67 26 2.34 26 2 26 C1.07381511 22.42381043 0.1894523 18.83855162 -0.6875 15.25 C-0.95111328 14.23421875 -1.21472656 13.2184375 -1.48632812 12.171875 C-1.83920898 10.70234375 -1.83920898 10.70234375 -2.19921875 9.203125 C-2.42440186 8.30239258 -2.64958496 7.40166016 -2.8815918 6.47363281 C-3 4 -3 4 -1.61254883 1.67480469 C-1.08040771 1.12211914 -0.5482666 0.56943359 0 0 Z " fill="#ED3B78" transform="translate(144,138)"/>
<path d="M0 0 C0.74121094 0.13277344 1.48242188 0.26554687 2.24609375 0.40234375 C11.48872442 1.9522096 20.64753448 2.57437881 30 3 C30 3.33 30 3.66 30 4 C19.8553155 6.08096092 10.09111804 4.48907144 0 3 C0 2.01 0 1.02 0 0 Z " fill="#D14071" transform="translate(185,114)"/>
<path d="M0 0 C0 0.99 0 1.98 0 3 C3.465 2.505 3.465 2.505 7 2 C7.33 2.66 7.66 3.32 8 4 C6.081875 4.4640625 6.081875 4.4640625 4.125 4.9375 C1.89898325 5.47605244 0.05260001 5.9737 -2 7 C-2.72159424 8.64363134 -3.39351421 10.31050386 -4 12 C-4.33 12 -4.66 12 -5 12 C-5 10.35 -5 8.7 -5 7 C-5.66 6.67 -6.32 6.34 -7 6 C-5.52522876 2.59668175 -4.14385429 0 0 0 Z " fill="#C20E4B" transform="translate(167,91)"/>
<path d="M0 0 C2.05078125 0.03255208 4.1015625 0.06510417 6.15234375 0.09765625 C5.27734375 4.97265625 5.27734375 4.97265625 4.15234375 6.09765625 C2.15276011 6.13846408 0.15189121 6.14019981 -1.84765625 6.09765625 C-2.22984392 4.44150968 -2.56160727 2.77308601 -2.84765625 1.09765625 C-1.84765625 0.09765625 -1.84765625 0.09765625 0 0 Z " fill="#F6EDF2" transform="translate(145.84765625,112.90234375)"/>
<path d="M0 0 C-0.60714286 5.46428571 -0.60714286 5.46428571 -2.375 7.875 C-4 9 -4 9 -7 9 C-7.33 7.35 -7.66 5.7 -8 4 C-3.375 0 -3.375 0 0 0 Z " fill="#F0DEE6" transform="translate(162,99)"/>
<path d="M0 0 C0.66 0 1.32 0 2 0 C3.31626692 3.61973402 4 6.09567131 4 10 C3.34 10 2.68 10 2 10 C2 9.34 2 8.68 2 8 C1.01 8 0.02 8 -1 8 C-1 8.66 -1 9.32 -1 10 C-1.66 10 -2.32 10 -3 10 C-2.69201674 8.51988629 -2.378482 7.04092675 -2.0625 5.5625 C-1.88847656 4.73878906 -1.71445313 3.91507813 -1.53515625 3.06640625 C-1 1 -1 1 0 0 Z " fill="#303031" transform="translate(164,52)"/>
<path d="M0 0 C2.69482469 -0.07699499 5.03994488 0.00836056 7.6875 0.5625 C10.01534007 1.24469885 10.01534007 1.24469885 12 0 C12.66 0.66 13.32 1.32 14 2 C11.36 3.98 8.72 5.96 6 8 C5.566875 7.236875 5.13375 6.47375 4.6875 5.6875 C3.26313215 3.41906232 1.96739903 1.7800277 0 0 Z " fill="#F42A6F" transform="translate(164,117)"/>
<path d="M0 0 C0.66 0 1.32 0 2 0 C2.33 0.99 2.66 1.98 3 3 C3.66 2.01 4.32 1.02 5 0 C5.66 0 6.32 0 7 0 C6.62875 0.9075 6.2575 1.815 5.875 2.75 C4.69640701 5.88097015 4.69640701 5.88097015 5.875 8.375 C6.24625 8.91125 6.6175 9.4475 7 10 C6.01 9.67 5.02 9.34 4 9 C4 8.34 4 7.68 4 7 C3.34 7 2.68 7 2 7 C2 7.99 2 8.98 2 10 C1.34 10 0.68 10 0 10 C0 6.7 0 3.4 0 0 Z " fill="#121212" transform="translate(97,52)"/>
<path d="M0 0 C0.309375 0.94875 0.61875 1.8975 0.9375 2.875 C1.87394742 5.86080408 1.87394742 5.86080408 3 8 C2.01 8.33 1.02 8.66 0 9 C-0.721875 8.195625 -1.44375 7.39125 -2.1875 6.5625 C-5.02515689 3.97707928 -6.27166147 3.31957187 -10 3 C-10 2.34 -10 1.68 -10 1 C-3.375 0 -3.375 0 0 0 Z " fill="#F41966" transform="translate(140,94)"/>
<path d="M0 0 C0.66 0 1.32 0 2 0 C2.99 3.3 3.98 6.6 5 10 C4.34 10 3.68 10 3 10 C3 9.34 3 8.68 3 8 C1.68 8 0.36 8 -1 8 C-1 8.66 -1 9.32 -1 10 C-1.66 9.67 -2.32 9.34 -3 9 C-2.01 6.03 -1.02 3.06 0 0 Z " fill="#2D2D2E" transform="translate(41,52)"/>
<path d="M0 0 C0.99 0.33 1.98 0.66 3 1 C3.73046875 3.06640625 3.73046875 3.06640625 4.1875 5.5625 C4.34605469 6.38878906 4.50460938 7.21507812 4.66796875 8.06640625 C4.77753906 8.70449219 4.88710937 9.34257813 5 10 C4.34 10 3.68 10 3 10 C3 9.34 3 8.68 3 8 C1.35 8.66 -0.3 9.32 -2 10 C-1.54177532 6.53058454 -1.10868317 3.32604951 0 0 Z " fill="#282828" transform="translate(225,52)"/>
<path d="M0 0 C1.98 0 3.96 0 6 0 C6 0.66 6 1.32 6 2 C4.68 2 3.36 2 2 2 C2 2.66 2 3.32 2 4 C2.66 4 3.32 4 4 4 C4 4.66 4 5.32 4 6 C3.34 6 2.68 6 2 6 C2 6.66 2 7.32 2 8 C3.32 8 4.64 8 6 8 C6 8.66 6 9.32 6 10 C4.02 10 2.04 10 0 10 C0 6.7 0 3.4 0 0 Z " fill="#1F1F1F" transform="translate(215,52)"/>
<path d="M0 0 C1.2065625 0.0309375 1.2065625 0.0309375 2.4375 0.0625 C2.7675 0.7225 3.0975 1.3825 3.4375 2.0625 C1.7875 2.0625 0.1375 2.0625 -1.5625 2.0625 C-1.5625 2.7225 -1.5625 3.3825 -1.5625 4.0625 C-0.2425 4.3925 1.0775 4.7225 2.4375 5.0625 C3 7 3 7 3.4375 9.0625 C2.4375 10.0625 2.4375 10.0625 -0.125 10.125 C-0.929375 10.104375 -1.73375 10.08375 -2.5625 10.0625 C-2.8925 9.4025 -3.2225 8.7425 -3.5625 8.0625 C-1.9125 8.0625 -0.2625 8.0625 1.4375 8.0625 C1.4375 7.4025 1.4375 6.7425 1.4375 6.0625 C0.1175 5.7325 -1.2025 5.4025 -2.5625 5.0625 C-3.125 3.125 -3.125 3.125 -3.5625 1.0625 C-2.5625 0.0625 -2.5625 0.0625 0 0 Z " fill="#222223" transform="translate(209.5625,51.9375)"/>
<path d="M0 0 C1.98 0 3.96 0 6 0 C6 0.66 6 1.32 6 2 C4.68 2 3.36 2 2 2 C2 2.66 2 3.32 2 4 C2.66 4 3.32 4 4 4 C4 4.66 4 5.32 4 6 C3.34 6 2.68 6 2 6 C2 6.66 2 7.32 2 8 C3.32 8 4.64 8 6 8 C6 8.66 6 9.32 6 10 C4.02 10 2.04 10 0 10 C0 6.7 0 3.4 0 0 Z " fill="#1E1E1F" transform="translate(58,52)"/>
<path d="M0 0 C0.66 0 1.32 0 2 0 C2.99 3.3 3.98 6.6 5 10 C4.34 10 3.68 10 3 10 C2.67 9.34 2.34 8.68 2 8 C1.34 8 0.68 8 0 8 C-0.33 8.66 -0.66 9.32 -1 10 C-1.66 9.67 -2.32 9.34 -3 9 C-2.01 6.03 -1.02 3.06 0 0 Z " fill="#282829" transform="translate(113,52)"/>
<path d="M0 0 C1.67542976 0.28604898 3.34385343 0.61781233 5 1 C5 1.33 5 1.66 5 2 C3.35 2 1.7 2 0 2 C0 2.66 0 3.32 0 4 C1.65 4.33 3.3 4.66 5 5 C4.67 6.65 4.34 8.3 4 10 C2.35 10 0.7 10 -1 10 C-1.33 9.34 -1.66 8.68 -2 8 C-0.35 8 1.3 8 3 8 C3 7.34 3 6.68 3 6 C1.68 5.67 0.36 5.34 -1 5 C-1 1 -1 1 0 0 Z " fill="#212122" transform="translate(129,52)"/>
<path d="M0 0 C0.0825 0.78375 0.165 1.5675 0.25 2.375 C0.72806339 5.14749104 0.72806339 5.14749104 3.0625 6.3125 C3.701875 6.539375 4.34125 6.76625 5 7 C2.69 7 0.38 7 -2 7 C-2 7.66 -2 8.32 -2 9 C-2.66 9 -3.32 9 -4 9 C-4 7.02 -4 5.04 -4 3 C-4.99 2.67 -5.98 2.34 -7 2 C-2.25 0 -2.25 0 0 0 Z " fill="#F32B6E" transform="translate(153,117)"/>
<path d="M0 0 C0.042721 1.66611905 0.04063832 3.33382885 0 5 C-1 6 -1 6 -3.5625 6.0625 C-4.7690625 6.0315625 -4.7690625 6.0315625 -6 6 C-6.33 4.35 -6.66 2.7 -7 1 C-4.53721199 -0.231394 -2.7204945 -0.07159196 0 0 Z " fill="#F4E1E8" transform="translate(152,105)"/>
<path d="M0 0 C0.78375 0.04125 1.5675 0.0825 2.375 0.125 C2.705 0.785 3.035 1.445 3.375 2.125 C1.725 2.455 0.075 2.785 -1.625 3.125 C-1.625 4.445 -1.625 5.765 -1.625 7.125 C0.025 7.455 1.675 7.785 3.375 8.125 C3.045 8.785 2.715 9.445 2.375 10.125 C0 10.25 0 10.25 -2.625 10.125 C-4.625 8.125 -4.625 8.125 -4.875 5.125 C-4.55416156 1.2749387 -3.94115238 0.18767392 0 0 Z " fill="#1A1A1A" transform="translate(52.625,51.875)"/>
<path d="M0 0 C3.125 0.375 3.125 0.375 6 1 C5.34 1.66 4.68 2.32 4 3 C3.01 3 2.02 3 1 3 C0.67 4.65 0.34 6.3 0 8 C1.98 8 3.96 8 6 8 C5.67 8.66 5.34 9.32 5 10 C2.625 10.125 2.625 10.125 0 10 C-2 8 -2 8 -2.25 5 C-2 2 -2 2 0 0 Z " fill="#232324" transform="translate(244,52)"/>
<path d="M0 0 C5.54708616 -0.2919519 10.61972975 0.80911014 16 2 C13.54383627 4.45616373 11.50344794 4.73776117 8.109375 5.109375 C4.64398429 4.92968807 2.56873503 3.18342478 0 1 C0 0.67 0 0.34 0 0 Z " fill="#D82161" transform="translate(109,114)"/>
<path d="M0 0 C0.99 0.33 1.98 0.66 3 1 C2.319375 1.804375 2.319375 1.804375 1.625 2.625 C-0.21688312 5.31698302 -1.07971933 7.88520388 -2 11 C-2.99 10.67 -3.98 10.34 -5 10 C-3.125 4.25 -3.125 4.25 -2 2 C-1.34 2 -0.68 2 0 2 C0 1.34 0 0.68 0 0 Z " fill="#D97898" transform="translate(163,101)"/>
<path d="M0 0 C0.54269531 0.38542969 1.08539063 0.77085938 1.64453125 1.16796875 C0.86078125 1.43609375 0.07703125 1.70421875 -0.73046875 1.98046875 C-3.63661798 3.01611307 -3.63661798 3.01611307 -5.35546875 6.16796875 C-5.35546875 5.50796875 -5.35546875 4.84796875 -5.35546875 4.16796875 C-8.32546875 5.48796875 -11.29546875 6.80796875 -14.35546875 8.16796875 C-13.05627044 4.27037381 -11.58103995 3.81898111 -8.04296875 1.85546875 C-7.07746094 1.30246094 -6.11195313 0.74945313 -5.1171875 0.1796875 C-2.35546875 -0.83203125 -2.35546875 -0.83203125 0 0 Z " fill="#BC144F" transform="translate(171.35546875,83.83203125)"/>
<path d="M0 0 C0.33 0 0.66 0 1 0 C1 1.65 1 3.3 1 5 C2.65 5 4.3 5 6 5 C6 3.35 6 1.7 6 0 C6.33 0 6.66 0 7 0 C7 3.3 7 6.6 7 10 C6.67 9.01 6.34 8.02 6 7 C4.68 7 3.36 7 2 7 C2 7.99 2 8.98 2 10 C1.34 10 0.68 10 0 10 C0 6.7 0 3.4 0 0 Z " fill="#1E1E1E" transform="translate(252,52)"/>
<path d="M0 0 C2.125 0.375 2.125 0.375 4 1 C4 2.65 4 4.3 4 6 C2.35 6 0.7 6 -1 6 C-1.625 4.125 -1.625 4.125 -2 2 C-1.34 1.34 -0.68 0.68 0 0 Z " fill="#E9E8EA" transform="translate(78,54)"/>
<path d="M0 0 C2.31 0 4.62 0 7 0 C7 0.66 7 1.32 7 2 C6.01 2 5.02 2 4 2 C4 4.64 4 7.28 4 10 C3.34 10 2.68 10 2 10 C2 7.36 2 4.72 2 2 C1.34 2 0.68 2 0 2 C0 1.34 0 0.68 0 0 Z " fill="#212122" transform="translate(184,52)"/>
<path d="M0 0 C0.66 0 1.32 0 2 0 C3.76462683 3.08809695 4 4.23312136 4 8 C2.35 8.33 0.7 8.66 -1 9 C-0.7525 8.1028125 -0.7525 8.1028125 -0.5 7.1875 C0.1114124 4.88655664 0.1114124 4.88655664 0 2 C0 1.34 0 0.68 0 0 Z " fill="#DC8AA5" transform="translate(155,90)"/>
<path d="M0 0 C2.0625 0.4375 2.0625 0.4375 4 1 C4 2.65 4 4.3 4 6 C2.35 6 0.7 6 -1 6 C-1.042721 4.33388095 -1.04063832 2.66617115 -1 1 C-0.67 0.67 -0.34 0.34 0 0 Z " fill="#F0EFF1" transform="translate(89,54)"/>
<path d="M0 0 C1.67542976 0.28604898 3.34385343 0.61781233 5 1 C4.34 2.32 3.68 3.64 3 5 C1.35 5 -0.3 5 -2 5 C-1.125 1.125 -1.125 1.125 0 0 Z " fill="#F7EFF3" transform="translate(170,88)"/>
<path d="M0 0 C0.66 0 1.32 0 2 0 C2.33 0.99 2.66 1.98 3 3 C3.66 2.01 4.32 1.02 5 0 C5.66 0.33 6.32 0.66 7 1 C6.01 3.97 5.02 6.94 4 10 C3.34 10 2.68 10 2 10 C1.34 6.7 0.68 3.4 0 0 Z " fill="#232323" transform="translate(193,52)"/>
<path d="M0 0 C0 2.31 0 4.62 0 7 C-0.99 7.495 -0.99 7.495 -2 8 C-2.66 7.01 -3.32 6.02 -4 5 C-4.99 4.67 -5.98 4.34 -7 4 C-7 3.34 -7 2.68 -7 2 C-1.125 0 -1.125 0 0 0 Z " fill="#E9E9EB" transform="translate(215,52)"/>
<path d="M0 0 C1.98 0 3.96 0 6 0 C6.33 1.65 6.66 3.3 7 5 C6.67 4.01 6.34 3.02 6 2 C4.68 2 3.36 2 2 2 C2 3.32 2 4.64 2 6 C1.34 6 0.68 6 0 6 C0 4.02 0 2.04 0 0 Z " fill="#1B1B1B" transform="translate(232,52)"/>
<path d="M0 0 C1.65 0.33 3.3 0.66 5 1 C4.34 2.32 3.68 3.64 3 5 C1.68 4.67 0.36 4.34 -1 4 C-0.67 2.68 -0.34 1.36 0 0 Z " fill="#F1DCE4" transform="translate(165,105)"/>
<path d="M0 0 C3.0625 0.25 3.0625 0.25 6 1 C6.33 1.66 6.66 2.32 7 3 C6.01 4.485 6.01 4.485 5 6 C4.67 5.01 4.34 4.02 4 3 C3.01 3 2.02 3 1 3 C0.34 3.99 -0.32 4.98 -1 6 C-1.625 4.125 -1.625 4.125 -2 2 C-1.34 1.34 -0.68 0.68 0 0 Z " fill="#333333" transform="translate(88,52)"/>
<path d="M0 0 C0.66 0 1.32 0 2 0 C0.48328036 4.55015893 -3.16891053 6.50057264 -7 9 C-5.71480435 6.13302508 -4.42870746 4.02392288 -2 2 C-1.34 2 -0.68 2 0 2 C0 1.34 0 0.68 0 0 Z " fill="#BF1F55" transform="translate(116,122)"/>
<path d="M0 0 C0 0.99 0 1.98 0 3 C-4.455 3.495 -4.455 3.495 -9 4 C-7 1 -7 1 -4.5 0.3125 C-2 0 -2 0 0 0 Z " fill="#E0115B" transform="translate(185,114)"/>
<path d="M0 0 C0.99 0.33 1.98 0.66 3 1 C2.67 1.33 2.34 1.66 2 2 C2.66 2.66 3.32 3.32 4 4 C2.02 4.66 0.04 5.32 -2 6 C-2 4.35 -2 2.7 -2 1 C-1.34 0.67 -0.68 0.34 0 0 Z " fill="#D70D55" transform="translate(153,91)"/>
<path d="M0 0 C0.66 0 1.32 0 2 0 C2.29296875 5.95703125 2.29296875 5.95703125 2 8 C1.01 8.99 0.02 9.98 -1 11 C-0.67 7.37 -0.34 3.74 0 0 Z " fill="#DC0D5A" transform="translate(147,120)"/>
<path d="M0 0 C0.33 0 0.66 0 1 0 C1 3.3 1 6.6 1 10 C0.01 9.67 -0.98 9.34 -2 9 C-1.34 6.03 -0.68 3.06 0 0 Z " fill="#DFDFE1" transform="translate(179,52)"/>
<path d="M0 0 C0.78375 0.04125 1.5675 0.0825 2.375 0.125 C2.705 0.785 3.035 1.445 3.375 2.125 C2.59125 2.228125 1.8075 2.33125 1 2.4375 C-1.95545181 2.90095022 -1.95545181 2.90095022 -3.625 6.125 C-4.25 4.25 -4.25 4.25 -4.625 2.125 C-2.625 0.125 -2.625 0.125 0 0 Z " fill="#29292A" transform="translate(52.625,51.875)"/>
<path d="M0 0 C1.32 0 2.64 0 4 0 C4 1.32 4 2.64 4 4 C1 6 1 6 -1 6 C-1 5.34 -1 4.68 -1 4 C-0.34 4 0.32 4 1 4 C0.67 2.68 0.34 1.36 0 0 Z " fill="#C0285B" transform="translate(158,94)"/>
<path d="M0 0 C0.99 1.485 0.99 1.485 2 3 C2.66 2.01 3.32 1.02 4 0 C4.66 0 5.32 0 6 0 C5 2 4 4 3 6 C2.01 5.67 1.02 5.34 0 5 C0 3.35 0 1.7 0 0 Z " fill="#383839" transform="translate(98,52)"/>
<path d="M0 0 C0.66 0 1.32 0 2 0 C2 3.3 2 6.6 2 10 C1.67 10 1.34 10 1 10 C1 8.35 1 6.7 1 5 C0.34 5 -0.32 5 -1 5 C-0.67 3.35 -0.34 1.7 0 0 Z " fill="#060606" transform="translate(146,52)"/>
<path d="M0 0 C1.65 0 3.3 0 5 0 C5.33 0.99 5.66 1.98 6 3 C3.50907189 4.24546405 2.58919267 3.7767578 0 3 C0 2.01 0 1.02 0 0 Z " fill="#8F8F90" transform="translate(67,58)"/>
<path d="M0 0 C2 2 2 2 2.125 4.625 C2.08375 5.40875 2.0425 6.1925 2 7 C1.01 7 0.02 7 -1 7 C-0.67 4.69 -0.34 2.38 0 0 Z " fill="#D4D4D6" transform="translate(121,26)"/>
</svg>
