<?xml version="1.0" encoding="UTF-8"?>
<svg version="1.1" xmlns="http://www.w3.org/2000/svg" width="640" height="640">
<path d="M0 0 C4.24198826 0.01126752 8.48392559 -0.00088384 12.72591054 -0.00984204 C21.00200604 -0.02366902 29.27794744 -0.01629797 37.5540354 -0.00116646 C47.21579938 0.01581693 56.87752628 0.01246813 66.53930058 0.00873946 C83.78849056 0.00288061 101.0376072 0.01695664 118.28677785 0.04168689 C134.9824438 0.06562048 151.67801189 0.07268133 168.37369192 0.06219471 C186.6106757 0.05076031 204.84761439 0.04888509 223.08459765 0.0632928 C225.03253189 0.06481845 226.98046614 0.06633881 228.9284004 0.06785381 C230.36558198 0.06899053 230.36558198 0.06899053 231.83179754 0.07015022 C238.54973662 0.07487212 245.2676554 0.07305669 251.98559415 0.06878841 C260.1802714 0.06383894 268.37485655 0.06994762 276.56951282 0.08968271 C280.74197074 0.09948713 284.91428906 0.10473474 289.0867542 0.09679019 C321.17748502 0.04211473 321.17748502 0.04211473 336.00430715 3.50823963 C337.05854533 3.7506567 338.1127835 3.99307378 339.19896829 4.24283683 C341.70179696 4.8455623 344.16168917 5.52546854 346.62930715 6.25823963 C347.50409719 6.51427967 348.37888723 6.77031971 349.28018606 7.03411853 C357.51514361 9.52578269 365.2911435 12.71373155 373.00430715 16.50823963 C373.63530324 16.81487537 374.26629934 17.12151111 374.91641653 17.43743885 C388.23290668 23.98369509 399.86917828 32.17324275 410.67618215 42.33245838 C412.4899903 44.02757773 414.30660425 45.60070498 416.25430715 47.13323963 C443.00703741 70.2378703 459.50181033 108.96306891 463.00430715 143.50823963 C463.74510357 160.71940974 464.38687723 178.74354197 460.00430715 195.50823963 C459.69831594 196.70030017 459.69831594 196.70030017 459.38614309 197.91644275 C452.47014854 224.15091405 440.44579902 247.34944792 421.9925884 267.33245838 C420.39723894 269.07825336 418.90494983 270.84112065 417.44180715 272.69573963 C393.40853807 300.42643471 353.74274519 316.73162703 318.00430715 320.50823963 C307.37774588 321.16064953 296.7239874 321.06540509 286.08190954 321.0311383 C281.85004391 321.02195791 277.61823992 321.03612077 273.38638723 321.04705799 C265.12867358 321.06471147 256.87110652 321.06106261 248.61338747 321.04940742 C241.89358428 321.04032096 235.17382177 321.03917145 228.45401418 321.04350269 C227.49239464 321.04411562 226.5307751 321.04472855 225.54001558 321.04536006 C223.58563267 321.04663914 221.63124977 321.047936 219.67686689 321.04925042 C201.41198877 321.06061763 183.14719136 321.04760341 164.88232648 321.02604896 C149.25888384 321.00818151 133.63556015 321.01128671 118.01211965 321.029724 C99.80621295 321.05119925 81.60037673 321.05951936 63.39445913 321.04727495 C61.44783947 321.04600094 59.5012198 321.04474346 57.55460012 321.04350269 C56.59718262 321.04288559 55.63976512 321.04226848 54.65333498 321.04163268 C47.95276271 321.03819968 41.25223569 321.04396353 34.55167043 321.0534209 C26.36992627 321.06471661 18.1883353 321.06144358 10.00660837 321.04029793 C5.84361581 321.02988821 1.68087733 321.02548998 -2.48211253 321.03889453 C-24.44593505 321.10377054 -46.02612311 320.34817686 -66.99569285 313.00823963 C-67.97006297 312.67421131 -68.94443308 312.34018299 -69.94832957 311.9960326 C-90.37258991 304.67610893 -108.85180577 293.62741785 -124.5933491 278.73480213 C-126.97654389 276.46975163 -126.97654389 276.46975163 -129.6089741 274.43011463 C-133.23313017 271.51180892 -136.03641145 268.08496507 -138.99569285 264.50823963 C-139.40625926 264.01533435 -139.81682566 263.52242908 -140.23983347 263.01458728 C-164.41757459 233.80129174 -177.21560365 199.04715598 -177.24569285 161.13323963 C-177.24636759 160.37157489 -177.24704234 159.60991016 -177.24773753 158.82516468 C-177.23176125 147.48096387 -176.83999274 136.5388417 -173.99569285 125.50823963 C-173.81876902 124.8053783 -173.64184519 124.10251697 -173.45956004 123.37835681 C-166.6121984 96.85222184 -154.34556373 72.99841004 -135.44100535 53.12933338 C-132.9841785 50.56379299 -132.9841785 50.56379299 -130.8902241 47.86761463 C-109.11226158 20.74619326 -68.82140722 5.40879622 -35.53564823 0.88130057 C-23.76235596 -0.35943696 -11.82487691 -0.0438607 0 0 Z M-41.74569285 61.25823963 C-43.60720258 63.94708702 -44.68135603 66.02990036 -45.87069285 69.00823963 C-47.60601834 73.2236052 -49.69864527 75.1690943 -53.2495991 77.91058338 C-58.86763019 83.05101898 -60.76412332 89.9768043 -61.24569285 97.32073963 C-61.19358992 101.88843017 -59.88468139 105.36699552 -57.99569285 109.50823963 C-57.33569285 109.83823963 -56.67569285 110.16823963 -55.99569285 110.50823963 C-55.00569285 107.86823963 -54.01569285 105.22823963 -52.99569285 102.50823963 C-50.07563636 103.23825375 -47.68334762 104.03317772 -44.93319285 105.13323963 C-39.49975369 107.00777614 -34.58897087 106.37598183 -28.99569285 105.50823963 C-21.1412363 119.38369168 -17.99656232 133.55158584 -14.81917918 149.06976306 C-11.11467218 167.02539083 -6.3511158 181.00477862 5.00430715 195.50823963 C5.6488384 196.36933338 6.29336965 197.23042713 6.95743215 198.11761463 C9.28828642 200.83991008 11.81127412 202.9228687 14.62930715 205.13323963 C17.68136361 207.53069952 19.8445688 209.26863211 22.00430715 212.50823963 C22.22869645 214.87710894 22.36253541 217.25508733 22.44180715 219.63323963 C22.76467517 226.47261933 23.75613995 232.48973868 27.1254009 238.51214588 C28.49066549 241.61281346 27.62779526 244.26610145 27.00430715 247.50823963 C19.85326965 250.36865463 14.04721369 249.72384443 6.69180715 248.32073963 C0.36201163 247.28173943 -5.18227378 247.611658 -10.99569285 250.50823963 C-12.79299561 252.51686246 -12.79299561 252.51686246 -13.99569285 254.50823963 C-13.66569285 255.16823963 -13.33569285 255.82823963 -12.99569285 256.50823963 C-10.02569285 255.51823963 -10.02569285 255.51823963 -6.99569285 254.50823963 C-6.33569285 255.49823963 -5.67569285 256.48823963 -4.99569285 257.50823963 C-4.33569285 257.50823963 -3.67569285 257.50823963 -2.99569285 257.50823963 C-2.66569285 258.82823963 -2.33569285 260.14823963 -1.99569285 261.50823963 C-1.33569285 260.84823963 -0.67569285 260.18823963 0.00430715 259.50823963 C2.15826667 259.87961196 4.14001637 260.55283665 6.21524465 261.23480213 C10.09353958 261.61502712 12.33672328 260.2628201 15.81680715 258.57073963 C23.07823915 255.21501333 28.15241748 254.54526721 36.00430715 256.50823963 C36.00430715 257.16823963 36.00430715 257.82823963 36.00430715 258.50823963 C35.07618215 258.46698963 34.14805715 258.42573963 33.19180715 258.38323963 C29.84620996 258.23687624 29.84620996 258.23687624 27.00430715 260.50823963 C27.33430715 261.16823963 27.66430715 261.82823963 28.00430715 262.50823963 C28.66430715 262.17823963 29.32430715 261.84823963 30.00430715 261.50823963 C33.31350409 261.35432349 36.07509878 261.52426792 39.31680715 262.25823963 C43.73646878 262.5578777 46.0423198 261.43503584 49.8910259 259.41839588 C52.00430715 258.50823963 52.00430715 258.50823963 56.00430715 258.50823963 C55.22055715 259.39511463 54.43680715 260.28198963 53.62930715 261.19573963 C51.43273724 263.81544482 50.06640374 266.22539563 49.00430715 269.50823963 C56.14635756 268.43693206 61.12359073 265.93763725 67.20743215 262.06683338 C69.93676103 260.54588055 71.91177859 259.81071291 75.00430715 259.50823963 C77.00430715 260.17490629 79.00430715 260.84157296 81.00430715 261.50823963 C85.70613895 261.99878507 89.72906704 261.64585968 94.00430715 259.50823963 C93.67430715 258.51823963 93.34430715 257.52823963 93.00430715 256.50823963 C89.23353815 254.62285513 84.6433752 255.0931039 80.4847759 254.88714588 C77.20400596 254.52998013 74.87790632 254.11345528 72.00430715 252.50823963 C70.69180715 248.88323963 70.69180715 248.88323963 70.00430715 245.50823963 C70.66430715 245.50823963 71.32430715 245.50823963 72.00430715 245.50823963 C75.06178576 241.54198904 75.68585817 237.5463514 76.19180715 232.69573963 C76.31459035 231.65643299 76.31459035 231.65643299 76.43985403 230.59613025 C76.63855008 228.90136979 76.82289918 227.20493768 77.00430715 225.50823963 C103.1018137 235.63638142 103.1018137 235.63638142 109.3597759 245.18011463 C111.97226259 248.87855184 114.80698764 249.98852049 119.00430715 251.50823963 C119.99430715 251.50823963 120.98430715 251.50823963 122.00430715 251.50823963 C122.00430715 250.84823963 122.00430715 250.18823963 122.00430715 249.50823963 C123.60810056 249.45407775 125.21242121 249.41537325 126.81680715 249.38323963 C127.71012746 249.3600365 128.60344778 249.33683338 129.5238384 249.31292713 C132.00430715 249.50823963 132.00430715 249.50823963 135.00430715 251.50823963 C137.29079564 251.74931289 137.29079564 251.74931289 139.69180715 251.63323963 C140.50004934 251.61519275 141.30829153 251.59714588 142.1410259 251.57855213 C142.75590871 251.555349 143.37079153 251.53214588 144.00430715 251.50823963 C144.46512225 247.6377416 144.46512225 247.6377416 142.54336965 245.98089588 C141.91172903 245.51554431 141.2800884 245.05019275 140.62930715 244.57073963 C138.2688931 242.8271416 137.15693273 241.91346387 136.1097759 239.13323963 C134.64836659 235.66303801 132.4846671 233.95137717 129.69180715 231.44573963 C124.04845436 226.08528218 121.59254728 220.85182263 119.00430715 213.50823963 C106.64061487 183.64814729 91.29407877 158.07146724 68.00430715 135.50823963 C67.23634817 134.73955554 66.46838918 133.97087146 65.67715871 133.17889392 C63.12944376 130.63327337 60.56037295 128.11154499 57.9847759 125.59417713 C56.54437503 124.1759464 55.10544948 122.75623699 53.66714895 121.33587635 C52.69168146 120.37542102 51.71352881 119.41768444 50.73257864 118.46282947 C39.44386711 107.46513275 31.84429326 95.88538697 24.9379009 81.73675525 C18.45596268 68.81269416 11.06285555 59.3012687 -2.74569285 54.19573963 C-17.19758268 49.7957375 -30.73437761 50.24692439 -41.74569285 61.25823963 Z M243.00430715 62.50823963 C238.33220877 69.15216447 238.01712562 76.62075891 239.00430715 84.50823963 C241.41207015 92.52982436 247.15427272 97.18425768 254.0394634 101.49261463 C259.31027171 104.21708811 265.22088383 104.26323659 271.00430715 103.50823963 C278.98512179 100.84796808 285.05183814 97.04004245 289.00430715 89.50823963 C292.46020028 82.43005851 292.7807228 75.82788433 290.2816509 68.34417713 C287.00409841 60.99451397 282.05561677 56.02684869 274.56680715 53.07073963 C261.96566825 49.08238461 251.65383313 52.66507906 243.00430715 62.50823963 Z M235.00430715 107.50823963 C234.38386526 108.40131824 234.38386526 108.40131824 233.75088918 109.31243885 C231.87913119 112.00417506 230.00426002 114.69372798 228.12930715 117.38323963 C227.47833059 118.32038806 226.82735403 119.2575365 226.1566509 120.22308338 C225.53145559 121.11898181 224.90626028 122.01488025 224.26211965 122.93792713 C223.68606985 123.76534412 223.11002004 124.59276111 222.51651418 125.44525135 C221.00430715 127.50823963 221.00430715 127.50823963 219.00430715 129.50823963 C217.66513454 129.19919979 216.33342397 128.85800721 215.00430715 128.50823963 C205.9243276 127.89264779 198.83569832 130.16881156 191.7269634 135.90667713 C186.18688321 141.05731857 184.3535365 146.95774122 183.62930715 154.32073963 C183.81893934 161.28295001 187.03303764 168.67506093 192.00430715 173.50823963 C201.13447309 180.47814309 208.93122319 180.79719254 220.00430715 179.50823963 C220.37716848 180.0733324 220.75002981 180.63842517 221.13418996 181.22064197 C222.83143553 183.78125981 224.54264437 186.332239 226.25430715 188.88323963 C227.13409231 190.21741931 227.13409231 190.21741931 228.0316509 191.57855213 C228.60528371 192.42933338 229.17891653 193.28011463 229.76993215 194.15667713 C230.55545461 195.33496082 230.55545461 195.33496082 231.35684621 196.53704822 C233.09933127 198.88867085 233.09933127 198.88867085 237.00430715 200.50823963 C239.64430715 198.52823963 242.28430715 196.54823963 245.00430715 194.50823963 C243.3381387 189.24610001 240.07362346 185.11664375 236.87930715 180.69573963 C236.31598684 179.90747791 235.75266653 179.11921619 235.1722759 178.30706775 C233.78753057 176.37077132 232.39812088 174.43801322 231.00430715 172.50823963 C231.36524465 171.80956775 231.72618215 171.11089588 232.09805715 170.39105213 C232.56211965 169.480974 233.02618215 168.57089588 233.50430715 167.63323963 C233.96836965 166.72831775 234.43243215 165.82339588 234.91055715 164.89105213 C236.14336304 162.64227103 236.14336304 162.64227103 236.00430715 160.50823963 C249.53430715 160.50823963 263.06430715 160.50823963 277.00430715 160.50823963 C277.00430715 156.54823963 277.00430715 152.58823963 277.00430715 148.50823963 C263.47430715 148.50823963 249.94430715 148.50823963 236.00430715 148.50823963 C235.67430715 146.85823963 235.34430715 145.20823963 235.00430715 143.50823963 C234.07395764 141.49288676 234.07395764 141.49288676 232.94180715 139.69573963 C232.30243215 138.64386463 231.66305715 137.59198963 231.00430715 136.50823963 C231.42840871 135.9180907 231.85251028 135.32794178 232.2894634 134.71990955 C234.20173616 132.05034525 236.10310824 129.37320026 238.00430715 126.69573963 C239.00590871 125.30258533 239.00590871 125.30258533 240.02774465 123.8812865 C240.65938528 122.98861072 241.2910259 122.09593494 241.94180715 121.17620838 C242.52833059 120.3540282 243.11485403 119.53184803 243.7191509 118.6847533 C245.25853024 116.49896193 245.25853024 116.49896193 245.00430715 113.50823963 C242.77738966 111.80627106 242.77738966 111.80627106 240.00430715 110.32073963 C239.07618215 109.79093494 238.14805715 109.26113025 237.19180715 108.71527088 C236.46993215 108.31695056 235.74805715 107.91863025 235.00430715 107.50823963 Z M289.37930715 111.50823963 C288.15340871 112.34355213 288.15340871 112.34355213 286.90274465 113.19573963 C286.27626028 113.62886463 285.6497759 114.06198963 285.00430715 114.50823963 C289.69443092 122.08572084 294.68194285 129.36106471 300.00430715 136.50823963 C299.65497121 137.18370838 299.30563528 137.85917713 298.9457134 138.55511463 C298.49067434 139.44714588 298.03563528 140.33917713 297.56680715 141.25823963 C297.11434621 142.13995838 296.66188528 143.02167713 296.1957134 143.93011463 C293.62118217 149.50123138 293.03870519 155.10764142 294.72305715 161.03948963 C297.8289675 169.35531412 301.92963158 174.2880376 309.72305715 178.52777088 C316.81152421 181.57435518 324.5533355 181.3181582 331.69961965 178.67230213 C338.37467632 175.30083283 343.78664503 170.04654608 346.41055715 162.98870838 C348.32476681 154.99184564 347.70787425 147.93269381 343.6175884 140.76605213 C339.24461141 134.646002 333.50041896 129.9492911 326.00430715 128.50823963 C320.82391728 128.126375 316.03233248 128.17862403 311.00430715 129.50823963 C309.25265218 127.13444513 307.50294682 124.75925383 305.75430715 122.38323963 C305.26317434 121.71808338 304.77204153 121.05292713 304.2660259 120.36761463 C302.00931897 117.29849321 299.80951913 114.23436146 297.76993215 111.01605213 C297.1872759 110.188474 296.60461965 109.36089588 296.00430715 108.50823963 C293.13153638 108.50823963 291.72760156 109.89798061 289.37930715 111.50823963 Z M244.56680715 213.88323963 C238.90942726 221.38367528 237.84226041 228.18973151 239.00430715 237.50823963 C241.63160801 246.03237132 246.66044716 250.84873351 254.06680715 255.38323963 C261.3794274 258.11723729 270.39266576 257.69867671 277.44180715 254.50823963 C283.95820283 250.68200072 288.49189024 245.80996415 291.00430715 238.63323963 C292.83237474 231.2301336 292.10108844 224.08046773 288.36368215 217.39105213 C284.46961584 211.99754648 278.64413166 206.86013182 272.00430715 205.50823963 C261.16586418 204.33043569 252.19104598 205.62520099 244.56680715 213.88323963 Z " fill="#1B3B3B" transform="translate(176.99569284915924,159.49176037311554)"/>
</svg>
