<?xml version="1.0" encoding="UTF-8"?>
<svg version="1.1" xmlns="http://www.w3.org/2000/svg" width="640" height="640">
<path d="M0 0 C11.25055818 0.93754651 17.60360686 6.72411372 25 15 C25.495 15.99 25.495 15.99 26 17 C26.33 11.39 26.66 5.78 27 0 C31.83692494 0.96738499 35.08160699 2.53960817 39.1875 5.0625 C39.84878906 5.4644458 40.51007813 5.8663916 41.19140625 6.28051758 C46.82727947 9.76935884 51.96253694 13.69273801 57 18 C57.60972656 18.47695313 58.21945313 18.95390625 58.84765625 19.4453125 C64.41490881 23.88389654 68.66826528 29.38650421 73 35 C73.60972656 35.78246094 74.21945313 36.56492188 74.84765625 37.37109375 C111.20331595 86.4802195 107.26564689 171.67340387 111 230 C111.90459961 229.96970703 112.80919922 229.93941406 113.74121094 229.90820312 C138.43947432 229.12298076 163.14217848 228.84174281 187.85168457 228.76782227 C191.16027472 228.75761162 194.46870208 228.74035995 197.77722168 228.71655273 C245.73429188 228.38711405 289.48637929 235.27393917 333.4921875 254.8828125 C334.58700439 255.36983643 335.68182129 255.85686035 336.80981445 256.35864258 C338.90582587 257.29549974 340.99841418 258.24007232 343.08666992 259.1940918 C365.85529118 269.42931949 383.42719957 268.45368499 407.1171875 263.06640625 C419.04457794 260.38594969 427.82337731 260.0489084 438.5625 266.5625 C454.01683304 277.61664099 460.23735035 297.69455554 463.6796875 315.51953125 C465.98328017 329.57775774 467.3706667 346.22188186 459.59765625 358.8671875 C455.04960905 364.93866372 450.54742114 368.79525687 443.125 370.5625 C439.67145676 371.73139156 438.37118974 372.30441808 436.63671875 375.5546875 C432.13086702 394.04789886 431.68074821 421.05808538 440.24267578 438.53686523 C445.57348561 449.92489557 444.60867936 461.73451866 444.5 474.0625 C443.95349754 493.20909879 443.95349754 493.20909879 450 511 C455.41027597 529.05887338 454.47007024 548.64549939 446.8671875 565.9140625 C445.35649841 569.54788219 444.86007101 572.29965792 445.421875 576.20703125 C447.86917656 595.55255533 446.87356259 621.25287482 438 639 C426.45 639 414.9 639 403 639 C404.91339635 633.25981096 405.62000865 631.68317455 410 628 C411.051875 627.649375 412.10375 627.29875 413.1875 626.9375 C416.1609204 625.30459647 416.1609204 625.30459647 416.7890625 622.640625 C417.35875367 619.42654645 417.71673783 616.25199689 418 613 C418.16435547 611.25976562 418.16435547 611.25976562 418.33203125 609.484375 C419.248955 598.38348484 419.12270772 587.52396864 418.125 576.4375 C418.04636719 575.47392578 417.96773437 574.51035156 417.88671875 573.51757812 C417.6371978 570.67111996 417.33491967 567.83761061 417 565 C416.90058105 564.08895508 416.80116211 563.17791016 416.69873047 562.23925781 C416.02762088 557.66281645 415.51720422 555.5406469 412.2421875 552.1171875 C411.13750062 551.34385715 410.01401787 550.59681107 408.875 549.875 C407.68594886 549.03789236 406.49974082 548.19673177 405.31640625 547.3515625 C404.74293457 546.95098633 404.16946289 546.55041016 403.57861328 546.13769531 C394.35315072 539.48897036 388.21433408 529.32150111 382 520 C381.91024902 520.65258789 381.82049805 521.30517578 381.72802734 521.97753906 C377.53027695 551.82704685 369.98783388 582.01216612 348 604 C347.62760773 606.81402683 347.62760773 606.81402683 347.5859375 610.1015625 C347.55032715 611.19291504 347.5147168 612.28426758 347.47802734 613.40869141 C347.42702881 615.49576416 347.42702881 615.49576416 347.375 617.625 C347.25125 622.03875 347.1275 626.4525 347 631 C335.12 631 323.24 631 311 631 C313.34177215 616.94936709 313.34177215 616.94936709 318 613 C319.27397656 612.57041107 320.56229213 612.18187487 321.859375 611.828125 C326.89666045 610.0108619 328.6782957 606.89598592 331.125 602.3125 C331.54458984 601.56154053 331.96417969 600.81058105 332.39648438 600.03686523 C342.32628537 581.7550918 349.0080806 558.63015629 343 538 C339.03215228 527.62894091 332.95543354 518.67934901 326.35595703 509.83886719 C323.87948036 506.4804188 321.50104309 503.05488479 319.125 499.625 C318.67278076 498.98304688 318.22056152 498.34109375 317.75463867 497.6796875 C312.10637008 489.52376881 308.82407123 482.67494427 308.875 472.625 C308.87113281 471.86960937 308.86726563 471.11421875 308.86328125 470.3359375 C308.86521484 469.22992188 308.86521484 469.22992188 308.8671875 468.1015625 C308.86831543 467.43463379 308.86944336 466.76770508 308.87060547 466.08056641 C309.02132589 463.65709579 309.48075082 461.36936444 310 459 C309.42781738 459.19110352 308.85563477 459.38220703 308.26611328 459.57910156 C265.58167143 473.74191697 216.33980766 479.9478679 173 464 C173.01160156 464.87914062 173.02320313 465.75828125 173.03515625 466.6640625 C173.4799952 531.10216124 173.4799952 531.10216124 160.95983887 552.8028717 C159.83887257 555.36883028 159.73616008 557.22657577 159.71289062 560.02124023 C159.69947632 561.02005722 159.68606201 562.01887421 159.67224121 563.04795837 C159.66696411 564.12396805 159.66168701 565.19997772 159.65625 566.30859375 C159.6343158 567.98514793 159.6343158 567.98514793 159.61193848 569.6955719 C159.56543204 573.27617795 159.5312815 576.85673056 159.5 580.4375 C159.45850773 585.12389222 159.40459012 589.80991726 159.34375 594.49609375 C159.3384729 595.55388535 159.3331958 596.61167694 159.32775879 597.70152283 C159.18102639 608.93740236 158.0780083 619.85323108 153 630 C152.63406738 630.86971436 152.26813477 631.73942871 151.89111328 632.63549805 C150.22053462 635.80712083 148.81776266 637.75127648 146 640 C140.07638102 641.67936794 133.6346155 640.93572909 127.5625 640.625 C125.8601564 640.57479293 124.15767094 640.52917357 122.45507812 640.48828125 C118.29986366 640.37852369 114.15149611 640.20628946 110 640 C112.21578658 628.08789199 118.00994369 619.10087506 128 612 C128.66 612 129.32 612 130 612 C131.70861715 578.79154093 131.70861715 578.79154093 124 547 C123.66790527 548.06734375 123.33581055 549.1346875 122.99365234 550.234375 C121.7346147 554.27652129 120.4694539 558.31673109 119.20263672 562.35644531 C118.66000537 564.08966425 118.11893398 565.82337252 117.57958984 567.55761719 C101.38251682 619.61748318 101.38251682 619.61748318 88 633 C86.07332493 633.08748207 84.14348139 633.10697334 82.21484375 633.09765625 C81.04501953 633.09443359 79.87519531 633.09121094 78.66992188 633.08789062 C77.43822266 633.07951172 76.20652344 633.07113281 74.9375 633.0625 C73.08415039 633.05573242 73.08415039 633.05573242 71.19335938 633.04882812 C68.12885883 633.03699608 65.06445279 633.02051173 62 633 C60.75577988 627.2462261 61.13882643 622.41818648 64.00390625 617.15625 C66.32730791 614.02770916 67.81142332 613.04226719 71.625 612.1875 C75.02146925 611.42608627 75.02146925 611.42608627 75.8605957 609.33276367 C76.06773193 608.61838135 76.27486816 607.90399902 76.48828125 607.16796875 C76.73223633 606.35465088 76.97619141 605.54133301 77.22753906 604.70336914 C77.48245117 603.81125732 77.73736328 602.91914551 78 602 C78.5845509 600.08591169 79.1691898 598.17185025 79.75390625 596.2578125 C80.35862768 594.21409018 80.96146556 592.16980966 81.5625 590.125 C81.86607422 589.11308594 82.16964844 588.10117187 82.48242188 587.05859375 C85.96407848 575.21034185 87.40283224 564.23706452 87.375 551.875 C87.37611786 551.17233002 87.37723572 550.46966003 87.37838745 549.74569702 C87.3650594 532.49314461 85.6257119 515.14959308 82.47705078 498.18190002 C82.00474323 495.03163708 81.87964396 492.08591314 81.88647461 488.90283203 C81.88658791 487.13167526 81.88658791 487.13167526 81.88670349 485.32473755 C81.89444542 483.43535965 81.89444542 483.43535965 81.90234375 481.5078125 C81.9037587 480.20673553 81.90517365 478.90565857 81.90663147 477.56515503 C81.91043156 474.12270147 81.92024017 470.68029075 81.93133545 467.237854 C81.94160375 463.71847106 81.94614066 460.19908113 81.95117188 456.6796875 C81.96186491 449.78644084 81.97891089 442.89322248 82 436 C80.86498047 435.56107422 80.86498047 435.56107422 79.70703125 435.11328125 C68.43283477 430.47670694 58.37650036 422.65428601 49 415 C48.22785156 414.3709375 47.45570313 413.741875 46.66015625 413.09375 C26.83706206 396.35255721 13.61234495 371.84750091 10.25 346.1875 C9.59317055 336.88241611 9.25125555 327.06573209 10.5078125 317.8125 C11.77938906 307.6398875 9.6628894 301.92058959 5.07421875 293.14453125 C-3.53392683 276.54008414 -4.05923999 254.67971092 -2.6640625 236.41796875 C-2.60710205 235.62334229 -2.5501416 234.82871582 -2.49145508 234.01000977 C-2.37580821 232.46873521 -2.24394343 230.92855354 -2.0925293 229.39038086 C-1.72324582 224.59834649 -2.37789536 221.20475032 -4.24975586 216.78173828 C-5.16890965 214.59886019 -5.68279641 212.44857885 -6.125 210.125 C-6.27195313 209.38507813 -6.41890625 208.64515625 -6.5703125 207.8828125 C-7.98099104 198.41844191 -8.24056594 188.99309545 -8.25 179.4375 C-8.25100708 178.72823364 -8.25201416 178.01896729 -8.25305176 177.28820801 C-8.24277757 166.58311184 -7.76932049 156.39980871 -5 146 C-4.70996094 144.90300781 -4.41992188 143.80601562 -4.12109375 142.67578125 C-2.60040787 137.60470741 -0.75819946 133.45990781 2.1875 129.0625 C5.87728669 123.36517194 5.97916257 117.64714021 6 111 C5.175 110.92523438 4.35 110.85046875 3.5 110.7734375 C-10.78791384 109.14691159 -23.33171068 104.52065801 -35 96 C-35.62648438 95.54496094 -36.25296875 95.08992188 -36.8984375 94.62109375 C-41.18952936 91.28241496 -44.19803305 87.45337524 -45 82 C-45.74999065 74.50009348 -43.10157566 68.29246853 -39.125 62.0625 C-34.75993507 57.82581933 -30.52397424 56.6952176 -24.5625 56.625 C-14.79363884 56.11685329 -4.36384782 53.79739799 3 47 C8.61445671 38.20401782 5.1976848 27.60159702 3.13476562 18.0703125 C2.67442781 16.00201599 2.20583598 13.93553717 1.72851562 11.87109375 C1.50744141 10.91203125 1.28636719 9.95296875 1.05859375 8.96484375 C0.75393188 7.67501587 0.75393188 7.67501587 0.44311523 6.35913086 C0 4 0 4 0 0 Z " fill="#67CBF4" transform="translate(111,0)"/>
<path d="M0 0 C11.25055818 0.93754651 17.60360686 6.72411372 25 15 C25.495 15.99 25.495 15.99 26 17 C26.33 11.39 26.66 5.78 27 0 C31.83692494 0.96738499 35.08160699 2.53960817 39.1875 5.0625 C39.84878906 5.4644458 40.51007813 5.8663916 41.19140625 6.28051758 C46.82727947 9.76935884 51.96253694 13.69273801 57 18 C57.60972656 18.47695313 58.21945313 18.95390625 58.84765625 19.4453125 C64.41490881 23.88389654 68.66826528 29.38650421 73 35 C73.60972656 35.78246094 74.21945313 36.56492188 74.84765625 37.37109375 C111.20331595 86.4802195 107.26564689 171.67340387 111 230 C111.90459961 229.96970703 112.80919922 229.93941406 113.74121094 229.90820312 C138.43947432 229.12298076 163.14217848 228.84174281 187.85168457 228.76782227 C191.16027472 228.75761162 194.46870208 228.74035995 197.77722168 228.71655273 C231.28862548 228.48634783 264.1730854 230.73961448 296.5625 240.125 C297.83105835 240.48718628 297.83105835 240.48718628 299.12524414 240.85668945 C301.11734078 241.47046604 303.06575719 242.22290574 305 243 C305.33 243.99 305.66 244.98 306 246 C304.515625 248.2421875 304.515625 248.2421875 302.25 250.875 C301.41726563 251.8546875 300.58453125 252.834375 299.7265625 253.84375 C299.27958008 254.36066406 298.83259766 254.87757813 298.37207031 255.41015625 C297.01497658 256.98264635 295.67318243 258.56686131 294.3359375 260.15625 C291.09781614 264.00349966 287.84060857 267.83442882 284.58398438 271.66601562 C279.8648039 277.22068034 275.15924951 282.78059925 270.5625 288.4375 C266.60556582 293.30049424 262.53564058 298.05700203 258.44384766 302.80615234 C254.64836633 307.22031766 250.94722087 311.70333198 247.27734375 316.22265625 C244.25580056 319.90759143 241.16964049 323.53568321 238.08349609 327.16650391 C235.20442157 330.55973475 232.36788508 333.9827672 229.5625 337.4375 C225.60491812 342.30129025 221.53457554 347.05881231 217.44165039 351.80834961 C214.41054711 355.33298919 211.43014684 358.89039882 208.5 362.5 C205.06791987 366.7279248 201.55448829 370.8752789 198 375 C193.67827137 380.01591689 189.44520804 385.09175299 185.26953125 390.23046875 C180.45311061 396.10799411 175.505057 401.87611914 170.58398438 407.66601562 C165.84596338 413.24285638 161.12157211 418.82582784 156.5 424.5 C150.95807902 431.30413786 145.26691077 437.97975878 139.58398438 444.66601562 C134.84596338 450.24285638 130.12157211 455.82582784 125.5 461.5 C119.95807902 468.30413786 114.26691077 474.97975878 108.58398438 481.66601562 C97.49203776 494.59250236 97.49203776 494.59250236 87 508 C86.01 507.67 85.02 507.34 84 507 C82.22793478 498.23473825 81.72967632 489.84988891 81.8046875 480.921875 C81.8075174 479.62928772 81.81034729 478.33670044 81.81326294 477.00494385 C81.82080413 473.61183559 81.84036744 470.21890573 81.8626709 466.8258667 C81.88333767 463.34617525 81.89230862 459.86645423 81.90234375 456.38671875 C81.92362509 449.59107376 81.9576419 442.79554551 82 436 C80.86498047 435.56107422 80.86498047 435.56107422 79.70703125 435.11328125 C68.43283477 430.47670694 58.37650036 422.65428601 49 415 C48.22785156 414.3709375 47.45570313 413.741875 46.66015625 413.09375 C26.83706206 396.35255721 13.61234495 371.84750091 10.25 346.1875 C9.59317055 336.88241611 9.25125555 327.06573209 10.5078125 317.8125 C11.77938906 307.6398875 9.6628894 301.92058959 5.07421875 293.14453125 C-3.53392683 276.54008414 -4.05923999 254.67971092 -2.6640625 236.41796875 C-2.60710205 235.62334229 -2.5501416 234.82871582 -2.49145508 234.01000977 C-2.37580821 232.46873521 -2.24394343 230.92855354 -2.0925293 229.39038086 C-1.72324582 224.59834649 -2.37789536 221.20475032 -4.24975586 216.78173828 C-5.16890965 214.59886019 -5.68279641 212.44857885 -6.125 210.125 C-6.27195313 209.38507813 -6.41890625 208.64515625 -6.5703125 207.8828125 C-7.98099104 198.41844191 -8.24056594 188.99309545 -8.25 179.4375 C-8.25100708 178.72823364 -8.25201416 178.01896729 -8.25305176 177.28820801 C-8.24277757 166.58311184 -7.76932049 156.39980871 -5 146 C-4.70996094 144.90300781 -4.41992188 143.80601562 -4.12109375 142.67578125 C-2.60040787 137.60470741 -0.75819946 133.45990781 2.1875 129.0625 C5.87728669 123.36517194 5.97916257 117.64714021 6 111 C5.175 110.92523438 4.35 110.85046875 3.5 110.7734375 C-10.78791384 109.14691159 -23.33171068 104.52065801 -35 96 C-35.62648438 95.54496094 -36.25296875 95.08992188 -36.8984375 94.62109375 C-41.18952936 91.28241496 -44.19803305 87.45337524 -45 82 C-45.74999065 74.50009348 -43.10157566 68.29246853 -39.125 62.0625 C-34.75993507 57.82581933 -30.52397424 56.6952176 -24.5625 56.625 C-14.79363884 56.11685329 -4.36384782 53.79739799 3 47 C8.61445671 38.20401782 5.1976848 27.60159702 3.13476562 18.0703125 C2.67442781 16.00201599 2.20583598 13.93553717 1.72851562 11.87109375 C1.50744141 10.91203125 1.28636719 9.95296875 1.05859375 8.96484375 C0.75393188 7.67501587 0.75393188 7.67501587 0.44311523 6.35913086 C0 4 0 4 0 0 Z " fill="#F9C3E0" transform="translate(111,0)"/>
<path d="M0 0 C1.26855835 0.36218628 1.26855835 0.36218628 2.56274414 0.73168945 C4.55484078 1.34546604 6.50325719 2.09790574 8.4375 2.875 C8.7675 3.865 9.0975 4.855 9.4375 5.875 C7.953125 8.1171875 7.953125 8.1171875 5.6875 10.75 C4.85476563 11.7296875 4.02203125 12.709375 3.1640625 13.71875 C2.71708008 14.23566406 2.27009766 14.75257813 1.80957031 15.28515625 C0.45247658 16.85764635 -0.88931757 18.44186131 -2.2265625 20.03125 C-5.46468386 23.87849966 -8.72189143 27.70942882 -11.97851562 31.54101562 C-16.6976961 37.09568034 -21.40325049 42.65559925 -26 48.3125 C-29.95693418 53.17549424 -34.02685942 57.93200203 -38.11865234 62.68115234 C-41.91413367 67.09531766 -45.61527913 71.57833198 -49.28515625 76.09765625 C-52.30669944 79.78259143 -55.39285951 83.41068321 -58.47900391 87.04150391 C-61.35807843 90.43473475 -64.19461492 93.8577672 -67 97.3125 C-70.95758188 102.17629025 -75.02792446 106.93381231 -79.12084961 111.68334961 C-82.15195289 115.20798919 -85.13235316 118.76539882 -88.0625 122.375 C-91.49458013 126.6029248 -95.00801171 130.7502789 -98.5625 134.875 C-102.88422863 139.89091689 -107.11729196 144.96675299 -111.29296875 150.10546875 C-116.10938939 155.98299411 -121.057443 161.75111914 -125.97851562 167.54101562 C-130.71653662 173.11785638 -135.44092789 178.70082784 -140.0625 184.375 C-145.60442098 191.17913786 -151.29558923 197.85475878 -156.97851562 204.54101562 C-161.71653662 210.11785638 -166.44092789 215.70082784 -171.0625 221.375 C-176.60442098 228.17913786 -182.29558923 234.85475878 -187.97851562 241.54101562 C-199.07046224 254.46750236 -199.07046224 254.46750236 -209.5625 267.875 C-210.5525 267.545 -211.5425 267.215 -212.5625 266.875 C-214.33456522 258.10973825 -214.83282368 249.72488891 -214.7578125 240.796875 C-214.7549826 239.50428772 -214.75215271 238.21170044 -214.74923706 236.87994385 C-214.74169587 233.48683559 -214.72213256 230.09390573 -214.6998291 226.7008667 C-214.67916233 223.22117525 -214.67019138 219.74145423 -214.66015625 216.26171875 C-214.63887491 209.46607376 -214.6048581 202.67054551 -214.5625 195.875 C-215.31917969 195.58238281 -216.07585937 195.28976562 -216.85546875 194.98828125 C-228.12966523 190.35170694 -238.18599964 182.52928601 -247.5625 174.875 C-248.72072266 173.93140625 -248.72072266 173.93140625 -249.90234375 172.96875 C-254.60884555 168.99396921 -258.65828935 164.63268926 -262.5625 159.875 C-263.15804687 159.17890625 -263.75359375 158.4828125 -264.3671875 157.765625 C-264.92664063 157.07984375 -265.48609375 156.3940625 -266.0625 155.6875 C-266.5678125 155.07519531 -267.073125 154.46289062 -267.59375 153.83203125 C-268.5625 151.875 -268.5625 151.875 -268.4609375 149.44921875 C-267.36346922 146.30473354 -265.85462033 144.40459241 -263.6875 141.875 C-262.87539063 140.9159375 -262.06328125 139.956875 -261.2265625 138.96875 C-260.5754248 138.21271484 -260.5754248 138.21271484 -259.91113281 137.44140625 C-258.07866783 135.31303997 -256.26747887 133.16697468 -254.45483398 131.02172852 C-253.52073635 129.91696111 -252.58533491 128.81329486 -251.64868164 127.71069336 C-248.76788125 124.31741638 -245.9311064 120.89312109 -243.125 117.4375 C-239.16741812 112.57370975 -235.09707554 107.81618769 -231.00415039 103.06665039 C-227.97304711 99.54201081 -224.99264684 95.98460118 -222.0625 92.375 C-218.63041987 88.1470752 -215.11698829 83.9997211 -211.5625 79.875 C-207.24315728 74.86185227 -203.01152723 69.78962485 -198.83984375 64.65234375 C-195.81830056 60.96740857 -192.73214049 57.33931679 -189.64599609 53.70849609 C-186.76692157 50.31526525 -183.93038508 46.8922328 -181.125 43.4375 C-177.16741812 38.57370975 -173.09707554 33.81618769 -169.00415039 29.06665039 C-165.97304711 25.54201081 -162.99264684 21.98460118 -160.0625 18.375 C-142.73966535 -2.94783465 -142.73966535 -2.94783465 -135.5625 -10.125 C-91.01579404 -14.62353263 -43.01478838 -12.46426887 0 0 Z " fill="#B8BBEF" transform="translate(407.5625,240.125)"/>
<path d="M0 0 C0.33 0 0.66 0 1 0 C3.55891077 20.9046501 3.64834789 47.70330422 -6 67 C-17.55 67 -29.1 67 -41 67 C-39.08660365 61.25981096 -38.37999135 59.68317455 -34 56 C-32.4221875 55.4740625 -32.4221875 55.4740625 -30.8125 54.9375 C-27.8390796 53.30459647 -27.8390796 53.30459647 -27.2109375 50.640625 C-25.83059122 42.85299971 -25.44341839 34.88817975 -25 27 C-24.67 27 -24.34 27 -24 27 C-24 29.31 -24 31.62 -24 34 C-22.09367418 32.27522902 -20.83312742 30.72187904 -19.5 28.5 C-18.12547861 26.20913102 -16.90154642 24.82841002 -15 23 C-11.63192301 19.26382691 -11.63192301 19.26382691 -9.0703125 14.984375 C-7.82910585 12.68315975 -6.54111864 11.7114158 -4.4375 10.1875 C-1.39542281 7.71975688 -1.04477751 7.18508039 -0.0625 3.125 C-0.041875 2.09375 -0.02125 1.0625 0 0 Z " fill="#B194EC" transform="translate(555,572)"/>
</svg>
