<?xml version="1.0" encoding="UTF-8"?>
<svg version="1.1" xmlns="http://www.w3.org/2000/svg" width="225" height="225">
<path d="M0 0 C74.25 0 148.5 0 225 0 C225 74.25 225 148.5 225 225 C150.75 225 76.5 225 0 225 C0 150.75 0 76.5 0 0 Z " fill="#F8F8F8" transform="translate(0,0)"/>
<path d="M0 0 C4.90120703 2.23563829 7.66426593 5.14886002 10 10 C10.31215015 13.36316618 10.23947378 16.63406292 10 20 C4.8407736 20.6449033 1.98455492 19.22557973 -2.171875 16.44140625 C-4.53394263 14.57900677 -6.24484803 12.43021042 -8 10 C-8.66 9.67 -9.32 9.34 -10 9 C-8.07848152 13.13126473 -5.95749791 16.53258866 -3 20 C-3.63808594 20.25394531 -4.27617188 20.50789063 -4.93359375 20.76953125 C-5.75988281 21.11371094 -6.58617187 21.45789063 -7.4375 21.8125 C-8.26121094 22.14894531 -9.08492187 22.48539063 -9.93359375 22.83203125 C-12.33372488 23.88403088 -12.33372488 23.88403088 -13 27 C-12.38253906 26.6390625 -11.76507813 26.278125 -11.12890625 25.90625 C-3.58983378 21.77525139 1.68837916 20.92209479 10 23 C10 29.27 10 35.54 10 42 C8.02 41.34 6.04 40.68 4 40 C-2.1164521 39.28206279 -6.6363058 39.78178348 -12 43 C-12.66 43 -13.32 43 -14 43 C-14.17015625 42.45730469 -14.3403125 41.91460937 -14.515625 41.35546875 C-16.42025405 35.69466529 -16.42025405 35.69466529 -21 32 C-20.34 32.969375 -19.68 33.93875 -19 34.9375 C-16.57321289 39.23439186 -15.95578792 43.15625993 -17 48 C-18.42247469 50.56150424 -19.80785931 51.96444078 -22 54 C-22.66 54 -23.32 54 -24 54 C-24 54.99 -24 55.98 -24 57 C-20.04294293 54.73882453 -17.61463646 52.69344602 -15 48.9375 C-12.38198188 45.30474617 -10.393876 43.3784709 -6 42 C-0.21536867 41.27040686 3.95814534 41.84884084 9 45 C10 46 10 46 10.09765625 48.28515625 C10.08605469 49.20167969 10.07445312 50.11820313 10.0625 51.0625 C10.05347656 51.98160156 10.04445312 52.90070313 10.03515625 53.84765625 C10.02355469 54.55792969 10.01195312 55.26820312 10 56 C8.96939453 56.39832031 8.96939453 56.39832031 7.91796875 56.8046875 C7.01691406 57.15789062 6.11585937 57.51109375 5.1875 57.875 C3.84751953 58.39707031 3.84751953 58.39707031 2.48046875 58.9296875 C-0.17711591 59.98832155 -0.17711591 59.98832155 -3 62 C-3.33 62.99 -3.66 63.98 -4 65 C-3.32453125 64.566875 -2.6490625 64.13375 -1.953125 63.6875 C-1.06109375 63.130625 -0.1690625 62.57375 0.75 62 C2.07257813 61.1646875 2.07257813 61.1646875 3.421875 60.3125 C6 59 6 59 10 59 C10 68.24 10 77.48 10 87 C6.7 88.32 3.4 89.64 0 91 C-3.08617155 94.02900323 -3.08617155 94.02900323 -5 97 C-2.55061458 95.57119184 -0.23866986 94.20017472 1.9375 92.375 C4.56640304 90.62239797 6.89286398 90.35308364 10 90 C10.86015126 100.74233355 10.86015126 100.74233355 7.875 104.5 C1.77394462 109.80526555 -2.96235012 110.5510703 -10.93359375 110.3515625 C-14.93994401 109.89223572 -17.08115626 108.76915945 -20 106 C-21.175625 104.948125 -21.175625 104.948125 -22.375 103.875 C-24.79042137 99.6015622 -24.73891599 95.79525688 -24 91 C-21.78806106 86.02313739 -18.85361557 83.86156361 -14.0390625 81.6796875 C-11.29378443 80.76459481 -8.86317779 80.71368222 -6 81 C-6.33 80.34 -6.66 79.68 -7 79 C-9.31 79 -11.62 79 -14 79 C-14.33 75.7 -14.66 72.4 -15 69 C-15.33 69 -15.66 69 -16 69 C-16.03738281 69.59167969 -16.07476562 70.18335937 -16.11328125 70.79296875 C-16.61162465 76.78286105 -17.55245288 80.62893873 -22 84.9375 C-24.37296009 87.38461509 -25.59697599 89.91334718 -27 93 C-32.44533513 92.61104749 -35.12686961 90.7851047 -39 87 C-41.31205572 83.7421033 -41.47249357 80.93744642 -41 77 C-38.70012459 72.65579089 -36.48375625 70.06942596 -32 68 C-31.01 68 -30.02 68 -29 68 C-29 67.01 -29 66.02 -29 65 C-29.66 65.350625 -30.32 65.70125 -31 66.0625 C-34.87816395 67.27442623 -38.13655987 67.05297682 -42 66 C-47.07826209 63.22132829 -50.16314023 60.51057931 -52 55 C-52.4533664 51.63213532 -52.62624243 49.12769854 -50.94140625 46.09375 C-47.40322977 41.56795244 -43.63649315 39.13148933 -38 38 C-35.27507056 37.79539779 -32.73912455 37.85326119 -30 38 C-30 37.01 -30 36.02 -30 35 C-30.93972656 35.05220703 -30.93972656 35.05220703 -31.8984375 35.10546875 C-33.12433594 35.14607422 -33.12433594 35.14607422 -34.375 35.1875 C-35.18710938 35.22230469 -35.99921875 35.25710937 -36.8359375 35.29296875 C-37.55007812 35.19628906 -38.26421875 35.09960938 -39 35 C-41.46354088 31.30468867 -41.80241204 28.28763605 -41 24 C-38.91621423 20.20601555 -36.05115691 17.53420777 -32 16 C-28.87109375 15.76953125 -28.87109375 15.76953125 -25.4375 15.8125 C-23.73400391 15.82216797 -23.73400391 15.82216797 -21.99609375 15.83203125 C-19 16 -19 16 -16 17 C-16 16.01 -16 15.02 -16 14 C-17.98 13.67 -19.96 13.34 -22 13 C-22.38269307 9.65143565 -22.16377251 8.25475723 -20.3125 5.375 C-14.2797735 -0.82077317 -8.29216829 -0.92947478 0 0 Z " fill="#424243" transform="translate(104,35)"/>
<path d="M0 0 C2.5625 -0.4375 2.5625 -0.4375 6 0 C7.7109375 1.5234375 7.7109375 1.5234375 9.4375 3.4375 C11.85481578 6.1138139 13.31655479 7.47028126 16.9375 7.9375 C18.4534375 7.9684375 18.4534375 7.9684375 20 8 C20.268125 7.38125 20.53625 6.7625 20.8125 6.125 C22 4 22 4 25 2 C27.375 1.5625 27.375 1.5625 30 2 C33.27248936 4.47254751 34.79864772 5.92612115 35.5625 10 C34.84909176 13.80484394 33.9236459 15.4511805 31 18 C27.5625 18.625 27.5625 18.625 24 18 C22.33333333 16.33333333 20.66666667 14.66666667 19 13 C17.02069647 12.8084545 15.04005975 12.62019206 13.0546875 12.5078125 C9.63248051 11.6620199 7.85339013 9.2146951 5.640625 6.59375 C3.78033923 4.78661525 2.52880347 4.39581272 0 4 C0 2.68 0 1.36 0 0 Z " fill="#424243" transform="translate(129,101)"/>
<path d="M0 0 C3.4375 0.625 3.4375 0.625 5.875 2.75 C7.72805839 6.15962745 8.15338388 7.80695263 7.4375 11.625 C5.375 14.5625 5.375 14.5625 2.4375 16.625 C-1.24432218 16.625 -3.5164611 16.40109338 -6.5 14.1875 C-7.5625 12.625 -7.5625 12.625 -7.5625 10.625 C-12.41430929 10.70634483 -12.41430929 10.70634483 -16.375 13.25 C-17.5342706 14.53347816 -18.69313023 15.81732764 -19.8515625 17.1015625 C-21.5625 18.625 -21.5625 18.625 -25 19.0625 C-25.845625 18.918125 -26.69125 18.77375 -27.5625 18.625 C-27.5625 17.305 -27.5625 15.985 -27.5625 14.625 C-26.86125 14.41875 -26.16 14.2125 -25.4375 14 C-22.65399062 12.66875638 -21.71032011 11.8020986 -19.75 9.5625 C-17.36995305 7.01069708 -15.98287068 6.27199598 -12.5 6.0625 C-8.42910158 6.02519526 -8.42910158 6.02519526 -6 3.0625 C-3.5625 0.625 -3.5625 0.625 0 0 Z " fill="#434344" transform="translate(156.5625,60.375)"/>
<path d="M0 0 C11.64908372 -0.93330938 11.64908372 -0.93330938 14.8828125 1.30078125 C15.79015624 2.38700132 16.67612322 3.49146019 17.5390625 4.61328125 C19.96735869 6.9182148 22.72994626 6.5767003 25.94140625 6.75 C28 7 28 7 30.5625 8.625 C32.59145852 11.97719234 32.54964081 14.15251431 32 18 C30.4375 20.4375 30.4375 20.4375 28 22 C23.59231863 22.72125695 21.74062512 22.52001338 18.0625 19.9375 C15.50831245 16.29971773 16 14.34911441 16 10 C14.31830353 6.8990956 14.31830353 6.8990956 11 5 C7.3331059 4.30473216 3.72756147 4.07180942 0 4 C0 2.68 0 1.36 0 0 Z " fill="#464647" transform="translate(118,116)"/>
<path d="M0 0 C2.4375 1.5625 2.4375 1.5625 4 4 C4.54964081 7.84748569 4.59145852 10.02280766 2.5625 13.375 C-0.16931081 15.10736783 -1.24359873 15.2060205 -4.375 15.375 C-7.7727107 15.52152902 -7.7727107 15.52152902 -10.4609375 17.38671875 C-10.88632813 17.93972656 -11.31171875 18.49273437 -11.75 19.0625 C-13.91578746 21.65525699 -14.80522706 21.97641239 -18.2578125 22.39453125 C-21.52405666 22.37689494 -24.74465516 22.26081398 -28 22 C-28 20.68 -28 19.36 -28 18 C-27.26394531 17.98582031 -26.52789062 17.97164062 -25.76953125 17.95703125 C-21.00182043 17.72399915 -17.84801399 17.56534266 -13.8125 14.875 C-11.68890779 12.07298407 -11.68890779 12.07298407 -12 8.5 C-12 5 -12 5 -9.9375 2.0625 C-6.25937488 -0.52001338 -4.40768137 -0.72125695 0 0 Z " fill="#424243" transform="translate(146,42)"/>
<path d="M0 0 C3.32274404 2.45594125 4.77618008 3.9256644 5.625 8 C4.77618008 12.0743356 3.32274404 13.54405875 0 16 C-3.52675456 16.57579666 -5.2491132 16.41496376 -8.375 14.6875 C-10 13 -10 13 -10 10 C-15.94 10 -21.88 10 -28 10 C-28 8.68 -28 7.36 -28 6 C-22.06 6 -16.12 6 -10 6 C-9.34 4.35 -8.68 2.7 -8 1 C-5.11138291 -0.44430855 -3.20352299 -0.37688506 0 0 Z " fill="#424243" transform="translate(168,82)"/>
<path d="M0 0 C3.82868919 1.45226142 5.2538953 3.33318013 7 7 C7 8.32 7 9.64 7 11 C8.11375 10.34 9.2275 9.68 10.375 9 C15.25057105 6.51852656 19.63783386 6.60443037 25 7 C25.33 7.99 25.66 8.98 26 10 C24.93072266 10.03867188 24.93072266 10.03867188 23.83984375 10.078125 C17.43842178 10.45721325 13.15939585 11.10412967 8 15 C6.61061923 16.96147874 5.2739589 18.96166576 4 21 C-0.42105263 25 -0.42105263 25 -3 25 C-3 24.01 -3 23.02 -3 22 C-1.37064759 20.62131719 0.29749607 19.28725907 2 18 C3.71483189 14.57033622 3.40269422 10.75847937 3 7 C1.62073227 4.65738392 1.62073227 4.65738392 0 3 C0 2.01 0 1.02 0 0 Z " fill="#E9E9E9" transform="translate(83,67)"/>
<path d="M0 0 C11.62652417 -0.93150194 11.62652417 -0.93150194 14.91796875 1.30078125 C15.83536054 2.37749598 16.72725625 3.47655629 17.58984375 4.59765625 C20.2240131 7.21723186 23.43675297 6.87712941 27 7 C26.01 7.33 25.02 7.66 24 8 C22.87483915 9.83284443 22.87483915 9.83284443 22 12 C21.33333333 13.33333333 20.66666667 14.66666667 20 16 C19.34 16 18.68 16 18 16 C18 14.02 18 12.04 18 10 C17.401875 9.731875 16.80375 9.46375 16.1875 9.1875 C14 8 14 8 12.71875 6.46875 C10.3185602 4.41767872 8.42647878 4.49567522 5.3125 4.3125 C4.31863281 4.24675781 3.32476562 4.18101563 2.30078125 4.11328125 C1.54152344 4.07589844 0.78226562 4.03851563 0 4 C0 2.68 0 1.36 0 0 Z " fill="#414142" transform="translate(118,116)"/>
<path d="M0 0 C0.33 0.66 0.66 1.32 1 2 C2.88764903 2.68472665 2.88764903 2.68472665 5.0625 3.125 C5.79597656 3.29257812 6.52945313 3.46015625 7.28515625 3.6328125 C7.85105469 3.75398438 8.41695312 3.87515625 9 4 C6.78728864 7.31906704 5.37069584 7.73394578 1.76953125 9.10546875 C-0.30464014 9.99839422 -0.30464014 9.99839422 -2.125 12.6875 C-6.81598629 16.46068463 -12.20387804 15.38188212 -18 15 C-18 13.68 -18 12.36 -18 11 C-17.26394531 10.98582031 -16.52789062 10.97164062 -15.76953125 10.95703125 C-9.31995889 10.7290078 -9.31995889 10.7290078 -3.9375 7.4375 C-3.298125 6.633125 -2.65875 5.82875 -2 5 C-1.34 5 -0.68 5 0 5 C0 3.35 0 1.7 0 0 Z " fill="#424243" transform="translate(136,49)"/>
<path d="M0 0 C0.66 0.33 1.32 0.66 2 1 C2.33975517 4.65236803 2.20830209 6.61672415 0.4375 9.875 C-2 12 -2 12 -5.5 12.5 C-9.03164382 11.99547945 -10.55394189 11.54390044 -13 9 C-13 8.34 -13 7.68 -13 7 C-12.34 7 -11.68 7 -11 7 C-10.67 5.68 -10.34 4.36 -10 3 C-9.34 4.32 -8.68 5.64 -8 7 C-5.55519921 6.81171228 -5.55519921 6.81171228 -3 6 C-1.6830333 4.11629529 -1.6830333 4.11629529 -1 2 C-0.67 1.34 -0.34 0.68 0 0 Z " fill="#404041" transform="translate(162,107)"/>
<path d="M0 0 C0.66 0.33 1.32 0.66 2 1 C2 4.3 2 7.6 2 11 C5.465 10.505 5.465 10.505 9 10 C9.33 10.99 9.66 11.98 10 13 C7.36 13.33 4.72 13.66 2 14 C-0.02613297 12.05828923 -0.94008689 10.57117167 -1.234375 7.765625 C-1.24889108 5.48660077 -1.2391075 3.26692305 -1 1 C-0.67 0.67 -0.34 0.34 0 0 Z " fill="#E5E5E5" transform="translate(88,103)"/>
<path d="M0 0 C0.66 0.99 1.32 1.98 2 3 C1 6 1 6 -1.3125 7.375 C-4.31415771 9.18995582 -5.8556298 11.2640794 -8 14 C-8.66 14 -9.32 14 -10 14 C-8.14189097 8.2567539 -4.32540964 4.0977565 0 0 Z " fill="#EDEDED" transform="translate(88,112)"/>
<path d="M0 0 C0.598125 0.226875 1.19625 0.45375 1.8125 0.6875 C2.4375 3.0625 2.4375 3.0625 2.8125 5.6875 C2.1525 6.3475 1.4925 7.0075 0.8125 7.6875 C-1.8125 7.3125 -1.8125 7.3125 -4.1875 6.6875 C-4.875 4.875 -4.875 4.875 -5.1875 2.6875 C-3.58493056 0.24147296 -2.95482043 -0.4221172 0 0 Z " fill="#E2E2E2" transform="translate(166.1875,86.3125)"/>
<path d="M0 0 C0.66 0.66 1.32 1.32 2 2 C1.57847656 2.47050781 1.15695313 2.94101563 0.72265625 3.42578125 C0.17480469 4.04839844 -0.37304688 4.67101562 -0.9375 5.3125 C-1.75541016 6.23482422 -1.75541016 6.23482422 -2.58984375 7.17578125 C-4.20081559 9.05241958 -4.20081559 9.05241958 -5 12 C-6.98 12 -8.96 12 -11 12 C-11 10.68 -11 9.36 -11 8 C-9.948125 7.690625 -9.948125 7.690625 -8.875 7.375 C-5.04274884 5.54218423 -2.89547493 3.09748481 0 0 Z " fill="#414141" transform="translate(140,67)"/>
<path d="M0 0 C0.99 0 1.98 0 3 0 C3.66 0.99 4.32 1.98 5 3 C5.33 2.01 5.66 1.02 6 0 C6.99 0 7.98 0 9 0 C9 2.97 9 5.94 9 9 C8.67 9 8.34 9 8 9 C7.67 7.35 7.34 5.7 7 4 C6.34 5.65 5.68 7.3 5 9 C3 8 3 8 2 5 C1.34 6.32 0.68 7.64 0 9 C0 6.03 0 3.06 0 0 Z " fill="#494949" transform="translate(85,159)"/>
<path d="M0 0 C1.65 0 3.3 0 5 0 C5.91058531 3.07322544 6.08886184 5.80097361 6 9 C5.34 8.67 4.68 8.34 4 8 C4 7.34 4 6.68 4 6 C3.34 6 2.68 6 2 6 C2 6.99 2 7.98 2 9 C1.34 9 0.68 9 0 9 C0 6.03 0 3.06 0 0 Z " fill="#656565" transform="translate(105,175)"/>
<path d="M0 0 C1.65 0.33 3.3 0.66 5 1 C6.125 4.75 6.125 4.75 5 7 C3.35 7 1.7 7 0 7 C-0.66 5.68 -1.32 4.36 -2 3 C-1.34 2.01 -0.68 1.02 0 0 Z " fill="#ECECEC" transform="translate(154,65)"/>
<path d="M0 0 C1.2065625 0.0309375 1.2065625 0.0309375 2.4375 0.0625 C3.0625 2.4375 3.0625 2.4375 3.4375 5.0625 C2.7775 5.7225 2.1175 6.3825 1.4375 7.0625 C-1.1875 6.6875 -1.1875 6.6875 -3.5625 6.0625 C-3.605221 4.39638095 -3.60313832 2.72867115 -3.5625 1.0625 C-2.5625 0.0625 -2.5625 0.0625 0 0 Z " fill="#F1F1F1" transform="translate(142.5625,126.9375)"/>
<path d="M0 0 C1.67542976 0.28604898 3.34385343 0.61781233 5 1 C6.125 4.75 6.125 4.75 5 7 C3.33388095 7.042721 1.66617115 7.04063832 0 7 C-1 6 -1 6 -1.125 3.5 C-1 1 -1 1 0 0 Z " fill="#F1F1F1" transform="translate(140,46)"/>
<path d="M0 0 C1.67542976 0.28604898 3.34385343 0.61781233 5 1 C5.625 2.875 5.625 2.875 6 5 C5.34 5.66 4.68 6.32 4 7 C1.375 6.625 1.375 6.625 -1 6 C-1.042721 4.33388095 -1.04063832 2.66617115 -1 1 C-0.67 0.67 -0.34 0.34 0 0 Z " fill="#F1F1F1" transform="translate(154,108)"/>
<path d="M0 0 C0.66 0 1.32 0 2 0 C2 3.3 2 6.6 2 10 C-1 9 -1 9 -2.1875 6.9375 C-2.455625 6.298125 -2.72375 5.65875 -3 5 C-3.66 6.32 -4.32 7.64 -5 9 C-5 6.36 -5 3.72 -5 1 C-2 2 -2 2 -1 4 C-0.67 2.68 -0.34 1.36 0 0 Z " fill="#3E3E3E" transform="translate(131,158)"/>
<path d="M0 0 C0.99 0 1.98 0 3 0 C5.09230769 4.43076923 5.09230769 4.43076923 4.625 7.3125 C4.41875 7.869375 4.2125 8.42625 4 9 C4 8.34 4 7.68 4 7 C2.68 7 1.36 7 0 7 C0 7.66 0 8.32 0 9 C-0.66 9 -1.32 9 -2 9 C-1.34 6.03 -0.68 3.06 0 0 Z " fill="#636363" transform="translate(98,175)"/>
<path d="M0 0 C0.99 0 1.98 0 3 0 C4.49821059 3.37097383 5 5.20442119 5 9 C4.34 9 3.68 9 3 9 C3 8.01 3 7.02 3 6 C2.01 6 1.02 6 0 6 C-0.33 6.99 -0.66 7.98 -1 9 C-2.0326802 6.21176345 -2.04509293 5.1322726 -1.0625 2.25 C-0.711875 1.5075 -0.36125 0.765 0 0 Z " fill="#555555" transform="translate(98,159)"/>
<path d="M0 0 C3 1 3 1 4 3 C2.3603125 3.6496875 2.3603125 3.6496875 0.6875 4.3125 C-2.15760851 5.51465852 -3.86448469 6.75770892 -6 9 C-6.99 9 -7.98 9 -9 9 C-7.27592413 4.61144323 -4.17026127 2.08513063 0 0 Z " fill="#E8E8E8" transform="translate(108,123)"/>
<path d="M0 0 C1.65 0 3.3 0 5 0 C5 0.66 5 1.32 5 2 C4.01 2 3.02 2 2 2 C2 2.66 2 3.32 2 4 C2.99 4 3.98 4 5 4 C5 4.66 5 5.32 5 6 C4.01 6 3.02 6 2 6 C2 6.66 2 7.32 2 8 C2.99 8 3.98 8 5 8 C5 8.66 5 9.32 5 10 C3.35 10 1.7 10 0 10 C0 6.7 0 3.4 0 0 Z " fill="#676767" transform="translate(135,158)"/>
<path d="M0 0 C0.66 0 1.32 0 2 0 C2 3.3 2 6.6 2 10 C1.34 10 0.68 10 0 10 C0 8.68 0 7.36 0 6 C-1.32 6 -2.64 6 -4 6 C-4.33 7.32 -4.66 8.64 -5 10 C-5 7.03 -5 4.06 -5 1 C-4.67 1.99 -4.34 2.98 -4 4 C-2.68 4 -1.36 4 0 4 C0 2.68 0 1.36 0 0 Z " fill="#565656" transform="translate(118,158)"/>
<path d="M0 0 C2.625 0.1875 2.625 0.1875 5.625 2.1875 C5.8125 4.8125 5.8125 4.8125 5.625 7.1875 C2.66324877 6.57472388 1.24441217 5.93377478 -1.375 4.1875 C-0.715 4.1875 -0.055 4.1875 0.625 4.1875 C0.625 3.5275 0.625 2.8675 0.625 2.1875 C-0.695 1.8575 -2.015 1.5275 -3.375 1.1875 C-2.375 0.1875 -2.375 0.1875 0 0 Z " fill="#535353" transform="translate(156.375,102.8125)"/>
<path d="M0 0 C3 1 3 1 4.1875 3.0625 C4.455625 3.701875 4.72375 4.34125 5 5 C5.33 3.35 5.66 1.7 6 0 C6.33 0 6.66 0 7 0 C7 2.97 7 5.94 7 9 C4 8 4 8 2.8125 5.9375 C2.544375 5.298125 2.27625 4.65875 2 4 C1.67 5.65 1.34 7.3 1 9 C0.67 9 0.34 9 0 9 C0 6.03 0 3.06 0 0 Z " fill="#323232" transform="translate(113,175)"/>
<path d="M0 0 C3 1 3 1 4.1875 3.0625 C4.455625 3.701875 4.72375 4.34125 5 5 C5.33 3.35 5.66 1.7 6 0 C6.33 0 6.66 0 7 0 C7 2.97 7 5.94 7 9 C4 8 4 8 2.8125 5.9375 C2.544375 5.298125 2.27625 4.65875 2 4 C1.67 5.65 1.34 7.3 1 9 C0.67 9 0.34 9 0 9 C0 6.03 0 3.06 0 0 Z " fill="#313131" transform="translate(126,175)"/>
<path d="M0 0 C2.64 0 5.28 0 8 0 C8 1.32 8 2.64 8 4 C5.36 4 2.72 4 0 4 C0 2.68 0 1.36 0 0 Z " fill="#4A4A4B" transform="translate(118,88)"/>
<path d="M0 0 C0.66 0.33 1.32 0.66 2 1 C2 1.66 2 2.32 2 3 C0.3203125 4.2890625 0.3203125 4.2890625 -1.875 5.625 C-2.95394531 6.29402344 -2.95394531 6.29402344 -4.0546875 6.9765625 C-6 8 -6 8 -8 8 C-7.9375 6.25 -7.9375 6.25 -7 4 C-4.74876994 2.27481113 -2.59865097 1.23093993 0 0 Z " fill="#ECECEC" transform="translate(108,92)"/>
<path d="M0 0 C0 0.66 0 1.32 0 2 C-1.28913487 2.67154933 -2.58140204 3.33708859 -3.875 4 C-4.59429687 4.37125 -5.31359375 4.7425 -6.0546875 5.125 C-8 6 -8 6 -10 6 C-9.875 4.1875 -9.875 4.1875 -9 2 C-3.81203008 -1.27067669 -3.81203008 -1.27067669 0 0 Z " fill="#E9E9E9" transform="translate(101,56)"/>
<path d="M0 0 C1.65 0 3.3 0 5 0 C4.01 0.33 3.02 0.66 2 1 C2 1.99 2 2.98 2 4 C2.99 4.33 3.98 4.66 5 5 C4.01 5 3.02 5 2 5 C2 5.99 2 6.98 2 8 C3.32 8.33 4.64 8.66 6 9 C4.02 9 2.04 9 0 9 C0 6.03 0 3.06 0 0 Z " fill="#3C3C3C" transform="translate(89,175)"/>
<path d="M0 0 C0.33 0.99 0.66 1.98 1 3 C-4.75 8 -4.75 8 -7 8 C-7 7.01 -7 6.02 -7 5 C-5.46875 3.61328125 -5.46875 3.61328125 -3.5 2.3125 C-2.8503125 1.87550781 -2.200625 1.43851562 -1.53125 0.98828125 C-1.0259375 0.66214844 -0.520625 0.33601563 0 0 Z " fill="#ECECEC" transform="translate(87,84)"/>
<path d="M0 0 C2.64 0 5.28 0 8 0 C8.33 0.99 8.66 1.98 9 3 C6.36 3.33 3.72 3.66 1 4 C0.67 2.68 0.34 1.36 0 0 Z " fill="#DEDEDF" transform="translate(89,113)"/>
<path d="M0 0 C3.3 0 6.6 0 10 0 C10.33 0.99 10.66 1.98 11 3 C5.04296875 3.29296875 5.04296875 3.29296875 3 3 C2.01 2.01 1.02 1.02 0 0 Z " fill="#D9D9D9" transform="translate(98,74)"/>
<path d="M0 0 C0.33 0 0.66 0 1 0 C1 2.97 1 5.94 1 9 C0.01 9 -0.98 9 -2 9 C-1.125 1.125 -1.125 1.125 0 0 Z " fill="#E8E8E8" transform="translate(112,175)"/>
<path d="M0 0 C0 0.99 0 1.98 0 3 C-4.29 2.67 -8.58 2.34 -13 2 C-13 1.67 -13 1.34 -13 1 C-8.62426048 0.40667939 -4.42471556 -0.13827236 0 0 Z " fill="#CECECE" transform="translate(88,49)"/>
<path d="M0 0 C0 3 0 3 -1 5 C-0.34 5 0.32 5 1 5 C0 8 0 8 -2 11 C-3.35384615 4.6 -3.35384615 4.6 -1.5625 1.5625 C-1.046875 1.046875 -0.53125 0.53125 0 0 Z " fill="#4D4D4D" transform="translate(137,43)"/>
<path d="M0 0 C1.65 0 3.3 0 5 0 C5 1.32 5 2.64 5 4 C3.35 4 1.7 4 0 4 C0 2.68 0 1.36 0 0 Z " fill="#343434" transform="translate(119,101)"/>
<path d="M0 0 C1.65 0 3.3 0 5 0 C5 1.32 5 2.64 5 4 C3.35 4 1.7 4 0 4 C0 2.68 0 1.36 0 0 Z " fill="#343434" transform="translate(119,75)"/>
<path d="M0 0 C0.99 0 1.98 0 3 0 C3.33 1.32 3.66 2.64 4 4 C2.68 4.33 1.36 4.66 0 5 C-0.33 4.01 -0.66 3.02 -1 2 C-0.67 1.34 -0.34 0.68 0 0 Z " fill="#777777" transform="translate(98,159)"/>
<path d="M0 0 C0.66 0 1.32 0 2 0 C2 3.3 2 6.6 2 10 C0 9 0 9 -0.6875 7.25 C-1.05449975 4.60760177 -0.64331769 2.57327078 0 0 Z " fill="#777777" transform="translate(131,158)"/>
</svg>
