<?xml version="1.0" encoding="UTF-8"?>
<svg version="1.1" xmlns="http://www.w3.org/2000/svg" width="225" height="225">
<path d="M0 0 C74.25 0 148.5 0 225 0 C225 74.25 225 148.5 225 225 C150.75 225 76.5 225 0 225 C0 150.75 0 76.5 0 0 Z " fill="#FDFEFE" transform="translate(0,0)"/>
<path d="M0 0 C15.72631029 -0.07044877 31.45257714 -0.12316221 47.17900658 -0.15543652 C54.48299853 -0.1708282 61.78689177 -0.19176803 69.09082031 -0.22631836 C75.4656655 -0.2564591 81.84043913 -0.27563074 88.21535361 -0.28226548 C91.58295634 -0.2861366 94.95019408 -0.29670527 98.31776047 -0.31719017 C133.52706083 -0.52266814 133.52706083 -0.52266814 149.75 5.75 C150.77722168 6.13079712 150.77722168 6.13079712 151.82519531 6.51928711 C161.02407328 10.02468478 170.22265714 13.65787856 177 21 C165.63045077 29.9468674 154.12371679 38.67323144 142.44384766 47.21044922 C137.41933106 50.88974059 132.41382117 54.59492688 127.40454102 58.29492188 C125.27252016 59.86718526 123.13768845 61.43545252 121 63 C120.31873047 63.49870605 119.63746094 63.99741211 118.93554688 64.51123047 C114.12057959 68 114.12057959 68 113 68 C113 59.42 113 50.84 113 42 C91.4780945 44.37105739 73.48717848 50.67647174 58.875 67.4375 C46.21264691 84.62212204 42.06435511 102.90147065 44 124 C45.72139598 134.68545202 49.79743864 145.71259961 56.7421875 154.10546875 C57.15726563 154.73066406 57.57234375 155.35585937 58 156 C56.69852484 159.90442548 54.32413317 161.15505427 51.0625 163.375 C49.79748289 164.25421036 48.53319819 165.13447517 47.26953125 166.015625 C46.58713379 166.48935547 45.90473633 166.96308594 45.20166016 167.45117188 C42.82591674 169.12246443 40.47951227 170.82972174 38.13671875 172.546875 C36.91940063 173.43753662 36.91940063 173.43753662 35.67749023 174.34619141 C34.07200733 175.52265208 32.46861474 176.70197122 30.86743164 177.88427734 C30.13258545 178.42004395 29.39773926 178.95581055 28.640625 179.5078125 C27.65884277 180.22928467 27.65884277 180.22928467 26.65722656 180.96533203 C25 182 25 182 23 182 C21.49395243 180.00931798 20.14191764 178.04315292 18.8125 175.9375 C18.41321289 175.30626221 18.01392578 174.67502441 17.60253906 174.0246582 C11.797198 164.64136452 7.37113131 154.94202287 4.1875 144.375 C3.9925293 143.73135498 3.79755859 143.08770996 3.59667969 142.42456055 C0.61434867 131.8483311 -0.2983877 121.17992372 -0.22705078 110.2331543 C-0.22734283 109.03156677 -0.22763489 107.82997925 -0.22793579 106.59197998 C-0.2267931 103.34278194 -0.21686389 100.09376329 -0.20278788 96.84460044 C-0.19016146 93.43203771 -0.18910074 90.0194703 -0.18673706 86.60688782 C-0.18055689 80.16512321 -0.16419373 73.72342767 -0.14403808 67.28169328 C-0.12157031 59.93934055 -0.11065849 52.59698428 -0.10064721 45.25460565 C-0.07982381 30.16969883 -0.04471632 15.08485637 0 0 Z " fill="#43C9ED" transform="translate(0,0)"/>
<path d="M0 0 C1.51923629 2.05400747 2.89710018 4.08934023 4.25 6.25 C4.65114014 6.88462158 5.05228027 7.51924316 5.46557617 8.1730957 C17.6739874 27.77653975 23.18735365 48.1719354 23.11352539 71.19921875 C23.11367142 72.40007614 23.11381744 73.60093353 23.1139679 74.83818054 C23.11339338 78.10828106 23.10840139 81.37833798 23.10139394 84.64842987 C23.09511406 88.07437447 23.09455295 91.50032006 23.09336853 94.92626953 C23.09026882 101.40359169 23.08207388 107.88089683 23.07201904 114.35821152 C23.06081553 121.73673071 23.0553368 129.11525074 23.05032361 136.49377632 C23.03989004 151.662527 23.0223171 166.83126179 23 182 C7.35224737 182.04691274 -8.29548598 182.08208263 -23.94329166 182.10362434 C-31.21034675 182.1138965 -38.4773579 182.12787822 -45.74438477 182.15087891 C-52.08514086 182.17093815 -58.4258651 182.18374587 -64.76665205 182.18817699 C-68.11787642 182.19076338 -71.46893822 182.19783792 -74.82014656 182.21146011 C-103.79480145 182.32448038 -130.04485492 179.73542875 -154 162 C-150.24329426 158.05045956 -146.26129516 154.78802171 -141.875 151.5625 C-141.17979248 151.0459082 -140.48458496 150.52931641 -139.76831055 149.99707031 C-136.00968207 147.20820882 -132.2369771 144.43852168 -128.46484375 141.66796875 C-127.32039795 140.82709717 -127.32039795 140.82709717 -126.15283203 139.96923828 C-124.58798517 138.81968147 -123.02255164 137.67092283 -121.45654297 136.52294922 C-114.14321089 131.14519356 -106.93695661 125.62997317 -99.76489258 120.06542969 C-98.504552 119.09524902 -98.504552 119.09524902 -97.21875 118.10546875 C-96.47560547 117.52949951 -95.73246094 116.95353027 -94.96679688 116.36010742 C-93 115 -93 115 -90 114 C-90 122.58 -90 131.16 -90 140 C-70.0080523 138.21500467 -52.10109966 132.08139001 -38 117 C-26.60834654 102.89785329 -20.60668707 87.67685643 -20.75 69.5 C-20.74226562 68.51902344 -20.73453125 67.53804688 -20.7265625 66.52734375 C-20.7638197 52.5372663 -25.27377977 40.81770135 -32.765625 29.05859375 C-34 27 -34 27 -35 24 C-34.29991821 23.49569458 -34.29991821 23.49569458 -33.58569336 22.98120117 C-31.36916424 21.38394453 -29.15333678 19.78571695 -26.9375 18.1875 C-26.12925781 17.60524658 -25.32101563 17.02299316 -24.48828125 16.4230957 C-20.48564702 13.53522334 -16.49427829 10.63481675 -12.53515625 7.6875 C-11.85267822 7.18065674 -11.1702002 6.67381348 -10.46704102 6.15161133 C-9.17417662 5.18930429 -7.88420068 4.22310213 -6.59741211 3.25268555 C-2.22130417 0 -2.22130417 0 0 0 Z " fill="#0294E2" transform="translate(202,43)"/>
<path d="M0 0 C0.33 0 0.66 0 1 0 C1 35.31 1 70.62 1 107 C-33.32 107 -67.64 107 -103 107 C-103 106.67 -103 106.34 -103 106 C-102.23558594 105.90203125 -101.47117187 105.8040625 -100.68359375 105.703125 C-76.06593498 102.26672498 -54.50340378 93.68711874 -36 77 C-35.15953125 76.24203125 -34.3190625 75.4840625 -33.453125 74.703125 C-14.90171471 57.07352392 -2.14579562 31.1140365 -0.375 5.4375 C-0.30023438 4.40496094 -0.22546875 3.37242188 -0.1484375 2.30859375 C-0.07496094 1.16583984 -0.07496094 1.16583984 0 0 Z " fill="#FCFDFE" transform="translate(224,118)"/>
<path d="M0 0 C33.66 0 67.32 0 102 0 C102 0.33 102 0.66 102 1 C101.00742188 1.17015625 100.01484375 1.3403125 98.9921875 1.515625 C72.55555527 6.16760679 51.24084084 16.05393527 32 35 C31.21882813 35.75667969 30.43765625 36.51335938 29.6328125 37.29296875 C12.89906331 54.59244968 3.64363535 78.36432945 1 102 C0.67 102 0.34 102 0 102 C0 68.34 0 34.68 0 0 Z " fill="#FDFEFE" transform="translate(0,0)"/>
</svg>
