<?xml version="1.0" encoding="UTF-8"?>
<svg version="1.1" xmlns="http://www.w3.org/2000/svg" width="225" height="225">
<path d="M0 0 C74.25 0 148.5 0 225 0 C225 74.25 225 148.5 225 225 C150.75 225 76.5 225 0 225 C0 150.75 0 76.5 0 0 Z " fill="#FEFEFE" transform="translate(0,0)"/>
<path d="M0 0 C1.1859375 0.00257812 2.371875 0.00515625 3.59375 0.0078125 C4.7796875 0.00523438 5.965625 0.00265625 7.1875 0 C10.09375 0.1328125 10.09375 0.1328125 11.09375 1.1328125 C11.46135731 3.46099214 11.79616581 5.794651 12.09375 8.1328125 C12.83625 7.8234375 13.57875 7.5140625 14.34375 7.1953125 C18.96041667 5.41160038 18.96041667 5.41160038 21.09375 5.1328125 C23.89218029 6.64578498 26.04570928 8.70985723 28.09375 11.1328125 C28.71875 13.8203125 28.71875 13.8203125 28.09375 16.1328125 C27.1143621 17.15300823 26.11479551 18.15431055 25.09375 19.1328125 C25.09375 20.4528125 25.09375 21.7728125 25.09375 23.1328125 C27.73375 23.1328125 30.37375 23.1328125 33.09375 23.1328125 C33.12060938 25.27857887 33.14008088 27.42443895 33.15625 29.5703125 C33.16785156 30.76527344 33.17945313 31.96023437 33.19140625 33.19140625 C33.09375 36.1328125 33.09375 36.1328125 32.09375 37.1328125 C29.76077567 37.17374187 27.42669775 37.17522973 25.09375 37.1328125 C25.59206724 40.82036007 26.19442643 42.73771912 29.09375 45.1328125 C27.55958702 49.12163626 24.6690426 52.78064632 21.09375 55.1328125 C17.66988296 54.7437367 15.78179991 53.19365076 13.09375 51.1328125 C12.43375 51.1328125 11.77375 51.1328125 11.09375 51.1328125 C11.135 52.2465625 11.17625 53.3603125 11.21875 54.5078125 C11.09375 58.1328125 11.09375 58.1328125 9.09375 60.1328125 C6.5625 60.3984375 6.5625 60.3984375 3.59375 60.3828125 C2.6140625 60.38796875 1.634375 60.393125 0.625 60.3984375 C-1.90625 60.1328125 -1.90625 60.1328125 -3.90625 58.1328125 C-4.03125 54.5078125 -4.03125 54.5078125 -3.90625 51.1328125 C-6.82142292 52.20682358 -8.68435176 52.91091426 -10.90625 55.1328125 C-14.52616736 54.84112494 -16.22988813 53.13665679 -18.65625 50.5703125 C-19.26984375 49.92964844 -19.8834375 49.28898437 -20.515625 48.62890625 C-20.97453125 48.13519531 -21.4334375 47.64148438 -21.90625 47.1328125 C-20.88395134 45.07962443 -19.85445957 43.03498613 -18.78125 41.0078125 C-17.76528818 39.17560448 -17.76528818 39.17560448 -17.90625 37.1328125 C-19.6078125 37.16375 -19.6078125 37.16375 -21.34375 37.1953125 C-24.90625 37.1328125 -24.90625 37.1328125 -25.90625 36.1328125 C-25.97883946 33.94641797 -25.98998783 31.75780861 -25.96875 29.5703125 C-25.95972656 28.37277344 -25.95070313 27.17523438 -25.94140625 25.94140625 C-25.92980469 25.01457031 -25.91820313 24.08773437 -25.90625 23.1328125 C-23.26625 23.1328125 -20.62625 23.1328125 -17.90625 23.1328125 C-18.35342329 19.44366503 -18.35342329 19.44366503 -20.53125 16.5703125 C-20.985 16.0959375 -21.43875 15.6215625 -21.90625 15.1328125 C-21.52371276 11.65388888 -20.19612249 10.06604293 -17.59375 7.8203125 C-16.70236328 7.02173828 -16.70236328 7.02173828 -15.79296875 6.20703125 C-13.90625 5.1328125 -13.90625 5.1328125 -11.80078125 5.33984375 C-9.90625 6.1328125 -9.90625 6.1328125 -7.90625 8.1328125 C-6.91625 8.1328125 -5.92625 8.1328125 -4.90625 8.1328125 C-4.761875 6.9984375 -4.6175 5.8640625 -4.46875 4.6953125 C-3.75447574 0.1715755 -3.75447574 0.1715755 0 0 Z " fill="#EB524C" transform="translate(108.90625,86.8671875)"/>
<path d="M0 0 C1.1859375 0.00257812 2.371875 0.00515625 3.59375 0.0078125 C4.7796875 0.00523438 5.965625 0.00265625 7.1875 0 C10.09375 0.1328125 10.09375 0.1328125 11.09375 1.1328125 C11.46135731 3.46099214 11.79616581 5.794651 12.09375 8.1328125 C12.83625 7.8234375 13.57875 7.5140625 14.34375 7.1953125 C18.96041667 5.41160038 18.96041667 5.41160038 21.09375 5.1328125 C23.89218029 6.64578498 26.04570928 8.70985723 28.09375 11.1328125 C28.71875 13.8203125 28.71875 13.8203125 28.09375 16.1328125 C27.1143621 17.15300823 26.11479551 18.15431055 25.09375 19.1328125 C25.09375 20.4528125 25.09375 21.7728125 25.09375 23.1328125 C27.73375 23.1328125 30.37375 23.1328125 33.09375 23.1328125 C33.12060938 25.27857887 33.14008088 27.42443895 33.15625 29.5703125 C33.16785156 30.76527344 33.17945313 31.96023437 33.19140625 33.19140625 C33.09375 36.1328125 33.09375 36.1328125 32.09375 37.1328125 C29.76077567 37.17374187 27.42669775 37.17522973 25.09375 37.1328125 C25.59206724 40.82036007 26.19442643 42.73771912 29.09375 45.1328125 C27.55958702 49.12163626 24.6690426 52.78064632 21.09375 55.1328125 C17.66988296 54.7437367 15.78179991 53.19365076 13.09375 51.1328125 C12.43375 51.1328125 11.77375 51.1328125 11.09375 51.1328125 C11.135 52.2465625 11.17625 53.3603125 11.21875 54.5078125 C11.09375 58.1328125 11.09375 58.1328125 9.09375 60.1328125 C6.5625 60.3984375 6.5625 60.3984375 3.59375 60.3828125 C2.6140625 60.38796875 1.634375 60.393125 0.625 60.3984375 C-1.90625 60.1328125 -1.90625 60.1328125 -3.90625 58.1328125 C-4.03125 54.5078125 -4.03125 54.5078125 -3.90625 51.1328125 C-6.82142292 52.20682358 -8.68435176 52.91091426 -10.90625 55.1328125 C-14.52616736 54.84112494 -16.22988813 53.13665679 -18.65625 50.5703125 C-19.26984375 49.92964844 -19.8834375 49.28898437 -20.515625 48.62890625 C-20.97453125 48.13519531 -21.4334375 47.64148438 -21.90625 47.1328125 C-20.88395134 45.07962443 -19.85445957 43.03498613 -18.78125 41.0078125 C-17.76528818 39.17560448 -17.76528818 39.17560448 -17.90625 37.1328125 C-19.6078125 37.16375 -19.6078125 37.16375 -21.34375 37.1953125 C-24.90625 37.1328125 -24.90625 37.1328125 -25.90625 36.1328125 C-25.97883946 33.94641797 -25.98998783 31.75780861 -25.96875 29.5703125 C-25.95972656 28.37277344 -25.95070313 27.17523438 -25.94140625 25.94140625 C-25.92980469 25.01457031 -25.91820313 24.08773437 -25.90625 23.1328125 C-23.26625 23.1328125 -20.62625 23.1328125 -17.90625 23.1328125 C-18.35342329 19.44366503 -18.35342329 19.44366503 -20.53125 16.5703125 C-20.985 16.0959375 -21.43875 15.6215625 -21.90625 15.1328125 C-21.52371276 11.65388888 -20.19612249 10.06604293 -17.59375 7.8203125 C-16.70236328 7.02173828 -16.70236328 7.02173828 -15.79296875 6.20703125 C-13.90625 5.1328125 -13.90625 5.1328125 -11.80078125 5.33984375 C-9.90625 6.1328125 -9.90625 6.1328125 -7.90625 8.1328125 C-6.91625 8.1328125 -5.92625 8.1328125 -4.90625 8.1328125 C-4.761875 6.9984375 -4.6175 5.8640625 -4.46875 4.6953125 C-3.75447574 0.1715755 -3.75447574 0.1715755 0 0 Z M-0.90625 3.1328125 C-1.23625 5.4428125 -1.56625 7.7528125 -1.90625 10.1328125 C-4.59375 11.3828125 -4.59375 11.3828125 -7.90625 12.1328125 C-10.78125 10.2578125 -10.78125 10.2578125 -12.90625 8.1328125 C-14.55625 9.7828125 -16.20625 11.4328125 -17.90625 13.1328125 C-17.596875 13.6896875 -17.2875 14.2465625 -16.96875 14.8203125 C-15.82084564 17.31869258 -15.18692722 19.39620958 -14.90625 22.1328125 C-16.90625 25.1328125 -16.90625 25.1328125 -20.03125 25.8203125 C-20.98 25.9234375 -21.92875 26.0265625 -22.90625 26.1328125 C-22.90625 28.7728125 -22.90625 31.4128125 -22.90625 34.1328125 C-20.59625 34.4628125 -18.28625 34.7928125 -15.90625 35.1328125 C-15.21875 38.4453125 -15.21875 38.4453125 -14.90625 42.1328125 C-16.34375 44.0703125 -16.34375 44.0703125 -17.90625 45.1328125 C-16.75451645 47.60081297 -15.85841435 49.18064815 -13.90625 51.1328125 C-10.97171739 50.76599592 -10.04187754 50.26844004 -7.90625 48.1328125 C-4.28125 48.5078125 -4.28125 48.5078125 -0.90625 49.1328125 C-0.90625 51.7728125 -0.90625 54.4128125 -0.90625 57.1328125 C2.06375 57.1328125 5.03375 57.1328125 8.09375 57.1328125 C8.09375 54.4928125 8.09375 51.8528125 8.09375 49.1328125 C11.40625 48.4453125 11.40625 48.4453125 15.09375 48.1328125 C16.78125 49.6328125 16.78125 49.6328125 18.09375 51.1328125 C20.75069438 50.96675348 21.85758679 50.34367251 23.84375 48.5703125 C24.25625 48.0959375 24.66875 47.6215625 25.09375 47.1328125 C24.784375 46.5759375 24.475 46.0190625 24.15625 45.4453125 C22.32787412 41.46590618 21.69304387 38.33493089 23.09375 34.1328125 C25.40375 34.1328125 27.71375 34.1328125 30.09375 34.1328125 C30.09375 31.4928125 30.09375 28.8528125 30.09375 26.1328125 C27.78375 25.4728125 25.47375 24.8128125 23.09375 24.1328125 C22.40625 21.3203125 22.40625 21.3203125 22.09375 18.1328125 C23.53125 16.2578125 23.53125 16.2578125 25.09375 15.1328125 C23.70042426 11.76560863 22.1148214 10.1468601 19.09375 8.1328125 C18.5678125 8.90625 18.5678125 8.90625 18.03125 9.6953125 C16.09375 11.1328125 16.09375 11.1328125 12.40625 10.8203125 C11.313125 10.5934375 10.22 10.3665625 9.09375 10.1328125 C8.76375 7.8228125 8.43375 5.5128125 8.09375 3.1328125 C5.12375 3.1328125 2.15375 3.1328125 -0.90625 3.1328125 Z " fill="#292B34" transform="translate(108.90625,86.8671875)"/>
<path d="M0 0 C0.8146875 0.00257812 1.629375 0.00515625 2.46875 0.0078125 C3.2834375 0.00523438 4.098125 0.00265625 4.9375 0 C6.96875 0.1328125 6.96875 0.1328125 7.96875 1.1328125 C8.00955783 3.13239614 8.01129356 5.13326504 7.96875 7.1328125 C8.71125 6.6171875 9.45375 6.1015625 10.21875 5.5703125 C12.96875 4.1328125 12.96875 4.1328125 15.03125 4.1953125 C17.68089903 5.47740074 19.1988665 6.77296784 20.96875 9.1328125 C20.79688436 12.65605822 19.95147184 14.15872974 17.96875 17.1328125 C19.4228125 17.101875 19.4228125 17.101875 20.90625 17.0703125 C23.96875 17.1328125 23.96875 17.1328125 24.96875 18.1328125 C25.00938832 19.79898365 25.011471 21.46669345 24.96875 23.1328125 C23.64875 23.1328125 22.32875 23.1328125 20.96875 23.1328125 C20.96875 22.1428125 20.96875 21.1528125 20.96875 20.1328125 C19.31875 19.8028125 17.66875 19.4728125 15.96875 19.1328125 C15.34417727 15.69766248 14.96875 12.64216436 14.96875 9.1328125 C13.69 9.3390625 12.41125 9.5453125 11.09375 9.7578125 C8.9140625 10.109375 8.9140625 10.109375 6.96875 10.1328125 C6.30875 9.4728125 5.64875 8.8128125 4.96875 8.1328125 C4.96875 6.8128125 4.96875 5.4928125 4.96875 4.1328125 C3.31875 4.1328125 1.66875 4.1328125 -0.03125 4.1328125 C-0.36125 5.7828125 -0.69125 7.4328125 -1.03125 9.1328125 C-4.46640002 9.75738523 -7.52189814 10.1328125 -11.03125 10.1328125 C-10.825 11.2259375 -10.61875 12.3190625 -10.40625 13.4453125 C-10.03125 17.1328125 -10.03125 17.1328125 -12.03125 20.1328125 C-14.65625 20.3203125 -14.65625 20.3203125 -17.03125 20.1328125 C-17.03125 21.4528125 -17.03125 22.7728125 -17.03125 24.1328125 C-18.02125 23.8028125 -19.01125 23.4728125 -20.03125 23.1328125 C-20.073971 21.46669345 -20.07188832 19.79898365 -20.03125 18.1328125 C-19.03125 17.1328125 -19.03125 17.1328125 -15.96875 17.0703125 C-14.5146875 17.10125 -14.5146875 17.10125 -13.03125 17.1328125 C-13.546875 16.3903125 -14.0625 15.6478125 -14.59375 14.8828125 C-16.03125 12.1328125 -16.03125 12.1328125 -15.96875 10.0703125 C-14.68666176 7.42066347 -13.39109466 5.902696 -11.03125 4.1328125 C-7.50800428 4.30467814 -6.00533276 5.15009066 -3.03125 7.1328125 C-3.051875 6.1634375 -3.0725 5.1940625 -3.09375 4.1953125 C-3.01215073 0.19694832 -3.01215073 0.19694832 0 0 Z " fill="#29303B" transform="translate(110.03125,61.8671875)"/>
<path d="M0 0 C3.61932815 2.61823738 4.82190418 4.02047301 5.625 8.4375 C4.80828728 13.0927625 3.6286579 14.96377604 0 18 C-3.19738728 18.86150218 -5.80261272 18.86150218 -9 18 C-12.6286579 14.96377604 -13.80828728 13.0927625 -14.625 8.4375 C-13.84380508 4.14092793 -12.34762132 2.70997917 -9 0 C-5.77509551 -1.61245225 -3.43772273 -0.81573082 0 0 Z " fill="#282D38" transform="translate(117,108)"/>
<path d="M0 0 C0.66 0 1.32 0 2 0 C1.979375 0.804375 1.95875 1.60875 1.9375 2.4375 C1.70366379 4.93354885 1.70366379 4.93354885 3 6 C2.71269945 8.33944736 2.38063221 10.6739143 2 13 C0.35 13 -1.3 13 -3 13 C-3 14.65 -3 16.3 -3 18 C-1.35 18 0.3 18 2 18 C2.73080266 19.97746603 3.39421747 21.98072489 4 24 C3.67 24.66 3.34 25.32 3 26 C2.34 26 1.68 26 1 26 C2.32 27.32 3.64 28.64 5 30 C5.66 29.34 6.32 28.68 7 28 C10.125 28.375 10.125 28.375 13 29 C13 30.65 13 32.3 13 34 C14.65 34 16.3 34 18 34 C18.144375 33.195625 18.28875 32.39125 18.4375 31.5625 C19 29 19 29 20 28 C21.99950636 27.95556653 24.00038436 27.96079185 26 28 C27.32 28 28.64 28 30 28 C30.66 28.33 31.32 28.66 32 29 C31.0433747 31.47128202 30.54027102 32.72986449 28.125 33.9375 C25.23179718 34.0225942 24.10832763 32.88243538 22 31 C22.04125 31.78375 22.0825 32.5675 22.125 33.375 C22 36 22 36 20 38 C18.125 38.265625 18.125 38.265625 16 38.25 C15.29875 38.25515625 14.5975 38.2603125 13.875 38.265625 C12 38 12 38 10 36 C9.875 33.375 9.875 33.375 10 31 C9.4225 31.515625 8.845 32.03125 8.25 32.5625 C6 34 6 34 4 33.9375 C1.30311927 32.67333716 -0.20955129 31.38726494 -2 29 C-1.80398092 26.25573284 -1.22394754 24.44789508 0 22 C-0.804375 22.020625 -1.60875 22.04125 -2.4375 22.0625 C-5 22 -5 22 -6 21 C-6.09823937 19.33570949 -6.12973631 17.66718069 -6.125 16 C-6.12757812 15.0925 -6.13015625 14.185 -6.1328125 13.25 C-6 11 -6 11 -5 10 C-3.33382885 9.95936168 -1.66611905 9.957279 0 10 C-0.515625 9.4225 -1.03125 8.845 -1.5625 8.25 C-3 6 -3 6 -2.8125 3.875 C-2 2 -2 2 0 0 Z " fill="#2E333D" transform="translate(74,125)"/>
<path d="M0 0 C0.99 0 1.98 0 3 0 C5 3 5 3 4.75 5 C4 7 4 7 2 10 C2.804375 9.979375 3.60875 9.95875 4.4375 9.9375 C7 10 7 10 8 11 C8.07205511 12.68608966 8.08386068 14.37500659 8.0625 16.0625 C8.05347656 16.98160156 8.04445312 17.90070313 8.03515625 18.84765625 C8.02355469 19.55792969 8.01195312 20.26820313 8 21 C6.02 21 4.04 21 2 21 C2.515625 21.7425 3.03125 22.485 3.5625 23.25 C5 26 5 26 5 28.0625 C3.52177301 30.92656479 1.70785079 32.2997216 -1 34 C-4.10405796 33.81740836 -5.34164013 32.77223991 -8 31 C-7.95875 31.78375 -7.9175 32.5675 -7.875 33.375 C-8 36 -8 36 -10 38 C-11.875 38.265625 -11.875 38.265625 -14 38.25 C-14.70125 38.25515625 -15.4025 38.2603125 -16.125 38.265625 C-18 38 -18 38 -20 36 C-20.125 33.375 -20.125 33.375 -20 31 C-20.5775 31.515625 -21.155 32.03125 -21.75 32.5625 C-24 34 -24 34 -26.125 33.9375 C-28.54027102 32.72986449 -29.0433747 31.47128202 -30 29 C-29.01 29 -28.02 29 -27 29 C-25.64409966 28.82547817 -24.28992087 28.63720327 -22.9375 28.4375 C-19 28 -19 28 -17 29 C-17 30.65 -17 32.3 -17 34 C-15.02 34 -13.04 34 -11 34 C-11 32.35 -11 30.7 -11 29 C-8.1875 28.375 -8.1875 28.375 -5 28 C-4.01 28.66 -3.02 29.32 -2 30 C-1.34 29.01 -0.68 28.02 0 27 C-0.33 26.195625 -0.66 25.39125 -1 24.5625 C-2 22 -2 22 -1.125 19.6875 C-0.75375 19.130625 -0.3825 18.57375 0 18 C1.65 18 3.3 18 5 18 C5 16.35 5 14.7 5 13 C3.35 13 1.7 13 0 13 C-1.125 6.375 -1.125 6.375 0 3 C0 2.01 0 1.02 0 0 Z " fill="#2B313C" transform="translate(149,125)"/>
<path d="M0 0 C1.1859375 0.00257812 2.371875 0.00515625 3.59375 0.0078125 C4.7796875 0.00523438 5.965625 0.00265625 7.1875 0 C10.09375 0.1328125 10.09375 0.1328125 11.09375 1.1328125 C11.46135731 3.46099214 11.79616581 5.794651 12.09375 8.1328125 C12.83625 7.8234375 13.57875 7.5140625 14.34375 7.1953125 C15.25125 6.8446875 16.15875 6.4940625 17.09375 6.1328125 C17.733125 5.8853125 18.3725 5.6378125 19.03125 5.3828125 C21.09375 5.1328125 21.09375 5.1328125 23.015625 6.34765625 C23.61890625 6.91613281 24.2221875 7.48460938 24.84375 8.0703125 C25.45734375 8.63621094 26.0709375 9.20210937 26.703125 9.78515625 C27.39148438 10.45224609 27.39148438 10.45224609 28.09375 11.1328125 C27.43375 11.7928125 26.77375 12.4528125 26.09375 13.1328125 C23.60013429 11.92899802 21.41231917 10.67852528 19.09375 9.1328125 C18.5678125 9.90625 18.5678125 9.90625 18.03125 10.6953125 C16.09375 12.1328125 16.09375 12.1328125 12.46875 11.8828125 C9.09375 11.1328125 9.09375 11.1328125 8.09375 10.1328125 C8.05282063 7.79983817 8.05133277 5.46576025 8.09375 3.1328125 C5.12375 3.1328125 2.15375 3.1328125 -0.90625 3.1328125 C-0.803125 4.2259375 -0.7 5.3190625 -0.59375 6.4453125 C-0.90625 10.1328125 -0.90625 10.1328125 -3.15625 12.1953125 C-5.90625 13.1328125 -5.90625 13.1328125 -8.03125 12.4453125 C-8.65 12.0121875 -9.26875 11.5790625 -9.90625 11.1328125 C-10.89625 10.4728125 -11.88625 9.8128125 -12.90625 9.1328125 C-13.38835937 9.5659375 -13.87046875 9.9990625 -14.3671875 10.4453125 C-15.31464844 11.280625 -15.31464844 11.280625 -16.28125 12.1328125 C-16.90773438 12.6896875 -17.53421875 13.2465625 -18.1796875 13.8203125 C-19.90625 15.1328125 -19.90625 15.1328125 -21.90625 15.1328125 C-21.33831678 11.65706122 -20.24456755 10.10784884 -17.59375 7.8203125 C-16.99949219 7.28792969 -16.40523438 6.75554687 -15.79296875 6.20703125 C-13.90625 5.1328125 -13.90625 5.1328125 -11.80078125 5.33984375 C-9.90625 6.1328125 -9.90625 6.1328125 -7.90625 8.1328125 C-6.91625 8.1328125 -5.92625 8.1328125 -4.90625 8.1328125 C-4.761875 6.9984375 -4.6175 5.8640625 -4.46875 4.6953125 C-3.75447574 0.1715755 -3.75447574 0.1715755 0 0 Z " fill="#2E3840" transform="translate(108.90625,86.8671875)"/>
<path d="M0 0 C2.5 0.5 2.5 0.5 4.875 2.0625 C6.5 4.5 6.5 4.5 6.375 8.125 C5.5 11.5 5.5 11.5 3.5 13.5 C0.0625 13.875 0.0625 13.875 -3.5 13.5 C-5.88460953 11.42308202 -6.3959746 10.09443084 -6.9375 7 C-6.20847934 2.83416768 -4.12966477 0.82593295 0 0 Z " fill="#818BA3" transform="translate(112.5,109.5)"/>
<path d="M0 0 C1.4606285 2.64738916 2 3.89448334 2 7 C-1.43515002 7.62457273 -4.49064814 8 -8 8 C-7.79375 9.093125 -7.5875 10.18625 -7.375 11.3125 C-7 15 -7 15 -9 18 C-11.625 18.1875 -11.625 18.1875 -14 18 C-14 19.32 -14 20.64 -14 22 C-14.99 21.67 -15.98 21.34 -17 21 C-17.042721 19.33388095 -17.04063832 17.66617115 -17 16 C-16 15 -16 15 -12.9375 14.9375 C-11.4834375 14.9684375 -11.4834375 14.9684375 -10 15 C-10.515625 14.2575 -11.03125 13.515 -11.5625 12.75 C-13 10 -13 10 -12.9375 7.9375 C-11.65541176 5.28785097 -10.35984466 3.7698835 -8 2 C-4.47675428 2.17186564 -2.97408276 3.01727816 0 5 C0 3.35 0 1.7 0 0 Z " fill="#333842" transform="translate(107,64)"/>
<path d="M0 0 C-0.33 0.99 -0.66 1.98 -1 3 C-2.32 3 -3.64 3 -5 3 C-4.95875 4.11375 -4.9175 5.2275 -4.875 6.375 C-5 10 -5 10 -7 12 C-9.53125 12.265625 -9.53125 12.265625 -12.5 12.25 C-13.4796875 12.25515625 -14.459375 12.2603125 -15.46875 12.265625 C-18 12 -18 12 -20 10 C-20.125 6.375 -20.125 6.375 -20 3 C-20.99 2.67 -21.98 2.34 -23 2 C-21.125 0.9375 -21.125 0.9375 -19 0 C-18.34 0.33 -17.68 0.66 -17 1 C-17 3.64 -17 6.28 -17 9 C-14.03 9 -11.06 9 -8 9 C-8 6.36 -8 3.72 -8 1 C-4.93251126 -0.86240388 -3.40254489 -1.2151946 0 0 Z " fill="#222D38" transform="translate(125,135)"/>
<path d="M0 0 C0.8353125 0.2475 0.8353125 0.2475 1.6875 0.5 C4.6565366 1.14195386 7.03011081 0.51650247 10 0 C10.66 0.33 11.32 0.66 12 1 C12 2.65 12 4.3 12 6 C13.98 6 15.96 6 18 6 C18 5.01 18 4.02 18 3 C18.99 3 19.98 3 21 3 C21.125 5.375 21.125 5.375 21 8 C19 10 19 10 17.125 10.265625 C16.42375 10.26046875 15.7225 10.2553125 15 10.25 C14.29875 10.25515625 13.5975 10.2603125 12.875 10.265625 C11 10 11 10 9 8 C8.875 5.375 8.875 5.375 9 3 C8.4225 3.515625 7.845 4.03125 7.25 4.5625 C5 6 5 6 2.875 5.9375 C0.45972898 4.72986449 -0.0433747 3.47128202 -1 1 C-0.67 0.67 -0.34 0.34 0 0 Z " fill="#393E48" transform="translate(120,153)"/>
<path d="M0 0 C0.66 0 1.32 0 2 0 C1.979375 0.804375 1.95875 1.60875 1.9375 2.4375 C1.70366379 4.93354885 1.70366379 4.93354885 3 6 C2.71269945 8.33944736 2.38063221 10.6739143 2 13 C0.02 13 -1.96 13 -4 13 C-4.33 15.31 -4.66 17.62 -5 20 C-5.33 20 -5.66 20 -6 20 C-6.02689216 18.52093108 -6.04634621 17.04172517 -6.0625 15.5625 C-6.07410156 14.73878906 -6.08570312 13.91507813 -6.09765625 13.06640625 C-6 11 -6 11 -5 10 C-3.33382885 9.95936168 -1.66611905 9.957279 0 10 C-0.515625 9.4225 -1.03125 8.845 -1.5625 8.25 C-3 6 -3 6 -2.8125 3.875 C-2 2 -2 2 0 0 Z " fill="#2A2F3B" transform="translate(74,125)"/>
<path d="M0 0 C0.99 0 1.98 0 3 0 C2.43902568 3.3658459 1.56149386 5.98111187 0 9 C0 9.66 0 10.32 0 11 C2.64 11 5.28 11 8 11 C7.34 14.63 6.68 18.26 6 22 C5.67 22 5.34 22 5 22 C5 19.36 5 16.72 5 14 C3.6078125 14.12375 3.6078125 14.12375 2.1875 14.25 C-1 14 -1 14 -2.9375 12.3125 C-4.3122582 9.32037922 -4.05697509 8.09542704 -3 5 C-1.625 2.1875 -1.625 2.1875 0 0 Z " fill="#222B33" transform="translate(134,99)"/>
<path d="M0 0 C0.33 0 0.66 0 1 0 C1 1.65 1 3.3 1 5 C2.65 5 4.3 5 6 5 C6.73080266 6.97746603 7.39421747 8.98072489 8 11 C7.67 11.66 7.34 12.32 7 13 C6.34 13 5.68 13 5 13 C5.99 14.65 6.98 16.3 8 18 C6.35 18 4.7 18 3 18 C2.375 15.1875 2.375 15.1875 2 12 C2.66 11.01 3.32 10.02 4 9 C2.35 9 0.7 9 -1 9 C-2.60031344 5.79937313 -1.03173691 3.27728194 0 0 Z " fill="#313641" transform="translate(70,138)"/>
<path d="M0 0 C1.32 0.33 2.64 0.66 4 1 C4.87620107 4.42514962 5.19765706 6.44408952 4 9.8125 C2 12 2 12 -1.5 12.9375 C-5 13 -5 13 -8 11 C-8 10.01 -8 9.02 -8 8 C-6.2984375 8.2784375 -6.2984375 8.2784375 -4.5625 8.5625 C-3.386875 8.706875 -2.21125 8.85125 -1 9 C0.20561184 8.01732141 0.20561184 8.01732141 0.09765625 6.15234375 C0.08605469 5.42144531 0.07445312 4.69054687 0.0625 3.9375 C0.041875 2.638125 0.02125 1.33875 0 0 Z " fill="#2D333D" transform="translate(138,135)"/>
<path d="M0 0 C2.9375 2.375 2.9375 2.375 5 5 C5 5.99 5 6.98 5 8 C4.34 8 3.68 8 3 8 C3 7.34 3 6.68 3 6 C2.360625 5.690625 1.72125 5.38125 1.0625 5.0625 C-1 4 -1 4 -2 3 C-4.41583753 2.66625723 -4.41583753 2.66625723 -7 3 C-8.58333333 4.41666667 -8.58333333 4.41666667 -10 6 C-12.1875 6.6875 -12.1875 6.6875 -14 7 C-13.07739356 3.89668743 -12.29502729 2.25288053 -9.8125 0.125 C-6.02130142 -1.39147943 -3.9112963 -1.11751323 0 0 Z " fill="#35313A" transform="translate(117,108)"/>
<path d="M0 0 C1.9375 1.8125 1.9375 1.8125 3 4 C3 5.32 3 6.64 3 8 C2.01 8 1.02 8 0 8 C-0.33 6.35 -0.66 4.7 -1 3 C-3.37305578 2.58219121 -3.37305578 2.58219121 -6 3 C-7.8624438 5.40858714 -7.8624438 5.40858714 -9 8 C-9.99 7.67 -10.98 7.34 -12 7 C-11.6815535 4.05436986 -11.33733608 2.38923394 -9.375 0.125 C-5.89022914 -1.52568093 -3.66368347 -0.9991864 0 0 Z " fill="#323741" transform="translate(117,78)"/>
<path d="M0 0 C0.66 0 1.32 0 2 0 C2.33 2.31 2.66 4.62 3 7 C6.05263664 7.98120464 7.94736336 7.98120464 11 7 C10.67 8.32 10.34 9.64 10 11 C6.8125 11.8125 6.8125 11.8125 3 12 C-0.22083405 9.67003494 -1.79034314 8.28789213 -2.4375 4.3125 C-2 2 -2 2 0 0 Z " fill="#2E333E" transform="translate(84,136)"/>
<path d="M0 0 C0.99 0.33 1.98 0.66 3 1 C2.34 1 1.68 1 1 1 C1.20625 2.27875 1.4125 3.5575 1.625 4.875 C1.9765625 7.0546875 1.9765625 7.0546875 2 9 C1.34 9.66 0.68 10.32 0 11 C-2.61580479 10.6730244 -4.64078137 10.17960932 -7 9 C-5.44499019 5.18315774 -2.96404505 2.80804268 0 0 Z " fill="#F1F2F2" transform="translate(137,134)"/>
<path d="M0 0 C0.8146875 0.00257812 1.629375 0.00515625 2.46875 0.0078125 C3.2834375 0.00523438 4.098125 0.00265625 4.9375 0 C6.96875 0.1328125 6.96875 0.1328125 7.96875 1.1328125 C8.00955783 3.13239614 8.01129356 5.13326504 7.96875 7.1328125 C8.62875 7.4628125 9.28875 7.7928125 9.96875 8.1328125 C8.31875 8.1328125 6.66875 8.1328125 4.96875 8.1328125 C4.96875 6.8128125 4.96875 5.4928125 4.96875 4.1328125 C3.31875 4.1328125 1.66875 4.1328125 -0.03125 4.1328125 C-0.36125 5.4528125 -0.69125 6.7728125 -1.03125 8.1328125 C-1.69125 5.8228125 -2.35125 3.5128125 -3.03125 1.1328125 C-2.03125 0.1328125 -2.03125 0.1328125 0 0 Z " fill="#202632" transform="translate(110.03125,61.8671875)"/>
<path d="M0 0 C2.625 0.375 2.625 0.375 5 1 C5.12375 1.804375 5.2475 2.60875 5.375 3.4375 C5.58125 4.283125 5.7875 5.12875 6 6 C6.66 6.33 7.32 6.66 8 7 C3.71 7 -0.58 7 -5 7 C-4.34 6.67 -3.68 6.34 -3 6 C-2.65657551 4.66923011 -2.32380126 3.33568021 -2 2 C-1.34 1.34 -0.68 0.68 0 0 Z " fill="#EDEFEF" transform="translate(111,80)"/>
<path d="M0 0 C3.125 0.375 3.125 0.375 6 1 C6.33 3.31 6.66 5.62 7 8 C5.68 8 4.36 8 3 8 C3 6.35 3 4.7 3 3 C2.4225 3.515625 1.845 4.03125 1.25 4.5625 C-1 6 -1 6 -3.125 5.875 C-5 5 -5 5 -7 2 C-6.21625 2.04125 -5.4325 2.0825 -4.625 2.125 C-1.83883881 2.28728734 -1.83883881 2.28728734 0 0 Z " fill="#1A212E" transform="translate(81,153)"/>
<path d="M0 0 C4.73045822 4.24528302 4.73045822 4.24528302 5.9375 7.625 C6 10 6 10 4 13 C0.375 13.1875 0.375 13.1875 -3 13 C-3.33 12.34 -3.66 11.68 -4 11 C-2.02 11 -0.04 11 2 11 C1.45276317 7.62537285 0.9451 5.91765 -1 3 C-0.67 2.01 -0.34 1.02 0 0 Z " fill="#222834" transform="translate(89,99)"/>
<path d="M0 0 C0.53625 0.185625 1.0725 0.37125 1.625 0.5625 C4.12431974 1.1671747 4.12431974 1.1671747 7.125 0.4375 C8.07375 0.293125 9.0225 0.14875 10 0 C10.66 0.66 11.32 1.32 12 2 C9.79947406 4.20052594 8.94858104 4.3929392 6 5 C5.319375 5.2475 4.63875 5.495 3.9375 5.75 C3.298125 5.8325 2.65875 5.915 2 6 C0.25 4.5625 0.25 4.5625 -1 3 C-0.67 2.01 -0.34 1.02 0 0 Z " fill="#313640" transform="translate(120,153)"/>
<path d="M0 0 C3.05270463 0.15811388 3.05270463 0.15811388 6 -1 C5.42655063 1.86724686 5.1385485 2.8614515 3 5 C1.25 4.75 1.25 4.75 -1 4 C-2.0725 3.649375 -3.145 3.29875 -4.25 2.9375 C-5.1575 2.628125 -6.065 2.31875 -7 2 C-7 1.34 -7 0.68 -7 0 C-4.31581667 -1.34209166 -2.88064523 -0.63233676 0 0 Z " fill="#202733" transform="translate(145,154)"/>
<path d="M0 0 C0.99 0 1.98 0 3 0 C5 3 5 3 4.75 5 C4 7 4 7 2 10 C3.32 10.33 4.64 10.66 6 11 C3.69 10.67 1.38 10.34 -1 10 C-0.67 6.7 -0.34 3.4 0 0 Z " fill="#292E3A" transform="translate(149,125)"/>
<path d="M0 0 C0.33 0 0.66 0 1 0 C1.02686553 1.97909398 1.04633375 3.95828971 1.0625 5.9375 C1.07410156 7.03964844 1.08570313 8.14179687 1.09765625 9.27734375 C1 12 1 12 0 13 C-2.33297433 13.04092937 -4.66705225 13.04241723 -7 13 C-6.34 12.01 -5.68 11.02 -5 10 C-3.68 10 -2.36 10 -1 10 C-1.020625 8.72125 -1.04125 7.4425 -1.0625 6.125 C-1.125 2.25 -1.125 2.25 0 0 Z " fill="#1A222F" transform="translate(141,111)"/>
<path d="M0 0 C2.16796875 0.36328125 2.16796875 0.36328125 4 1 C3.09515208 2.15518918 2.1755794 3.29885406 1.25 4.4375 C0.73953125 5.07558594 0.2290625 5.71367188 -0.296875 6.37109375 C-2.19667629 8.18810554 -3.43586908 8.60423197 -6 9 C-5.52753358 4.74780225 -3.22727623 2.62685275 0 0 Z " fill="#3C3E46" transform="translate(93,93)"/>
<path d="M0 0 C0.66 0 1.32 0 2 0 C6.04916847 5.09038322 6.04916847 5.09038322 5.875 8.3125 C5 10 5 10 3 11 C-1.06153846 4.6 -1.06153846 4.6 -0.75 1.5625 C-0.5025 1.046875 -0.255 0.53125 0 0 Z " fill="#3A4048" transform="translate(148,145)"/>
<path d="M0 0 C4.29 0 8.58 0 13 0 C12.67 0.66 12.34 1.32 12 2 C8.7 2 5.4 2 2 2 C1.67 4.31 1.34 6.62 1 9 C0.67 9 0.34 9 0 9 C0 6.03 0 3.06 0 0 Z " fill="#232934" transform="translate(106,87)"/>
<path d="M0 0 C3.67420866 0.30618405 4.78135513 0.75771784 7.3125 3.5625 C8.1478125 4.7690625 8.1478125 4.7690625 9 6 C7.3125 6.75 7.3125 6.75 5 7 C2.25 5.25 2.25 5.25 0 3 C0 2.01 0 1.02 0 0 Z " fill="#393B43" transform="translate(128,93)"/>
<path d="M0 0 C0.33 0 0.66 0 1 0 C1 1.98 1 3.96 1 6 C1.66 6.33 2.32 6.66 3 7 C2 8 2 8 0.15234375 8.09765625 C-1.8984375 8.06510417 -3.94921875 8.03255208 -6 8 C-6.33 7.34 -6.66 6.68 -7 6 C-6.01 6 -5.02 6 -4 6 C-4 5.34 -4 4.68 -4 4 C-2.68 4 -1.36 4 0 4 C0 2.68 0 1.36 0 0 Z " fill="#555961" transform="translate(92,155)"/>
<path d="M0 0 C0.66 0 1.32 0 2 0 C2.33 2.64 2.66 5.28 3 8 C1.68 8.33 0.36 8.66 -1 9 C-1.625 5.625 -1.625 5.625 -2 2 C-1.34 1.34 -0.68 0.68 0 0 Z " fill="#434852" transform="translate(84,136)"/>
<path d="M0 0 C-0.33 0.99 -0.66 1.98 -1 3 C-2.32 3 -3.64 3 -5 3 C-5 5.31 -5 7.62 -5 10 C-5.33 10 -5.66 10 -6 10 C-6.144375 8.88625 -6.28875 7.7725 -6.4375 6.625 C-6.78372035 3.17857953 -6.78372035 3.17857953 -8 1 C-4.93251126 -0.86240388 -3.40254489 -1.2151946 0 0 Z " fill="#373840" transform="translate(125,135)"/>
<path d="M0 0 C1.32 0.33 2.64 0.66 4 1 C4.33 2.98 4.66 4.96 5 7 C4.01 7.495 4.01 7.495 3 8 C2.34 7.67 1.68 7.34 1 7 C0.59270772 4.67843403 0.25561323 2.3431213 0 0 Z " fill="#40444E" transform="translate(138,135)"/>
<path d="M0 0 C0.8971875 0.309375 0.8971875 0.309375 1.8125 0.625 C0.8225 0.955 -0.1675 1.285 -1.1875 1.625 C-2.39632096 3.62516466 -2.39632096 3.62516466 -3.1875 5.625 C-4.8375 5.625 -6.4875 5.625 -8.1875 5.625 C-8.5175 4.965 -8.8475 4.305 -9.1875 3.625 C-7.8675 3.625 -6.5475 3.625 -5.1875 3.625 C-5.1875 2.965 -5.1875 2.305 -5.1875 1.625 C-2.1875 -0.375 -2.1875 -0.375 0 0 Z " fill="#2C323C" transform="translate(125.1875,66.375)"/>
<path d="M0 0 C1.2065625 0.0309375 1.2065625 0.0309375 2.4375 0.0625 C2.7675 1.0525 3.0975 2.0425 3.4375 3.0625 C1.7875 3.0625 0.1375 3.0625 -1.5625 3.0625 C-1.8925 5.3725 -2.2225 7.6825 -2.5625 10.0625 C-2.8925 10.0625 -3.2225 10.0625 -3.5625 10.0625 C-3.58939216 8.58343108 -3.60884621 7.10422517 -3.625 5.625 C-3.63660156 4.80128906 -3.64820312 3.97757813 -3.66015625 3.12890625 C-3.51340586 0.02366796 -3.12550237 0.07623177 0 0 Z " fill="#161D2A" transform="translate(71.5625,134.9375)"/>
<path d="M0 0 C0.99 0.33 1.98 0.66 3 1 C2.01 1.495 2.01 1.495 1 2 C0.3503125 3.2684375 0.3503125 3.2684375 -0.3125 4.5625 C-0.869375 5.366875 -1.42625 6.17125 -2 7 C-4.6875 7.3125 -4.6875 7.3125 -7 7 C-7 6.34 -7 5.68 -7 5 C-5.57421875 3.67578125 -5.57421875 3.67578125 -3.6875 2.3125 C-3.07261719 1.85488281 -2.45773438 1.39726563 -1.82421875 0.92578125 C-1.22222656 0.62027344 -0.62023437 0.31476563 0 0 Z " fill="#242A35" transform="translate(127,92)"/>
<path d="M0 0 C-0.66 3.63 -1.32 7.26 -2 11 C-2.33 11 -2.66 11 -3 11 C-3 8.36 -3 5.72 -3 3 C-4.98 3 -6.96 3 -9 3 C-5.59353476 -0.0279691 -4.9819505 0 0 0 Z " fill="#4B3339" transform="translate(142,110)"/>
<path d="M0 0 C2.31 0.66 4.62 1.32 7 2 C7 2.33 7 2.66 7 3 C5.35 3 3.7 3 2 3 C2 4.32 2 5.64 2 7 C1.01 6.67 0.02 6.34 -1 6 C-1.042721 4.33388095 -1.04063832 2.66617115 -1 1 C-0.67 0.67 -0.34 0.34 0 0 Z " fill="#393E47" transform="translate(91,79)"/>
<path d="M0 0 C1.4606285 2.64738916 2 3.89448334 2 7 C0.02 7.33 -1.96 7.66 -4 8 C-4 6.68 -4 5.36 -4 4 C-2.02 4.495 -2.02 4.495 0 5 C0 3.35 0 1.7 0 0 Z " fill="#1E2531" transform="translate(107,64)"/>
<path d="M0 0 C1.23556641 0.01740234 1.23556641 0.01740234 2.49609375 0.03515625 C3.32238281 0.04417969 4.14867188 0.05320313 5 0.0625 C5.63808594 0.07410156 6.27617188 0.08570313 6.93359375 0.09765625 C6.93359375 0.42765625 6.93359375 0.75765625 6.93359375 1.09765625 C4.62359375 1.42765625 2.31359375 1.75765625 -0.06640625 2.09765625 C1.58359375 2.42765625 3.23359375 2.75765625 4.93359375 3.09765625 C4.93359375 3.42765625 4.93359375 3.75765625 4.93359375 4.09765625 C3.28359375 4.09765625 1.63359375 4.09765625 -0.06640625 4.09765625 C-0.39640625 5.41765625 -0.72640625 6.73765625 -1.06640625 8.09765625 C-1.72640625 5.78765625 -2.38640625 3.47765625 -3.06640625 1.09765625 C-2.06640625 0.09765625 -2.06640625 0.09765625 0 0 Z " fill="#5C6066" transform="translate(110.06640625,61.90234375)"/>
<path d="M0 0 C0.66 0.33 1.32 0.66 2 1 C2 2.65 2 4.3 2 6 C0.68 6 -0.64 6 -2 6 C-2 5.01 -2 4.02 -2 3 C-2.66 2.67 -3.32 2.34 -4 2 C-2.125 0.9375 -2.125 0.9375 0 0 Z " fill="#434851" transform="translate(133,79)"/>
<path d="M0 0 C2.6875 0.3125 2.6875 0.3125 5 1 C3.35 2.65 1.7 4.3 0 6 C-0.33 5.34 -0.66 4.68 -1 4 C-1.66 3.67 -2.32 3.34 -3 3 C-1.8125 1.4375 -1.8125 1.4375 0 0 Z " fill="#3C414A" transform="translate(99,66)"/>
<path d="M0 0 C0.99 0.33 1.98 0.66 3 1 C3.33 3.31 3.66 5.62 4 8 C2.68 8 1.36 8 0 8 C0 5.36 0 2.72 0 0 Z " fill="#343B45" transform="translate(84,153)"/>
<path d="M0 0 C1.32 0.33 2.64 0.66 4 1 C4 1.66 4 2.32 4 3 C4.66 3 5.32 3 6 3 C6 2.34 6 1.68 6 1 C6.66 1 7.32 1 8 1 C7.34 2.32 6.68 3.64 6 5 C4.125 4.75 4.125 4.75 2 4 C0.75 1.9375 0.75 1.9375 0 0 Z " fill="#DB5048" transform="translate(124,133)"/>
<path d="M0 0 C0.99 0 1.98 0 3 0 C3 1.65 3 3.3 3 5 C0.36 4.67 -2.28 4.34 -5 4 C-5 3.67 -5 3.34 -5 3 C-3.35 3 -1.7 3 0 3 C0 2.01 0 1.02 0 0 Z " fill="#484B55" transform="translate(138,156)"/>
<path d="M0 0 C0.33 0 0.66 0 1 0 C1 1.65 1 3.3 1 5 C2.65 5 4.3 5 6 5 C6 5.33 6 5.66 6 6 C4.35 6.33 2.7 6.66 1 7 C1.99 7.66 2.98 8.32 4 9 C2.35 9 0.7 9 -1 9 C-2.60031344 5.79937313 -1.03173691 3.27728194 0 0 Z " fill="#65696F" transform="translate(70,138)"/>
<path d="M0 0 C3.26954202 0.56371414 4.82575883 1.49962266 7 4 C6.67 4.99 6.34 5.98 6 7 C1.125 2.25 1.125 2.25 0 0 Z " fill="#1E262E" transform="translate(95,92)"/>
<path d="M0 0 C1.32 0.33 2.64 0.66 4 1 C3.34 2.32 2.68 3.64 2 5 C1.34 5 0.68 5 0 5 C-0.33 5.66 -0.66 6.32 -1 7 C-2 4 -2 4 -1.0625 1.8125 C-0.5365625 0.9153125 -0.5365625 0.9153125 0 0 Z " fill="#2D2F39" transform="translate(132,121)"/>
<path d="M0 0 C0.99 0 1.98 0 3 0 C2.67 1.65 2.34 3.3 2 5 C-0.31 4.67 -2.62 4.34 -5 4 C-5 3.67 -5 3.34 -5 3 C-3.35 3 -1.7 3 0 3 C0 2.01 0 1.02 0 0 Z " fill="#171D2B" transform="translate(97,76)"/>
<path d="M0 0 C2.97 0.495 2.97 0.495 6 1 C5.01 2.485 5.01 2.485 4 4 C2.35 3.67 0.7 3.34 -1 3 C-0.67 2.01 -0.34 1.02 0 0 Z " fill="#202632" transform="translate(126,153)"/>
<path d="M0 0 C0.99 0.66 1.98 1.32 3 2 C2.34 4.64 1.68 7.28 1 10 C0.67 10 0.34 10 0 10 C0 7.69 0 5.38 0 3 C-0.99 2.67 -1.98 2.34 -3 2 C-2.01 1.34 -1.02 0.68 0 0 Z " fill="#45444C" transform="translate(105,135)"/>
<path d="M0 0 C1.65 0 3.3 0 5 0 C5.33 1.32 5.66 2.64 6 4 C3.69 3.34 1.38 2.68 -1 2 C-0.67 1.34 -0.34 0.68 0 0 Z " fill="#1C232F" transform="translate(71,144)"/>
</svg>
